<svg width="32" height="25" viewBox="0 0 32 25" fill="none" xmlns="http://www.w3.org/2000/svg">
<path d="M2.23828 7.39084L3.79674 23.3405C3.84559 23.8006 4.05467 24.2251 4.38341 24.5317C4.71214 24.8383 5.1371 25.0052 5.57582 24.9998H26.4319C26.8696 24.9999 27.2918 24.8287 27.6169 24.5195C27.942 24.2103 28.147 23.785 28.1922 23.3256L29.7648 7.37598L2.23828 7.39084ZM8.61294 21.5325H6.36913V10.9324H8.61294V21.5325ZM14.2835 21.5325H12.0444V10.9324H14.2835V21.5325ZM19.9587 21.483H17.7196V10.8879H19.9587V21.483ZM25.6339 21.483H23.3901V10.8879H25.6339V21.483Z" fill="#E1E6E9"/>
<path d="M31.3053 5.41455H0.694734C0.311043 5.41455 0 5.74277 0 6.14764V8.89673C0 9.3016 0.311043 9.62982 0.694734 9.62982H31.3053C31.689 9.62982 32 9.3016 32 8.89673V6.14764C32 5.74277 31.689 5.41455 31.3053 5.41455Z" fill="#D5D6DB"/>
<path d="M24.1228 8.67387C24.7969 8.67387 25.3433 8.09728 25.3433 7.38601C25.3433 6.67474 24.7969 6.09814 24.1228 6.09814C23.4488 6.09814 22.9023 6.67474 22.9023 7.38601C22.9023 8.09728 23.4488 8.67387 24.1228 8.67387Z" fill="#C8C9CC"/>
<path d="M30.8751 0.263087C30.715 0.0946086 30.498 0 30.2719 0C30.0458 0 29.8289 0.0946086 29.6687 0.263087L23.6085 6.67266C23.4486 6.84212 23.3589 7.07171 23.3594 7.31091C23.3598 7.5501 23.4503 7.77932 23.6109 7.94813C23.7715 8.11694 23.9891 8.21151 24.2158 8.21105C24.4424 8.21059 24.6597 8.11512 24.8196 7.94565L30.8751 1.5559C30.9564 1.47153 31.021 1.37093 31.0651 1.25995C31.1092 1.14897 31.1319 1.02983 31.1319 0.909493C31.1319 0.789154 31.1092 0.670019 31.0651 0.559037C31.021 0.448056 30.9564 0.347451 30.8751 0.263087Z" fill="#3A556A"/>
<path d="M7.88064 8.67387C8.5547 8.67387 9.10112 8.09728 9.10112 7.38601C9.10112 6.67474 8.5547 6.09814 7.88064 6.09814C7.20659 6.09814 6.66016 6.67474 6.66016 7.38601C6.66016 8.09728 7.20659 8.67387 7.88064 8.67387Z" fill="#C8C9CC"/>
<path d="M1.13181 0.263087C1.29195 0.0946086 1.50887 0 1.73501 0C1.96115 0 2.17806 0.0946086 2.33821 0.263087L8.39835 6.67266C8.55833 6.84212 8.64796 7.07171 8.64752 7.31091C8.64708 7.5501 8.55661 7.77932 8.39601 7.94813C8.23541 8.11694 8.01783 8.21151 7.79115 8.21105C7.56447 8.21059 7.34724 8.11512 7.18726 7.94565L1.13181 1.5559C1.05048 1.47153 0.985893 1.37093 0.941801 1.25995C0.89771 1.14897 0.875 1.02983 0.875 0.909493C0.875 0.789154 0.89771 0.670019 0.941801 0.559037C0.985893 0.448056 1.05048 0.347451 1.13181 0.263087Z" fill="#3A556A"/>
</svg>
