<svg width="38" height="38" viewBox="0 0 38 38" fill="none" xmlns="http://www.w3.org/2000/svg">
<path d="M35.284 5.42859H25.7841V4.07142C25.7841 1.82284 23.9613 0 21.7127 0H16.2841C14.0355 0 12.2127 1.82284 12.2127 4.07142V5.42859H2.71264C1.96308 5.42859 1.35547 6.0362 1.35547 6.78576C1.35547 7.53531 1.96316 8.14285 2.71264 8.14285H4.18781L6.78406 36.7663C6.84808 37.4672 7.4374 38.0028 8.14123 38H29.8555C30.5594 38.0029 31.1486 37.4673 31.2127 36.7663L33.8089 8.14285H35.2841C36.0337 8.14285 36.6413 7.53523 36.6413 6.78568C36.6413 6.03612 36.0336 5.42859 35.284 5.42859ZM14.9269 4.07142C14.9269 3.32187 15.5345 2.71426 16.2841 2.71426H21.7127C22.4622 2.71426 23.0698 3.32187 23.0698 4.07142V5.42859H14.927V4.07142H14.9269ZM28.6164 35.2856H9.38031L6.9198 8.14285H13.5698H31.0837L28.6164 35.2856Z" fill="black"/>
<path d="M14.9308 31.1235C14.9306 31.1217 14.9305 31.1198 14.9304 31.118L13.5732 12.118C13.52 11.3685 12.8692 10.804 12.1197 10.8572C11.3702 10.9104 10.8057 11.5612 10.8589 12.3107L12.2161 31.3107C12.2668 32.0223 12.8598 32.5733 13.5733 32.5714H13.671C14.4187 32.5195 14.9828 31.8713 14.9308 31.1235Z" fill="black"/>
<path d="M18.9978 10.8572C18.2482 10.8572 17.6406 11.4648 17.6406 12.2143V31.2143C17.6406 31.9639 18.2482 32.5715 18.9978 32.5715C19.7474 32.5715 20.355 31.9639 20.355 31.2143V12.2143C20.355 11.4648 19.7474 10.8572 18.9978 10.8572Z" fill="black"/>
<path d="M25.8807 10.8572C25.1312 10.804 24.4805 11.3685 24.4273 12.118L23.0701 31.118C23.0152 31.8655 23.5766 32.516 24.3241 32.571C24.3264 32.5711 24.3286 32.5713 24.3309 32.5714H24.4273C25.1407 32.5733 25.7338 32.0223 25.7844 31.3107L27.1416 12.3107C27.1948 11.5612 26.6303 10.9105 25.8807 10.8572Z" fill="black"/>
</svg>
