<svg width="32" height="32" viewBox="0 0 32 32" fill="none" xmlns="http://www.w3.org/2000/svg">
<path d="M26.375 27.25H8.5625C7.01163 27.25 5.75 25.9884 5.75 24.4375C5.75 22.8866 7.01163 21.625 8.5625 21.625H11.375L9.68494 23.5H8.5625C8.04525 23.5 7.625 23.9202 7.625 24.4375C7.625 24.9548 8.04525 25.375 8.5625 25.375H26.375V27.25Z" fill="#B8BCC1"/>
<path d="M17.9375 25.375H26.375V27.25H17.9375V25.375Z" fill="#78818F"/>
<path d="M6.77369 10.3754L5.93587 6.625H0V4.75H7.43913L9.06331 12.0229L6.77369 10.3754Z" fill="#B8BCC1"/>
<path d="M21.9631 10.6964L21.683 10.375H6.77539L9.68495 23.5H26.1635L29.4676 10.7137C28.8259 10.8741 25.029 14.2187 21.9631 10.6964ZM26.6799 14.0069L26.1649 16H21.7684L22.0068 13.1399C23.3817 13.9778 25.0715 14.3111 26.6799 14.0069ZM15.9872 16L15.6746 12.25H20.2003L19.8878 16H15.9872ZM19.7316 17.875L19.419 21.625H16.4559L16.1433 17.875H19.7316ZM13.7941 12.25L14.1066 16H9.94314L9.11183 12.25H13.7941ZM10.3588 17.875H14.2628L14.5754 21.625H11.1901L10.3588 17.875ZM21.2997 21.625L21.6123 17.875H25.6805L24.7115 21.625H21.2997Z" fill="#B8BCC1"/>
<path d="M21.9631 10.6964L21.6829 10.375H17.9375V12.25H20.2003L19.8878 16H17.9375V17.875H19.7316L19.419 21.625H17.9375V23.5H26.1635L29.4676 10.7137C28.8259 10.8741 25.0291 14.2186 21.9631 10.6964ZM24.7115 21.625H21.2997L21.6122 17.875H25.6805L24.7115 21.625ZM26.6799 14.0069L26.1649 16H21.7684L22.0068 13.1399C23.3817 13.9778 25.0715 14.3111 26.6799 14.0069Z" fill="#78818F"/>
<path d="M12.3125 31C10.7616 31 9.5 29.7384 9.5 28.1875C9.5 26.6366 10.7616 25.375 12.3125 25.375C13.8634 25.375 15.125 26.6366 15.125 28.1875C15.125 29.7384 13.8634 31 12.3125 31Z" fill="#665151"/>
<path d="M21.6875 31C20.1366 31 18.875 29.7384 18.875 28.1875C18.875 26.6366 20.1366 25.375 21.6875 25.375C23.2384 25.375 24.5 26.6366 24.5 28.1875C24.5 29.7384 23.2384 31 21.6875 31Z" fill="#4D3535"/>
<path d="M25.4375 14.125C21.7188 14.125 18.875 11.0868 18.875 7.5625C18.875 3.94431 21.8193 1 25.4375 1C29.0557 1 32 3.94431 32 7.5625C32 11.2687 28.9895 14.125 25.4375 14.125Z" fill="#A0E65C"/>
<path d="M12.3125 29.125C12.8303 29.125 13.25 28.7053 13.25 28.1875C13.25 27.6697 12.8303 27.25 12.3125 27.25C11.7947 27.25 11.375 27.6697 11.375 28.1875C11.375 28.7053 11.7947 29.125 12.3125 29.125Z" fill="#FFF7E6"/>
<path d="M21.6875 29.125C22.2053 29.125 22.625 28.7053 22.625 28.1875C22.625 27.6697 22.2053 27.25 21.6875 27.25C21.1697 27.25 20.75 27.6697 20.75 28.1875C20.75 28.7053 21.1697 29.125 21.6875 29.125Z" fill="#FFEACC"/>
<path d="M32 7.5625C32 3.94431 29.0557 1 25.4375 1V14.125C28.9895 14.125 32 11.2687 32 7.5625Z" fill="#79CC52"/>
<path d="M28.25 6.625H26.375V4.75H24.5V6.625H22.625V8.5H24.5V10.375H26.375V8.5H28.25V6.625Z" fill="#FFF7E6"/>
<path d="M25.4375 4.75V10.375H26.375V8.5H28.25V6.625H26.375V4.75H25.4375Z" fill="#FFEACC"/>
</svg>
