<svg width="30" height="25" viewBox="0 0 30 25" fill="none" xmlns="http://www.w3.org/2000/svg">
<path d="M23.2093 6.42857L28.3521 15.8571H18.0664L23.2093 6.42857ZM6.06641 6.42857L11.2093 15.8571H0.923549L6.06641 6.42857ZM17.0619 3.85714H23.6378C23.8789 3.85714 24.0664 3.66964 24.0664 3.42857V2.57143C24.0664 2.33036 23.8789 2.14286 23.6378 2.14286H17.0619C16.7003 1.13839 15.7628 0.42857 14.6378 0.42857C13.5128 0.42857 12.5753 1.13839 12.2137 2.14286H5.63784C5.39676 2.14286 5.20926 2.33036 5.20926 2.57143V3.42857C5.20926 3.66964 5.39676 3.85714 5.63784 3.85714H12.2137C12.4682 4.58036 13.0575 5.16964 13.7807 5.42411V22.7143H5.63784C5.39676 22.7143 5.20926 22.9018 5.20926 23.1429V24C5.20926 24.2411 5.39676 24.4286 5.63784 24.4286H23.6378C23.8789 24.4286 24.0664 24.2411 24.0664 24V23.1429C24.0664 22.9018 23.8789 22.7143 23.6378 22.7143H15.495V5.42411C16.2182 5.16964 16.8075 4.58036 17.0619 3.85714ZM14.6378 4.07143C14.0486 4.07143 13.5664 3.58928 13.5664 3C13.5664 2.41071 14.0486 1.92857 14.6378 1.92857C15.2271 1.92857 15.7093 2.41071 15.7093 3C15.7093 3.58928 15.2271 4.07143 14.6378 4.07143ZM29.2093 15.8571C29.2093 15.3348 24.5352 7.05803 23.9593 6.01339C23.8119 5.74553 23.5173 5.57143 23.2093 5.57143C22.9012 5.57143 22.6066 5.74553 22.4593 6.01339C21.8834 7.05803 17.2093 15.3348 17.2093 15.8571C17.2093 18.6161 21.0262 19.7143 23.2093 19.7143C25.3923 19.7143 29.2093 18.6161 29.2093 15.8571ZM12.0664 15.8571C12.0664 15.3348 7.3923 7.05803 6.81641 6.01339C6.66909 5.74553 6.37444 5.57143 6.06641 5.57143C5.75837 5.57143 5.46373 5.74553 5.31641 6.01339C4.74051 7.05803 0.0664062 15.3348 0.0664062 15.8571C0.0664062 18.6161 3.88337 19.7143 6.06641 19.7143C8.24944 19.7143 12.0664 18.6161 12.0664 15.8571Z" fill="#78818F"/>
</svg>
