<svg width="18" height="18" viewBox="0 0 18 18" fill="none" xmlns="http://www.w3.org/2000/svg">
<path d="M11.4286 14.2143C11.4286 14.4152 11.2723 14.5714 11.0714 14.5714H6.07143C5.87054 14.5714 5.71429 14.4152 5.71429 14.2143V12.4286C5.71429 12.2277 5.87054 12.0714 6.07143 12.0714H7.14286V8.5H6.07143C5.87054 8.5 5.71429 8.34375 5.71429 8.14286V6.35714C5.71429 6.15625 5.87054 6 6.07143 6H9.64286C9.84375 6 10 6.15625 10 6.35714V12.0714H11.0714C11.2723 12.0714 11.4286 12.2277 11.4286 12.4286V14.2143ZM10 4.21429C10 4.41518 9.84375 4.57143 9.64286 4.57143H7.5C7.29911 4.57143 7.14286 4.41518 7.14286 4.21429V2.42857C7.14286 2.22768 7.29911 2.07143 7.5 2.07143H9.64286C9.84375 2.07143 10 2.22768 10 2.42857V4.21429ZM17.1429 8.85714C17.1429 4.125 13.3036 0.285713 8.57143 0.285713C3.83929 0.285713 0 4.125 0 8.85714C0 13.5893 3.83929 17.4286 8.57143 17.4286C13.3036 17.4286 17.1429 13.5893 17.1429 8.85714Z" fill="#FF7A00"/>
</svg>
