<svg width="31" height="31" viewBox="0 0 31 31" fill="none" xmlns="http://www.w3.org/2000/svg">
<g clip-path="url(#clip0)">
<path d="M1.9381 2.17645C-0.49798 4.61481 0.000603236 7.20502 0.000603236 15.074C0.000603236 21.6086 -1.18256 28.1595 5.00969 29.7017C6.94331 30.1809 24.076 30.1809 26.007 29.6992C28.5852 29.0582 30.6829 27.043 30.9696 23.5292C31.0096 23.0388 31.0096 7.11789 30.9683 6.61752C30.6635 2.87472 28.2726 0.717664 25.1222 0.280776C24.4002 0.179955 24.2555 0.150083 20.551 0.143859C7.41089 0.150083 4.53048 -0.413765 1.9381 2.17645Z" fill="url(#paint0_linear)"/>
<path d="M15.4975 4.05279C10.8075 4.05279 6.35379 3.65075 4.65267 7.85783C3.95 9.59542 4.05204 11.8521 4.05204 15.0833C4.05204 17.9187 3.95775 20.5836 4.65267 22.3075C6.34992 26.5171 10.8398 26.1138 15.4949 26.1138C19.986 26.1138 24.6167 26.5644 26.3385 22.3075C27.0424 20.5525 26.9391 18.3295 26.9391 15.0833C26.9391 10.7742 27.1858 7.99225 25.0171 5.90365C22.8213 3.78767 19.8517 4.05279 15.4923 4.05279H15.4975ZM14.4719 6.04057C24.255 6.02563 25.5002 4.9776 24.813 19.5368C24.5689 24.6861 20.5001 24.121 15.4988 24.121C6.37963 24.121 6.11742 23.8696 6.11742 15.0783C6.11742 6.18496 6.84075 6.04555 14.4719 6.03808V6.04057ZM21.6071 7.87152C20.8489 7.87152 20.234 8.46399 20.234 9.19463C20.234 9.92527 20.8489 10.5177 21.6071 10.5177C22.3653 10.5177 22.9801 9.92527 22.9801 9.19463C22.9801 8.46399 22.3653 7.87152 21.6071 7.87152ZM15.4975 9.41868C12.2515 9.41868 9.62042 11.9554 9.62042 15.0833C9.62042 18.2112 12.2515 20.7467 15.4975 20.7467C18.7435 20.7467 21.3733 18.2112 21.3733 15.0833C21.3733 11.9554 18.7435 9.41868 15.4975 9.41868ZM15.4975 11.4065C20.5415 11.4065 20.5479 18.7601 15.4975 18.7601C10.4548 18.7601 10.4471 11.4065 15.4975 11.4065Z" fill="white"/>
</g>
<defs>
<linearGradient id="paint0_linear" x1="1.99755" y1="28.1086" x2="29.8902" y2="3.05682" gradientUnits="userSpaceOnUse">
<stop stop-color="#FFDD55"/>
<stop offset="0.5" stop-color="#FF543E"/>
<stop offset="1" stop-color="#C837AB"/>
</linearGradient>
<clipPath id="clip0">
<rect width="31" height="29.8727" fill="white" transform="translate(0 0.145752)"/>
</clipPath>
</defs>
</svg>
