<svg width="23" height="21" viewBox="0 0 23 21" fill="none" xmlns="http://www.w3.org/2000/svg">
<path d="M5.49833 19V15.5714H17.4983V19H5.49833ZM5.49833 10.4286V1.85714H14.0698V4C14.0698 4.70982 14.6456 5.28571 15.3555 5.28571H17.4983V10.4286H5.49833ZM20.9269 11.2857C20.9269 11.7545 20.5385 12.1429 20.0698 12.1429C19.601 12.1429 19.2126 11.7545 19.2126 11.2857C19.2126 10.817 19.601 10.4286 20.0698 10.4286C20.5385 10.4286 20.9269 10.817 20.9269 11.2857ZM22.6412 11.2857C22.6412 9.87946 21.476 8.71428 20.0698 8.71428H19.2126V5.28571C19.2126 4.57589 18.8108 3.59821 18.3019 3.08928L16.2662 1.05357C15.7573 0.544642 14.7796 0.142856 14.0698 0.142856H5.06975C4.35993 0.142856 3.78404 0.718749 3.78404 1.42857V8.71428H2.9269C1.52065 8.71428 0.355469 9.87946 0.355469 11.2857V16.8571C0.355469 17.0848 0.556362 17.2857 0.78404 17.2857H3.78404V19.4286C3.78404 20.1384 4.35993 20.7143 5.06975 20.7143H17.9269C18.6367 20.7143 19.2126 20.1384 19.2126 19.4286V17.2857H22.2126C22.4403 17.2857 22.6412 17.0848 22.6412 16.8571V11.2857Z" fill="#78818F"/>
</svg>
