<svg width="20" height="17" viewBox="0 0 20 17" fill="none" xmlns="http://www.w3.org/2000/svg">
<path d="M15.6395 4.28571L19.0681 10.5714H12.2109L15.6395 4.28571ZM4.21094 4.28571L7.63951 10.5714H0.782366L4.21094 4.28571ZM11.5413 2.57143H15.9252C16.0859 2.57143 16.2109 2.44643 16.2109 2.28571V1.71428C16.2109 1.55357 16.0859 1.42857 15.9252 1.42857H11.5413C11.3002 0.758928 10.6752 0.285713 9.92522 0.285713C9.17522 0.285713 8.55022 0.758928 8.30915 1.42857H3.92522C3.76451 1.42857 3.63951 1.55357 3.63951 1.71428V2.28571C3.63951 2.44643 3.76451 2.57143 3.92522 2.57143H8.30915C8.4788 3.05357 8.87165 3.44643 9.3538 3.61607V15.1429H3.92522C3.76451 15.1429 3.63951 15.2679 3.63951 15.4286V16C3.63951 16.1607 3.76451 16.2857 3.92522 16.2857H15.9252C16.0859 16.2857 16.2109 16.1607 16.2109 16V15.4286C16.2109 15.2679 16.0859 15.1429 15.9252 15.1429H10.4967V3.61607C10.9788 3.44643 11.3717 3.05357 11.5413 2.57143ZM9.92522 2.71428C9.53237 2.71428 9.21094 2.39286 9.21094 2C9.21094 1.60714 9.53237 1.28571 9.92522 1.28571C10.3181 1.28571 10.6395 1.60714 10.6395 2C10.6395 2.39286 10.3181 2.71428 9.92522 2.71428ZM19.6395 10.5714C19.6395 10.2232 16.5234 4.70536 16.1395 4.00893C16.0413 3.83036 15.8449 3.71428 15.6395 3.71428C15.4342 3.71428 15.2377 3.83036 15.1395 4.00893C14.7556 4.70536 11.6395 10.2232 11.6395 10.5714C11.6395 12.4107 14.1842 13.1429 15.6395 13.1429C17.0949 13.1429 19.6395 12.4107 19.6395 10.5714ZM8.21094 10.5714C8.21094 10.2232 5.09487 4.70536 4.71094 4.00893C4.61272 3.83036 4.4163 3.71428 4.21094 3.71428C4.00558 3.71428 3.80915 3.83036 3.71094 4.00893C3.32701 4.70536 0.210938 10.2232 0.210938 10.5714C0.210938 12.4107 2.75558 13.1429 4.21094 13.1429C5.6663 13.1429 8.21094 12.4107 8.21094 10.5714Z" fill="white"/>
</svg>
