<svg width="14" height="15" viewBox="0 0 14 15" fill="none" xmlns="http://www.w3.org/2000/svg">
<path d="M9.28348 11.5714C9.28348 11.7321 9.15848 11.8571 8.99777 11.8571H4.99777C4.83705 11.8571 4.71205 11.7321 4.71205 11.5714V10.1429C4.71205 9.98214 4.83705 9.85714 4.99777 9.85714H5.85491V7H4.99777C4.83705 7 4.71205 6.875 4.71205 6.71429V5.28571C4.71205 5.125 4.83705 5 4.99777 5H7.85491C8.01563 5 8.14062 5.125 8.14062 5.28571V9.85714H8.99777C9.15848 9.85714 9.28348 9.98214 9.28348 10.1429V11.5714ZM8.14062 3.57143C8.14062 3.73214 8.01563 3.85714 7.85491 3.85714H6.14063C5.97991 3.85714 5.85491 3.73214 5.85491 3.57143V2.14286C5.85491 1.98214 5.97991 1.85714 6.14063 1.85714H7.85491C8.01563 1.85714 8.14062 1.98214 8.14062 2.14286V3.57143ZM13.8549 7.28571C13.8549 3.5 10.7835 0.428571 6.99777 0.428571C3.21205 0.428571 0.140625 3.5 0.140625 7.28571C0.140625 11.0714 3.21205 14.1429 6.99777 14.1429C10.7835 14.1429 13.8549 11.0714 13.8549 7.28571Z" fill="white"/>
</svg>
