<svg width="59" height="59" viewBox="0 0 59 59" fill="none" xmlns="http://www.w3.org/2000/svg">
<path d="M54.4962 25.5627H54.4971C55.4836 25.5665 56.4283 25.9609 57.1247 26.6595C57.821 27.3581 58.2123 28.3041 58.2129 29.2906V29.2907V52.5796V52.5803C58.2115 53.0662 58.114 53.547 57.926 53.995C57.738 54.443 57.4633 54.8495 57.1177 55.1909C56.772 55.5324 56.3622 55.8021 55.9119 55.9845C55.462 56.1669 54.9805 56.2585 54.4951 56.2541H38.7074C38.2229 56.2581 37.7425 56.1659 37.2938 55.9831C36.8449 55.8001 36.4367 55.5299 36.0929 55.1881C35.7491 54.8463 35.4766 54.4397 35.291 53.9918C35.1054 53.5439 35.0105 53.0637 35.0117 52.5789M54.4962 25.5627L35.2617 52.5796M54.4962 25.5627H51.8099C51.6139 24.9942 51.2551 24.494 50.7761 24.1258C50.2462 23.7185 49.598 23.4948 48.9297 23.4885H48.9274H46.1133V16.2483C46.1172 16.065 46.0726 15.8838 45.984 15.7232C45.8948 15.5616 45.7642 15.4267 45.6057 15.3322L45.6027 15.3305L23.988 2.84607C23.9879 2.84601 23.9878 2.84595 23.9877 2.84588C23.8278 2.75302 23.6462 2.7041 23.4613 2.7041C23.2764 2.7041 23.0948 2.753 22.9349 2.84584L54.4962 25.5627ZM35.0117 52.5789L35.2617 52.5796M35.0117 52.5789V52.5796H35.2617M35.0117 52.5789V48.2677M35.2617 52.5796V48.1235L35.0117 48.2677M35.0117 48.2677L24.0077 54.6149L24.0049 54.6165C23.8409 54.7083 23.6559 54.7565 23.4679 54.7564L35.0117 47.9791V48.2677ZM22.9396 54.6148C23.1002 54.7076 23.2824 54.7564 23.4678 54.7564L1.43813 15.5469C1.31579 15.6179 1.2143 15.7198 1.1439 15.8424C1.07349 15.965 1.03666 16.1041 1.03711 16.2455H0.787113V16.2459V41.215C0.787118 41.4005 0.835944 41.5827 0.928684 41.7434C1.02142 41.904 1.15481 42.0374 1.31544 42.1301L22.9396 54.6148ZM24.5645 29.3382L44 18.0747V23.5032C43.4294 23.5594 42.8838 23.7742 42.4263 24.1258C41.9473 24.494 41.5884 24.9942 41.3925 25.5627L38.7062 25.5627L38.705 25.5627C37.7207 25.5675 36.7786 25.9631 36.086 26.6624C35.3936 27.3616 35.0072 28.3071 35.0117 29.2911C35.0117 29.2914 35.0117 29.2917 35.0117 29.2919L35.0117 45.8279L24.5645 51.8692V29.3382ZM54.5008 54.1409V54.1408H54.4962L38.7062 54.1408L38.702 54.1409C38.4954 54.1443 38.2902 54.1065 38.0984 54.0296C37.9066 53.9526 37.7321 53.8381 37.5852 53.6928C37.4383 53.5475 37.3219 53.3743 37.2429 53.1834C37.1639 52.9925 37.1238 52.7877 37.125 52.5811V52.5796L37.125 29.2907L37.125 29.2882C37.1229 29.0783 37.1622 28.8701 37.2407 28.6754C37.3191 28.4808 37.4352 28.3035 37.5823 28.1538C37.7293 28.004 37.9045 27.8847 38.0977 27.8027C38.2906 27.7209 38.4978 27.6778 38.7073 27.676H41.4286C41.6329 28.2245 41.9933 28.703 42.4673 29.0511C42.9913 29.4361 43.626 29.6409 44.2762 29.635H48.9262C49.5764 29.6409 50.211 29.4361 50.7351 29.0512C51.209 28.703 51.5694 28.2245 51.7736 27.676H54.4955C54.9217 27.6789 55.3295 27.8502 55.63 28.1525C55.9307 28.455 56.0995 28.8642 56.0996 29.2908L56.0996 52.5784C56.0996 52.5787 56.0996 52.579 56.0996 52.5792C56.0986 52.7869 56.0563 52.9924 55.9753 53.1837C55.8941 53.3752 55.7757 53.5487 55.627 53.694C55.4782 53.8394 55.3021 53.9538 55.1087 54.0305C54.9154 54.1072 54.7088 54.1447 54.5008 54.1409ZM48.9561 25.6018C49.2003 25.6018 49.4345 25.6988 49.6072 25.8715C49.7799 26.0442 49.877 26.2784 49.877 26.5227V26.6008C49.877 26.845 49.7799 27.0793 49.6072 27.252C49.4345 27.4247 49.2003 27.5217 48.9561 27.5217H44.2686C44.0243 27.5217 43.7901 27.4247 43.6174 27.252C43.4447 27.0793 43.3477 26.845 43.3477 26.6008V26.5227C43.3477 26.2784 43.4447 26.0442 43.6174 25.8715C43.7901 25.6988 44.0243 25.6018 44.2686 25.6018H48.9561ZM3.95853 16.2447L23.4679 4.98088L31.9532 9.87982L12.4437 21.1436L3.95853 16.2447ZM22.4512 29.3386V51.87L2.90039 40.6048V18.0734L22.4512 29.3386ZM23.4679 27.5084L14.557 22.3636L34.0665 11.0999L42.9779 16.2447L23.4679 27.5084Z" fill="#FF7A00" stroke="#FF7A00" stroke-width="0.5"/>
<path d="M39.6348 37.4512H40.4791C40.693 37.4512 40.8982 37.3662 41.0495 37.2149C41.2007 37.0636 41.2857 36.8585 41.2857 36.6445C41.2857 36.4306 41.2007 36.2254 41.0495 36.0742C40.8982 35.9229 40.693 35.8379 40.4791 35.8379H40.4473V33.6484H42.6721C42.7228 33.8106 42.8252 33.9517 42.9637 34.0501C43.1022 34.1485 43.2692 34.1988 43.439 34.1931C43.6532 34.1937 43.8589 34.1093 44.0109 33.9584C44.163 33.8076 44.249 33.6026 44.25 33.3884V32.8456C44.2482 32.6304 44.1616 32.4245 44.0089 32.2728C43.8562 32.1211 43.6499 32.0357 43.4346 32.0352H39.6348C39.5289 32.0357 39.4243 32.0571 39.3267 32.0981C39.2292 32.1392 39.1407 32.1991 39.0663 32.2743C38.992 32.3496 38.9331 32.4388 38.8933 32.5368C38.8534 32.6349 38.8333 32.7398 38.834 32.8456V36.6455C38.8334 36.751 38.8536 36.8557 38.8936 36.9534C38.9335 37.0511 38.9924 37.14 39.0668 37.2149C39.1412 37.2897 39.2297 37.3492 39.3272 37.3897C39.4247 37.4303 39.5292 37.4512 39.6348 37.4512Z" fill="#FF7A00"/>
<path d="M39.6406 44.8262H43.4434C43.6573 44.8262 43.8625 44.7412 44.0137 44.5899C44.165 44.4386 44.25 44.2335 44.25 44.0195V40.2168C44.25 40.0029 44.165 39.7977 44.0137 39.6464C43.8625 39.4951 43.6573 39.4102 43.4434 39.4102H39.6406C39.4267 39.4102 39.2215 39.4951 39.0702 39.6464C38.919 39.7977 38.834 40.0029 38.834 40.2168V44.0195C38.834 44.2335 38.919 44.4386 39.0702 44.5899C39.2215 44.7412 39.4267 44.8262 39.6406 44.8262ZM40.4473 41.0234H42.6367V43.2129H40.4473V41.0234Z" fill="#FF7A00"/>
<path d="M40.4792 50.5879H40.4473V48.3984H42.6286C42.6328 48.6106 42.7199 48.8126 42.8713 48.9612C43.0227 49.1099 43.2264 49.1932 43.4385 49.1934C43.6507 49.1936 43.8545 49.1107 44.0062 48.9624C44.1579 48.814 44.2455 48.6122 44.2501 48.4001V47.6228C44.2492 47.4047 44.1638 47.1955 44.0116 47.0392C43.8595 46.8829 43.6527 46.7918 43.4347 46.7852H39.6348C39.4183 46.7924 39.2133 46.8842 39.0637 47.0407C38.914 47.1973 38.8316 47.4062 38.834 47.6228V51.4227C38.8339 51.5268 38.8547 51.6299 38.8952 51.7259C38.9357 51.8219 38.9951 51.9087 39.0697 51.9813C39.1444 52.0539 39.2329 52.1108 39.33 52.1486C39.427 52.1863 39.5307 52.2042 39.6348 52.2012H40.4792C40.6932 52.2012 40.8984 52.1162 41.0496 51.9649C41.2009 51.8136 41.2859 51.6085 41.2859 51.3945C41.2859 51.1806 41.2009 50.9754 41.0496 50.8242C40.8984 50.6729 40.6932 50.5879 40.4792 50.5879Z" fill="#FF7A00"/>
<path d="M45.292 33.0252L42.9297 35.3875L42.2111 34.6688C42.1362 34.5939 42.0472 34.5345 41.9494 34.4939C41.8515 34.4534 41.7466 34.4325 41.6407 34.4325C41.5347 34.4325 41.4298 34.4534 41.332 34.4939C41.2341 34.5345 41.1452 34.5939 41.0703 34.6688C40.9953 34.7437 40.9359 34.8326 40.8954 34.9305C40.8548 35.0284 40.834 35.1333 40.834 35.2392C40.834 35.3451 40.8548 35.45 40.8954 35.5479C40.9359 35.6458 40.9953 35.7347 41.0703 35.8096L42.3594 37.0986C42.4343 37.1735 42.5232 37.2329 42.6211 37.2735C42.719 37.314 42.8239 37.3349 42.9298 37.3349C43.0357 37.3349 43.1406 37.314 43.2385 37.2735C43.3364 37.2329 43.4253 37.1735 43.5002 37.0986L46.4332 34.1657C46.5844 34.0144 46.6694 33.8092 46.6694 33.5953C46.6694 33.3813 46.5844 33.1761 46.4332 33.0248C46.2819 32.8736 46.0767 32.7886 45.8627 32.7886C45.6488 32.7886 45.4436 32.8736 45.2923 33.0248L45.292 33.0252Z" fill="#FF7A00"/>
<path d="M45.292 47.9192L42.9297 50.2815L42.2111 49.5628C42.1362 49.4879 42.0472 49.4285 41.9494 49.388C41.8515 49.3474 41.7466 49.3266 41.6407 49.3266C41.5347 49.3266 41.4298 49.3474 41.332 49.388C41.2341 49.4285 41.1452 49.4879 41.0703 49.5628C40.9953 49.6377 40.9359 49.7267 40.8954 49.8245C40.8548 49.9224 40.834 50.0273 40.834 50.1332C40.834 50.2392 40.8548 50.3441 40.8954 50.4419C40.9359 50.5398 40.9953 50.6287 41.0703 50.7036L42.3594 51.9927C42.4343 52.0676 42.5232 52.127 42.6211 52.1675C42.719 52.2081 42.8239 52.2289 42.9298 52.2289C43.0357 52.2289 43.1406 52.2081 43.2385 52.1675C43.3364 52.127 43.4253 52.0676 43.5002 51.9927L46.4332 49.0597C46.5844 48.9084 46.6694 48.7032 46.6694 48.4893C46.6694 48.2754 46.5844 48.0702 46.4332 47.9189C46.2819 47.7676 46.0767 47.6826 45.8627 47.6826C45.6488 47.6826 45.4436 47.7676 45.2923 47.9189L45.292 47.9192Z" fill="#FF7A00"/>
<path d="M53.5674 33.7441H48.501C48.2207 33.7441 47.952 33.8555 47.7538 34.0536C47.5557 34.2518 47.4443 34.5205 47.4443 34.8008C47.4443 35.081 47.5557 35.3498 47.7538 35.5479C47.952 35.7461 48.2207 35.8574 48.501 35.8574H53.5674C53.8476 35.8574 54.1164 35.7461 54.3145 35.5479C54.5127 35.3498 54.624 35.081 54.624 34.8008C54.624 34.5205 54.5127 34.2518 54.3145 34.0536C54.1164 33.8555 53.8476 33.7441 53.5674 33.7441Z" fill="#FF7A00" stroke="#FF7A00" stroke-width="0.5"/>
<path d="M53.5674 41.1191H48.501C48.2207 41.1191 47.952 41.2305 47.7538 41.4286C47.5557 41.6268 47.4443 41.8955 47.4443 42.1758C47.4443 42.456 47.5557 42.7248 47.7538 42.9229C47.952 43.1211 48.2207 43.2324 48.501 43.2324H53.5674C53.8476 43.2324 54.1164 43.1211 54.3145 42.9229C54.5127 42.7248 54.624 42.456 54.624 42.1758C54.624 41.8955 54.5127 41.6268 54.3145 41.4286C54.1164 41.2305 53.8476 41.1191 53.5674 41.1191Z" fill="#FF7A00" stroke="#FF7A00" stroke-width="0.5"/>
<path d="M53.5674 48.4941H48.501C48.2207 48.4941 47.952 48.6055 47.7538 48.8036C47.5557 49.0018 47.4443 49.2705 47.4443 49.5508C47.4443 49.831 47.5557 50.0998 47.7538 50.2979C47.952 50.4961 48.2207 50.6074 48.501 50.6074H53.5674C53.8476 50.6074 54.1164 50.4961 54.3145 50.2979C54.5127 50.0998 54.624 49.831 54.624 49.5508C54.624 49.2705 54.5127 49.0018 54.3145 48.8036C54.1164 48.6055 53.8476 48.4941 53.5674 48.4941Z" fill="#FF7A00" stroke="#FF7A00" stroke-width="0.5"/>
</svg>
