<svg width="55" height="55" viewBox="0 0 55 55" fill="none" xmlns="http://www.w3.org/2000/svg">
<g clip-path="url(#clip0)">
<path d="M45.2243 48.5543H42.9975L41.3862 45.3317H42.0017C42.8916 45.3317 43.613 44.6102 43.613 43.7204C43.613 42.8305 42.8916 42.109 42.0017 42.109H39.7749L38.1635 38.8864H40.3904C43.0558 38.8864 45.2243 36.7179 45.2243 34.0525V4.83395C45.2243 2.16851 43.0558 0 40.3904 0H14.6093C11.9439 0 9.77538 2.16851 9.77538 4.83395V34.0525C9.77538 36.7179 11.9439 38.8864 14.6093 38.8864H16.8361L15.2247 42.109H12.998C12.1081 42.109 11.3867 42.8305 11.3867 43.7204C11.3867 44.6102 12.1081 45.3317 12.998 45.3317H13.6134L12.0021 48.5543H9.77538C8.8855 48.5543 8.16406 49.2757 8.16406 50.1656C8.16406 51.0555 8.8855 51.7769 9.77538 51.7769H10.3908L9.94543 52.6677C9.54743 53.4637 9.87012 54.4314 10.666 54.8295C11.4635 55.2283 12.4306 54.9034 12.8279 54.1089L13.9938 51.7769H41.0058L42.1717 54.1088C42.5697 54.905 43.5377 55.2274 44.3335 54.8294C45.1295 54.4314 45.4521 53.4636 45.0541 52.6676L44.6088 51.7769H45.2243C46.1142 51.7769 46.8356 51.0555 46.8356 50.1656C46.8356 49.2757 46.1142 48.5543 45.2243 48.5543ZM12.998 4.83395C12.998 3.94547 13.7208 3.22263 14.6093 3.22263H40.3904C41.2789 3.22263 42.0017 3.94547 42.0017 4.83395V6.44526H12.998V4.83395ZM12.998 9.66789H42.0017V22.7733H12.998V9.66789ZM14.6093 35.6638C13.7208 35.6638 12.998 34.9409 12.998 34.0525V25.9959H42.0017V34.0525C42.0017 34.9409 41.2789 35.6638 40.3904 35.6638H14.6093ZM36.1719 42.109H18.8277L20.4391 38.8864H34.5605L36.1719 42.109ZM15.6051 48.5543L17.2164 45.3317H37.7832L39.3945 48.5543H15.6051ZM21.0546 29.2185H17.832C16.9421 29.2185 16.2206 29.94 16.2206 30.8298C16.2206 31.7197 16.9421 32.4412 17.832 32.4412H21.0546C21.9445 32.4412 22.6659 31.7197 22.6659 30.8298C22.6659 29.94 21.9445 29.2185 21.0546 29.2185ZM37.1677 29.2185H33.9451C33.0552 29.2185 32.3338 29.94 32.3338 30.8298C32.3338 31.7197 33.0552 32.4412 33.9451 32.4412H37.1677C38.0576 32.4412 38.7791 31.7197 38.7791 30.8298C38.7791 29.94 38.0576 29.2185 37.1677 29.2185Z" fill="#FF7A00"/>
</g>
<defs>
<clipPath id="clip0">
<rect width="55" height="55" fill="white"/>
</clipPath>
</defs>
</svg>
