<svg width="25" height="25" viewBox="0 0 25 25" fill="none" xmlns="http://www.w3.org/2000/svg">
<g clip-path="url(#clip0)">
<path d="M12.4995 24.9999C19.4027 24.9999 24.9989 19.4037 24.9989 12.5005C24.9989 5.59718 19.4027 0.000976562 12.4995 0.000976562C5.5962 0.000976562 0 5.59718 0 12.5005C0 19.4037 5.5962 24.9999 12.4995 24.9999Z" fill="white"/>
<path d="M24.2837 8.33228H16.582C16.9166 11.0025 16.9185 13.9447 16.5885 16.6182H24.3001C24.7503 15.3284 24.9978 13.9433 24.9978 12.5001C24.998 11.038 24.7448 9.6359 24.2837 8.33228Z" fill="#2B479D"/>
<path d="M16.5826 8.33223H24.2841C24.283 8.32827 24.2818 8.32495 24.2802 8.32136C22.6805 3.81056 18.5654 0.49181 13.6211 0.0512695C15.5346 1.10008 16.0935 4.423 16.5826 8.33223Z" fill="#EFECEC"/>
<path d="M13.6211 24.9481C18.5742 24.5068 22.6951 21.1766 24.2886 16.6537C24.2928 16.6416 24.2963 16.6298 24.3007 16.6182H16.5889C16.1036 20.5486 15.5423 23.8949 13.6211 24.9481Z" fill="#E63026"/>
<path d="M0 12.5001C0 13.9435 0.247899 15.3284 0.697676 16.6182H17.2338C17.5642 13.9444 17.5618 11.0025 17.2277 8.33228H0.714301C0.25323 9.63595 0 11.0381 0 12.5001Z" fill="#3757A6"/>
<path d="M0.718802 8.32139C0.717641 8.32493 0.716427 8.3283 0.714844 8.33226H17.2283C16.7388 4.42298 15.5364 1.10011 13.6231 0.0513005C13.2531 0.0185252 12.8789 6.01559e-10 12.5003 6.01559e-10C7.06264 -5.27777e-05 2.43848 3.47281 0.718802 8.32139Z" fill="#EFEFEF"/>
<path d="M17.2353 16.6182H0.699219C0.703388 16.6298 0.707294 16.6417 0.711252 16.6537C2.42406 21.5147 7.05488 24.9998 12.5013 24.9998C12.8799 24.9998 13.2541 24.9812 13.6241 24.9481C15.5455 23.895 16.75 20.5486 17.2353 16.6182Z" fill="#E73B36"/>
</g>
<defs>
<clipPath id="clip0">
<rect width="25" height="25" fill="white"/>
</clipPath>
</defs>
</svg>
