<svg width="54" height="38" viewBox="0 0 54 38" fill="none" xmlns="http://www.w3.org/2000/svg">
<path d="M52.167 16.9445L48.4899 15.353L45.3673 9.27679C44.5234 7.61305 42.8114 6.57623 40.9427 6.58828H35.5657V5.06922C35.5657 2.32043 33.3715 0.0780029 30.6228 0.0780029H4.9192C2.17041 0.0780029 0.000320787 2.33249 0.000320787 5.06922V28.3374C-0.0237914 30.0132 1.31443 31.3876 2.99023 31.4117C3.00228 31.4117 3.01434 31.4117 3.03845 31.4117H3.67742C3.67742 31.5323 3.66537 31.5805 3.66537 31.6529C3.65331 35.1009 6.43826 37.91 9.8863 37.922C13.3343 37.9341 16.1434 35.1491 16.1555 31.7011C16.1555 31.677 16.1555 31.6649 16.1555 31.6408C16.1555 31.5564 16.1555 31.5202 16.1434 31.3997H36.916C36.916 31.5202 36.916 31.5685 36.916 31.6408C36.904 35.0888 39.6889 37.8979 43.137 37.91C46.585 37.922 49.3941 35.1371 49.4061 31.689C49.4061 31.6649 49.4061 31.6529 49.4061 31.6288C49.4061 31.5444 49.4061 31.5082 49.4061 31.3876H50.9613C52.6371 31.3876 53.9995 30.0253 53.9995 28.3495C53.9995 28.3374 53.9995 28.3254 53.9995 28.3013V19.7415C54.0236 18.56 53.3002 17.4388 52.167 16.9445ZM9.92247 35.5229C7.8006 35.5229 6.08864 33.8109 6.08864 31.689C6.08864 29.5672 7.8006 27.8552 9.92247 27.8552C12.0443 27.8552 13.7563 29.5672 13.7563 31.689C13.7563 33.7988 12.0323 35.5229 9.92247 35.5229ZM33.1545 29.0246H15.5768C14.5641 26.8184 12.3457 25.4078 9.92247 25.4199C7.48714 25.4078 5.28088 26.8063 4.26817 29.0246H3.03845C2.66471 29.0246 2.41154 28.7353 2.41154 28.3616V22.1527H33.1545V29.0246ZM33.1545 5.08127V19.7415H2.41154V5.08127C2.41154 3.67071 3.50864 2.50127 4.9192 2.50127H30.6228C32.0333 2.51333 33.1666 3.67071 33.1545 5.06922V5.08127ZM35.5657 9.01156H40.9427C41.8952 8.9995 42.7873 9.51791 43.2334 10.3739L45.6446 15.0396H35.5657V9.01156ZM43.1731 35.5229C41.0513 35.5229 39.3393 33.8109 39.3393 31.689C39.3393 29.5672 41.0513 27.8552 43.1731 27.8552C45.295 27.8552 47.007 29.5672 47.007 31.689C47.007 33.7988 45.295 35.5229 43.1731 35.5229ZM51.6003 28.3616C51.6003 28.7353 51.3471 29.0246 50.9734 29.0246H48.8274C47.3686 25.9021 43.6554 24.5518 40.5328 26.0106C39.2067 26.6255 38.1337 27.6985 37.5188 29.0246H35.5657V17.4508H47.3807L51.2145 19.1387C51.4556 19.2592 51.6124 19.5245 51.6003 19.7897V28.3616Z" fill="#78818F"/>
</svg>
