<svg width="27" height="16" viewBox="0 0 27 16" fill="none" xmlns="http://www.w3.org/2000/svg">
<path d="M26.6741 1.39286C26.6741 1.39286 26.4866 0.857142 25.3214 1.00446L21.4643 1.03125C21.1696 0.991071 20.9554 1.11161 20.9554 1.11161C20.9554 1.11161 20.7277 1.23214 20.6205 1.52678C19.9911 3.14732 19.1875 4.54018 19.1875 4.54018C17.4732 7.45982 16.7768 7.62054 16.4955 7.43304C15.8393 7.01786 16.0134 5.74554 16.0134 4.83482C16.0134 1.99553 16.442 0.816964 15.1696 0.508927C14.7545 0.415177 14.4464 0.348214 13.3616 0.334821C11.9821 0.321427 10.817 0.334821 10.1607 0.65625C9.71875 0.870535 9.38393 1.35268 9.58482 1.37946C9.83929 1.41964 10.4152 1.54018 10.7232 1.95536C10.7232 1.95536 11.058 2.50446 11.1116 3.70982C11.2589 7.04464 10.5759 7.45982 10.5759 7.45982C10.0536 7.74107 9.14286 7.27232 7.80357 4.51339C7.80357 4.51339 7.02679 3.14732 6.42411 1.64732C6.31696 1.36607 6.10268 1.21875 6.10268 1.21875C6.10268 1.21875 5.86161 1.03125 5.51339 0.977677L1.84375 1.00446C1.28125 1.00446 1.08036 1.25893 1.08036 1.25893C1.08036 1.25893 0.879464 1.47321 1.06696 1.91518C3.93304 8.65179 7.20089 12.0268 7.20089 12.0268C7.20089 12.0268 10.1875 15.1473 13.5759 14.933H15.1161C15.5848 14.8929 15.8259 14.6384 15.8259 14.6384C15.8259 14.6384 16.0402 14.3973 16.0268 13.9554C16 11.8929 16.9643 11.5848 16.9643 11.5848C17.9018 11.2902 19.1071 13.5804 20.3929 14.4643C20.3929 14.4643 21.3705 15.1339 22.1071 14.9866L25.5357 14.933C27.3438 14.9196 26.4866 13.4196 26.4866 13.4196C26.4196 13.2991 25.9911 12.375 23.9286 10.4598C21.7857 8.46429 22.067 8.78571 24.6652 5.33036C26.2455 3.22768 26.875 1.94196 26.6741 1.39286Z" fill="#FF7A00"/>
</svg>
