<svg width="24" height="27" viewBox="0 0 24 27" fill="none" xmlns="http://www.w3.org/2000/svg">
<path d="M23.5045 21.4721C23.5045 19.9989 22.885 18.5759 21.8304 17.5379L12.1038 7.81138C11.4509 7.14174 10.5469 6.7567 9.60938 6.7567C7.76786 6.7567 6.32813 8.19643 6.32813 10.0379C6.32813 10.9587 6.71317 11.8795 7.38281 12.5324L14.2467 19.3962C14.3471 19.4967 14.481 19.5636 14.615 19.5636C14.9665 19.5636 15.9208 18.6094 15.9208 18.2578C15.9208 18.1239 15.8538 17.99 15.7533 17.8895L8.88951 11.0257C8.63839 10.7578 8.47098 10.4062 8.47098 10.0379C8.47098 9.38504 8.95647 8.91629 9.59263 8.91629C9.96094 8.91629 10.3292 9.06696 10.5971 9.31808L20.3237 19.0446C20.9598 19.6808 21.3783 20.5513 21.3783 21.4721C21.3783 22.8951 20.3237 23.9498 18.9007 23.9498C17.9967 23.9498 17.1094 23.5312 16.4732 22.8951L3.48214 9.88728C2.67857 9.0837 2.20982 7.99553 2.20982 6.85714C2.20982 4.49665 4.05134 2.57143 6.42857 2.57143C7.56696 2.57143 8.65513 3.07366 9.45871 3.86049L19.6038 14.0223C19.7042 14.1228 19.8382 14.1897 19.9888 14.1897C20.3404 14.1897 21.2779 13.2522 21.2779 12.9007C21.2779 12.7667 21.2109 12.6328 21.1105 12.5324L10.9821 2.38728C9.76005 1.18192 8.11942 0.495534 6.41183 0.495534C2.86272 0.495534 0.0669643 3.32478 0.0669643 6.87388C0.0669643 8.56473 0.770089 10.2054 1.95871 11.4107L14.9665 24.4018C16.0045 25.4397 17.4275 26.0759 18.9007 26.0759C21.5123 26.0759 23.5045 24.0837 23.5045 21.4721Z" fill="#78818F"/>
</svg>
