<svg width="64" height="64" viewBox="0 0 64 64" fill="none" xmlns="http://www.w3.org/2000/svg">
<path d="M9.5657 28.0381C9.08896 28.1531 8.72383 28.5362 8.63185 29.018C8.53925 29.5 8.73746 29.9907 9.13785 30.2737C9.42809 30.4791 16.4614 35.4475 18.6936 36.6892C19.567 37.1753 20.5299 37.4232 21.504 37.4232C22.038 37.4232 22.5752 37.3492 23.1021 37.198C24.5909 36.7738 25.827 35.7935 26.5791 34.4406C27.3323 33.0875 27.513 31.5206 27.0885 30.0319C26.6643 28.543 25.684 27.3076 24.3312 26.555L24.3311 26.5549C23.9976 26.3696 23.5581 26.2542 23.0563 26.1867C22.5513 26.1188 21.966 26.0973 21.3298 26.1107C20.0575 26.1375 18.5609 26.3043 17.0568 26.5325C14.0475 26.9889 10.9816 27.6948 9.5657 28.0381ZM9.5657 28.0381C9.56575 28.038 9.5658 28.038 9.56584 28.038L9.62446 28.2811M9.5657 28.0381C9.56565 28.0381 9.5656 28.0381 9.56555 28.0381L9.62446 28.2811M9.62446 28.2811C9.24301 28.3731 8.95092 28.6795 8.87738 29.065M9.62446 28.2811C12.451 27.5958 21.8556 25.465 24.2096 26.7734L8.87738 29.065M8.87738 29.065C8.80326 29.4506 8.96176 29.8432 9.28227 30.0696C9.57992 30.2803 16.5983 35.2376 18.8152 36.4707L8.87738 29.065ZM24.3951 33.2255L24.3951 33.2256C23.9668 33.9961 23.2652 34.5522 22.4175 34.7942L22.4174 34.7942C21.5702 35.0364 20.6803 34.9333 19.9096 34.5047L19.9096 34.5047C18.5728 33.7612 15.2009 31.453 12.893 29.8499C15.1435 29.3771 17.4008 28.9875 19.243 28.7688C20.2416 28.6502 21.113 28.5825 21.793 28.5781C22.1331 28.5758 22.4204 28.5895 22.6491 28.6191C22.8833 28.6495 23.0339 28.694 23.1165 28.7399C23.8869 29.1685 24.4429 29.87 24.6849 30.7179C24.9263 31.5653 24.8237 32.455 24.3951 33.2255Z" fill="#FF7A00" stroke="#FF7A00" stroke-width="0.5"/>
<path d="M56.2874 29.0184L56.2874 29.0181C56.1954 28.5367 55.8302 28.1538 55.3537 28.0381L55.3536 28.0381C53.9378 27.6953 50.8716 26.9892 47.8622 26.5326C46.358 26.3044 44.8614 26.1374 43.5891 26.1106C42.953 26.0972 42.3678 26.1186 41.8628 26.1866C41.3611 26.2541 40.9216 26.3696 40.5883 26.555C37.7941 28.1092 36.7853 31.6464 38.3395 34.4404L38.3395 34.4404C39.0922 35.7932 40.3276 36.7732 41.8164 37.1978C42.3438 37.3482 42.8805 37.423 43.4148 37.423C44.3893 37.423 45.3518 37.175 46.2252 36.6895L46.2253 36.6895C48.4573 35.4476 55.4911 30.4788 55.781 30.2737L55.781 30.2737C56.1816 29.9903 56.3789 29.4999 56.2874 29.0184ZM45.6762 28.7684C47.5185 28.987 49.7761 29.3763 52.0264 29.8488C49.7188 31.4519 46.3469 33.7606 45.0096 34.5041C44.2389 34.9325 43.3493 35.0355 42.5017 34.7936L42.5017 34.7936C41.6543 34.5519 40.9524 33.9955 40.5241 33.225L40.524 33.225C39.6402 31.6362 40.2143 29.6234 41.8032 28.7395L41.6816 28.521L41.803 28.7396C41.8854 28.6938 42.0359 28.6493 42.2701 28.6189C42.4987 28.5893 42.7859 28.5756 43.126 28.5778C43.806 28.5823 44.6775 28.65 45.6762 28.7684Z" fill="#FF7A00" stroke="#FF7A00" stroke-width="0.5"/>
<path d="M32.5902 41.1807L32.5901 41.1806C31.9379 40.9546 31.5931 40.2418 31.8194 39.5901C32.9922 36.2122 35.8989 34.0309 38.5223 32.6891C41.1509 31.3446 43.5385 30.8205 43.7413 30.7776M32.5902 41.1807L43.7931 31.0222M32.5902 41.1807C32.7253 41.2274 32.8634 41.2498 33.0001 41.2498C33.517 41.2498 34.0017 40.9267 34.1813 40.4105L34.1814 40.4103C35.1042 37.7525 37.5744 35.9579 39.8735 34.8195C41.0175 34.253 42.1063 33.8554 42.9145 33.5983C43.3183 33.4699 43.6515 33.3767 43.8857 33.3153C44.0027 33.2845 44.095 33.2617 44.159 33.2464C44.1909 33.2388 44.2158 33.233 44.2331 33.2291L44.2533 33.2245L44.259 33.2232L44.2606 33.2229L44.2608 33.2228L44.2088 32.9783L44.2611 33.2228M32.5902 41.1807L44.2611 33.2228M43.7413 30.7776L43.7931 31.0222M43.7413 30.7776C43.7412 30.7776 43.7411 30.7776 43.741 30.7776L43.7931 31.0222M43.7413 30.7776C44.4174 30.6337 45.0789 31.0657 45.2226 31.7405M43.7931 31.0222C44.3336 30.907 44.863 31.2521 44.9781 31.7927M45.2226 31.7405L44.9781 31.7927M45.2226 31.7405C45.3665 32.4155 44.9359 33.0791 44.2611 33.2228M45.2226 31.7405C45.2226 31.7405 45.2226 31.7406 45.2226 31.7406L44.9781 31.7927M44.9781 31.7927C45.0933 32.3326 44.7487 32.8635 44.2088 32.9783C44.1253 32.9962 35.8568 34.8228 33.9452 40.3283L44.2611 33.2228" fill="#FF7A00" stroke="#FF7A00" stroke-width="0.5"/>
<path d="M34.1813 39.5901L34.1813 39.5901C34.4076 40.2419 34.063 40.9545 33.4104 41.1812C33.274 41.2291 33.1351 41.251 33 41.251C32.4831 41.251 31.9982 40.9279 31.8192 40.4107C30.8936 37.7449 28.4235 35.9504 26.1257 34.814C24.9822 34.2485 23.8941 33.8524 23.0865 33.5967C22.6829 33.4688 22.35 33.3763 22.1161 33.3152C21.9991 33.2847 21.9069 33.2621 21.8431 33.2469C21.8112 33.2394 21.7863 33.2336 21.769 33.2297L21.7489 33.2252L21.7433 33.224C21.7423 33.2237 21.7416 33.2236 21.7414 33.2235L21.7412 33.2235L34.1813 39.5901ZM34.1813 39.5901C33.0084 36.2122 30.1016 34.0309 27.4783 32.6891M34.1813 39.5901L27.4783 32.6891M27.4783 32.6891C24.8508 31.3452 22.4641 30.821 22.2596 30.7777M27.4783 32.6891L22.2596 30.7777M22.2596 30.7777C21.584 30.6334 20.9205 31.0663 20.7774 31.7414L22.2596 30.7777ZM20.7774 31.7415C20.6342 32.4165 21.0656 33.0803 21.7412 33.2235L20.7774 31.7415Z" fill="#FF7A00" stroke="#FF7A00" stroke-width="0.5"/>
<path d="M32 1.75C31.31 1.75 30.7501 2.30988 30.7501 2.9999V23C30.7501 23.69 31.31 24.2499 32 24.2499C32.69 24.2499 33.2499 23.69 33.2499 23V4.27755C47.9739 4.93296 59.7499 17.1177 59.7499 32C59.7499 47.3008 47.3008 59.7499 32 59.7499C16.6992 59.7499 4.2501 47.3011 4.2501 32C4.2501 31.31 3.69022 30.7501 3.0002 30.7501C2.30993 30.7501 1.75 31.3099 1.75 32C1.75 48.68 15.32 62.25 32 62.25C48.68 62.25 62.25 48.68 62.25 32C62.25 15.32 48.68 1.75 32 1.75Z" fill="#FF7A00" stroke="#FF7A00" stroke-width="0.5"/>
<path d="M38.3638 19.7068L38.5406 19.8835L32.8842 25.5396C32.8841 25.5397 32.8841 25.5397 32.884 25.5398C32.6403 25.7842 32.3197 25.9061 32.0002 25.9061C31.6806 25.9061 31.3603 25.7841 31.1164 25.5398M38.3638 19.7068L25.4597 18.1163C24.9718 18.6044 24.9717 19.3957 25.4599 19.8835L25.6366 19.7068L25.4599 19.8836L31.1164 25.5398M38.3638 19.7068L38.5406 19.8835C39.0285 19.3956 39.0284 18.6043 38.5403 18.1162L38.3638 19.7068ZM31.1164 25.5398L31.2933 25.3631L31.1165 25.5399L31.1164 25.5398ZM36.7729 18.1161C37.2604 17.628 38.0527 17.628 38.5403 18.1161L36.7729 18.1161ZM36.7729 18.1161L36.7727 18.1163M36.7729 18.1161L36.7727 18.1163M36.7727 18.1163L31.9999 22.889L27.2274 18.1163C27.2274 18.1162 27.2274 18.1162 27.2274 18.1162C27.2273 18.1162 27.2273 18.1161 27.2273 18.1161C26.7397 17.628 25.9474 17.628 25.4599 18.1161L36.7727 18.1163ZM27.0505 18.2929C26.6606 17.9024 26.0266 17.9024 25.6366 18.2929H27.0505Z" fill="#FF7A00" stroke="#FF7A00" stroke-width="0.5"/>
</svg>
