<svg width="65" height="65" viewBox="0 0 65 65" fill="none" xmlns="http://www.w3.org/2000/svg">
<g clip-path="url(#clip0)">
<path d="M58.4746 62.4609H51.8509L42.7255 49.3717C41.408 47.482 39.2463 46.3537 36.9426 46.3537C36.1494 46.3537 35.3796 46.6194 34.7558 47.0953V44.1752C34.7613 44.1647 34.7682 44.1553 34.7734 44.1445L36.0082 41.5717C37.2131 39.0609 39.082 37.0048 41.405 35.5885C42.5167 37.401 44.4252 38.6567 46.5273 38.9734C47.5763 39.1315 48.6621 39.0532 49.6782 38.7486C50.1811 38.5979 51.491 38.1038 52.1734 37.1726L59.4562 28.7726C60.0862 28.0461 59.6646 26.8636 58.7249 26.6921L47.7883 24.695C45.6711 24.3086 43.512 25.3877 42.1343 26.9594C40.6523 28.65 40.0189 30.9891 40.4641 33.1948C38.1547 34.5192 36.2051 36.3685 34.7559 38.6186V17.1093C41.3363 15.7626 44.2118 11.6682 45.4647 8.37913C46.8694 4.69114 46.5515 1.28715 46.5372 1.14394C46.4911 0.68069 46.1952 0.279646 45.7659 0.0992451C45.337 -0.0811553 44.8432 -0.0123467 44.4798 0.279011L36.8451 6.39955C35.6278 7.37544 34.6262 8.5495 33.8689 9.8575C33.2649 8.5641 32.366 7.40946 31.2151 6.48676L25.5888 1.97612C25.2257 1.68502 24.732 1.61595 24.3027 1.79623C23.8735 1.97663 23.5776 2.37767 23.5314 2.84092C23.5206 2.9496 23.2791 5.53424 24.342 8.32479C25.2789 10.7849 27.4046 13.837 32.2169 14.912V32.5029C30.9845 30.8842 29.3971 29.5609 27.5437 28.6276C28.0529 26.8446 27.9699 24.9537 27.2859 23.1957C26.4578 21.0668 24.85 19.388 22.7591 18.4683C21.8237 18.057 20.7921 17.8955 19.776 18.0018C19.776 18.0018 19.776 18.0018 19.7758 18.0018L6.38165 19.4025C5.9283 19.4499 5.53512 19.7367 5.35155 20.1539C5.1681 20.5712 5.22231 21.0549 5.49374 21.421L13.5132 32.2405C14.1217 33.0614 14.9378 33.7128 15.8732 34.1242C16.9898 34.6154 18.1557 34.8477 19.304 34.8477C22.1566 34.8477 24.8978 33.4119 26.4937 30.9448C28.8855 32.1781 30.7243 34.2133 31.7085 36.7433L32.2169 38.0501V47.095C31.5931 46.6193 30.8236 46.3536 30.0302 46.3536C27.7265 46.3536 25.5646 47.4818 24.2473 49.3715L15.1221 62.4609H8.49834C7.79717 62.4609 7.2288 63.0293 7.2288 63.7304C7.2288 64.4316 7.79717 65 8.49834 65H22.1695C22.8707 65 23.4391 64.4316 23.4391 63.7304C23.4391 63.0293 22.8707 62.4609 22.1695 62.4609H18.2174L26.3303 50.8237C27.1733 49.6146 28.5564 48.8928 30.0305 48.8928C30.3256 48.8928 30.6099 49.0171 30.8096 49.2325L30.8437 49.2695C31.5232 50.0033 32.4865 50.4241 33.4865 50.4241H33.4866H33.4868C34.4869 50.4241 35.4502 50.0033 36.1297 49.2693L36.1628 49.2337C36.3634 49.0171 36.6477 48.8928 36.9429 48.8928C38.4167 48.8928 39.8 49.6146 40.6431 50.8237L48.7558 62.4609H33.629C32.9279 62.4609 32.3594 63.0293 32.3594 63.7304C32.3594 64.4316 32.9279 65 33.629 65H58.4746C59.1756 65 59.7441 64.4316 59.7441 63.7304C59.7441 63.0293 59.1757 62.4609 58.4746 62.4609ZM43.3292 29.7173C44.0074 28.3045 45.6623 26.8879 47.3323 27.1927L56.0805 28.7901L50.255 35.5091C48.5117 37.5193 45.0051 36.3634 43.698 34.4583C43.8382 34.4041 43.9791 34.3513 44.1214 34.3012L48.977 32.5948C49.6385 32.3624 49.9862 31.6376 49.7538 30.9761C49.5212 30.3147 48.7968 29.9667 48.1351 30.1993L43.2796 31.9057C43.1422 31.9539 43.0057 32.0041 42.8701 32.0556C42.8209 31.2584 42.9741 30.4573 43.3292 29.7173ZM16.8954 31.8001C16.3633 31.5661 15.8991 31.1955 15.553 30.7286L8.85837 21.6965L20.04 20.5273C20.6182 20.4668 21.2049 20.5586 21.7371 20.7927C24.3965 21.9625 25.7872 24.837 25.1923 27.5724L19.7121 25.162C19.0701 24.8797 18.3211 25.1711 18.0389 25.8128C17.7566 26.4546 18.048 27.2039 18.6898 27.4861L24.1401 29.8835C22.5048 32.0828 19.5077 32.9493 16.8954 31.8001ZM38.4332 8.38052L43.9341 3.97068C43.8154 4.98758 43.5724 6.21356 43.0918 7.47522C41.697 11.1373 38.9373 13.4894 34.8765 14.4834C35.2576 12.0924 36.5072 9.92466 38.4332 8.38052ZM26.7453 7.50036C26.5101 6.89974 26.3515 6.30522 26.2454 5.75678L29.627 8.46774C30.8408 9.44084 31.6725 10.7664 32.0247 12.2416C29.4522 11.4772 27.6801 9.88759 26.7453 7.50036Z" fill="#FF7A00"/>
<path d="M29.0701 63.2454C28.8079 62.606 28.0491 62.2942 27.4121 62.5586C26.7732 62.8238 26.4603 63.5768 26.7253 64.2166C26.9896 64.8547 27.7457 65.1684 28.3833 64.9022C29.0207 64.636 29.3367 63.8854 29.0701 63.2454Z" fill="#FF7A00"/>
</g>
<defs>
<clipPath id="clip0">
<rect width="65" height="65" fill="white"/>
</clipPath>
</defs>
</svg>
