<svg width="61" height="61" viewBox="0 0 61 61" fill="none" xmlns="http://www.w3.org/2000/svg">
<g clip-path="url(#clip0)">
<mask id="path-1-outside-1" maskUnits="userSpaceOnUse" x="-1" y="-0.969727" width="63" height="63" fill="black">
<rect fill="white" x="-1" y="-0.969727" width="63" height="63"/>
<path d="M55.9907 40.3055L51.6212 41.762C51.1666 40.3991 50.1025 39.3259 48.7435 38.8594C48.3494 36.2635 46.0443 34.3939 43.4229 34.544C41.7264 31.8203 38.6612 30.2602 35.4608 30.4912C35.114 29.1356 34.0962 28.0526 32.7647 27.6224C33.7153 24.5299 35.4125 21.7187 37.7063 19.4371C37.8289 19.5774 37.9437 19.725 38.0735 19.8583C40.1203 21.9474 42.9169 23.1319 45.8414 23.1487C46.0474 23.1487 46.2545 23.1427 46.4605 23.1298C49.096 23.0102 51.5434 21.7301 53.1448 19.6335C57.5709 13.8115 60.8273 2.11136 60.9634 1.61598C61.0417 1.33242 60.9933 1.02885 60.8307 0.783659C60.668 0.538467 60.4072 0.375839 60.1155 0.337714C59.5163 0.258247 45.3539 -1.51945 38.274 4.45999C37.7738 4.8821 37.3203 5.35629 36.9208 5.87467C34.1331 5.10645 31.2256 4.87091 28.3506 5.18031C28.0505 5.21487 27.7814 5.38119 27.616 5.634C27.4506 5.88682 27.4062 6.20004 27.4948 6.48896C27.5629 6.70937 29.1782 11.9153 31.4006 14.5225C32.3856 15.6397 33.8129 16.2659 35.302 16.2342C35.4478 16.2342 35.5956 16.223 35.7432 16.2119C35.9535 16.7385 36.2024 17.2488 36.4881 17.7387C33.7223 20.4228 31.7221 23.7957 30.6933 27.5101C29.7311 27.7139 28.8744 28.2568 28.2791 29.0398C25.4816 27.8041 22.2071 28.5011 20.1553 30.7688C19.5568 30.5704 18.9306 30.469 18.3001 30.4684C15.3266 30.4734 12.7894 32.6202 12.292 35.5518H10.4089C9.56093 34.282 8.13517 33.5193 6.60838 33.5184H4.57501C2.04946 33.5212 0.00274024 35.5679 0 38.0935V56.3935C0.00274024 58.919 2.04946 60.9658 4.57501 60.9685H6.60838C7.64348 60.9641 8.64569 60.6052 9.44846 59.9519H35.8882C37.3799 59.952 38.843 59.5417 40.1172 58.7659L59.1738 47.166C60.826 46.1581 61.4588 44.0708 60.6442 42.3152C59.8296 40.5596 57.8272 39.6947 55.9907 40.3055ZM36.959 11.5489C37.0206 9.41744 37.9734 7.40956 39.5855 6.01382C43.4779 2.72756 50.0912 2.07967 54.701 2.07967C56.3501 2.07967 57.743 2.1626 58.6629 2.23706C57.7231 5.34568 54.9347 13.9193 51.5264 18.4035C50.2802 20.0253 48.3802 21.0127 46.3368 21.1006C43.791 21.2351 41.3109 20.2659 39.5309 18.4408C39.4015 18.3079 39.2855 18.1621 39.1649 18.0206C41.295 16.0889 43.6574 14.4297 46.1974 13.0814C46.7018 12.8345 46.9105 12.2255 46.6636 11.7211C46.4168 11.2168 45.8077 11.0081 45.3034 11.2549C42.6698 12.6227 40.2176 14.3148 38.0044 16.2917C37.2484 14.8291 36.888 13.194 36.959 11.5489ZM34.9281 11.449C34.889 12.3703 34.9635 13.293 35.1503 14.1961C34.3109 14.1897 33.5128 13.8305 32.9514 13.2064C31.6112 11.3462 30.5662 9.29032 29.8532 7.11135C31.8662 6.99435 33.8853 7.18319 35.8418 7.67131C35.2976 8.86022 34.9874 10.1428 34.9281 11.449ZM9.15001 56.3935C9.14834 57.7965 8.01138 58.9335 6.60838 58.9351H4.57501C3.172 58.9335 2.03492 57.7965 2.03338 56.3935V38.0935C2.03504 36.6905 3.172 35.5535 4.57501 35.5518H6.60838C8.01138 35.5535 9.14846 36.6905 9.15001 38.0935V56.3935ZM18.3 32.5017C18.9014 32.5054 19.4944 32.6442 20.035 32.9077C20.4784 33.1181 21.0087 32.9822 21.2963 32.5846C22.8607 30.398 25.8618 29.8163 28.13 31.2597C28.3877 31.4231 28.7052 31.4621 28.9948 31.3658C29.2844 31.2695 29.5155 31.0483 29.6241 30.7632C29.9103 30.004 30.6249 29.4915 31.4358 29.4638C31.4629 29.466 31.4905 29.4719 31.5175 29.4719C31.543 29.4719 31.5659 29.461 31.5911 29.4591C32.6644 29.4916 33.525 30.3569 33.5518 31.4303C33.5479 31.4585 33.5374 31.5549 33.5355 31.5831C33.5176 31.8983 33.6471 32.2038 33.886 32.4102C34.1249 32.6166 34.4461 32.7002 34.7553 32.6366C35.195 32.5467 35.6428 32.5016 36.0917 32.5016C38.5741 32.4981 40.8473 33.8912 41.9713 36.1046C42.1804 36.5136 42.638 36.7313 43.0873 36.6353C43.9782 36.4528 44.9042 36.6753 45.6148 37.2429C46.3255 37.8105 46.7473 38.6644 46.7662 39.5737C46.7637 39.6074 46.7618 39.6417 46.7618 39.669C46.7619 40.175 47.1341 40.6038 47.635 40.6752C48.5919 40.8165 49.3862 41.4874 49.6858 42.4072L37.1719 46.5788C36.8609 46.6824 36.5352 46.7352 36.2074 46.7351H35.6232C36.1062 45.411 35.9667 43.9397 35.2433 42.7299L35.153 42.5805C34.0467 40.7473 32.0639 39.6243 29.9227 39.6185H24.6051C22.7292 39.6161 20.9097 38.9778 19.4433 37.808C17.9727 36.6381 16.2109 35.8916 14.3475 35.6489C14.7748 33.8095 16.4118 32.5061 18.3 32.5017ZM58.9345 44.253C58.8423 44.7438 58.5448 45.1717 58.1169 45.4291L39.0598 57.0295C38.1042 57.6111 37.0069 57.9187 35.8882 57.9186H10.9023C11.0832 57.4303 11.1783 56.9144 11.1834 56.3936V38.0936C11.176 37.9233 11.1588 37.7535 11.132 37.5852H13.0117C14.8876 37.5876 16.7071 38.2258 18.1735 39.3957C20.0004 40.8536 22.2678 41.649 24.6051 41.652H29.9227C31.3505 41.6561 32.6726 42.4052 33.4101 43.6277L33.5004 43.7771C34.0554 44.7022 33.9959 45.8712 33.3498 46.7352H27.1704C25.1631 46.7332 23.2004 47.3276 21.5316 48.4429L20.7865 48.9393C20.4824 49.14 20.3089 49.488 20.3317 49.8515C20.3545 50.2151 20.5701 50.5387 20.8969 50.6996C21.2237 50.8607 21.6117 50.8345 21.9139 50.631L22.659 50.1345C23.9944 49.2423 25.5645 48.7668 27.1705 48.7685H36.2074C36.7537 48.7685 37.2964 48.6804 37.8148 48.5078L50.7861 44.1839C50.8027 44.1848 50.8166 44.1935 50.8333 44.1935C51.0614 44.1894 51.2809 44.1072 51.4557 43.9607L56.6341 42.2346C57.3588 41.9926 58.1569 42.2435 58.6127 42.8566C58.9145 43.2548 59.0315 43.763 58.9345 44.253Z"/>
</mask>
<path d="M55.9907 40.3055L51.6212 41.762C51.1666 40.3991 50.1025 39.3259 48.7435 38.8594C48.3494 36.2635 46.0443 34.3939 43.4229 34.544C41.7264 31.8203 38.6612 30.2602 35.4608 30.4912C35.114 29.1356 34.0962 28.0526 32.7647 27.6224C33.7153 24.5299 35.4125 21.7187 37.7063 19.4371C37.8289 19.5774 37.9437 19.725 38.0735 19.8583C40.1203 21.9474 42.9169 23.1319 45.8414 23.1487C46.0474 23.1487 46.2545 23.1427 46.4605 23.1298C49.096 23.0102 51.5434 21.7301 53.1448 19.6335C57.5709 13.8115 60.8273 2.11136 60.9634 1.61598C61.0417 1.33242 60.9933 1.02885 60.8307 0.783659C60.668 0.538467 60.4072 0.375839 60.1155 0.337714C59.5163 0.258247 45.3539 -1.51945 38.274 4.45999C37.7738 4.8821 37.3203 5.35629 36.9208 5.87467C34.1331 5.10645 31.2256 4.87091 28.3506 5.18031C28.0505 5.21487 27.7814 5.38119 27.616 5.634C27.4506 5.88682 27.4062 6.20004 27.4948 6.48896C27.5629 6.70937 29.1782 11.9153 31.4006 14.5225C32.3856 15.6397 33.8129 16.2659 35.302 16.2342C35.4478 16.2342 35.5956 16.223 35.7432 16.2119C35.9535 16.7385 36.2024 17.2488 36.4881 17.7387C33.7223 20.4228 31.7221 23.7957 30.6933 27.5101C29.7311 27.7139 28.8744 28.2568 28.2791 29.0398C25.4816 27.8041 22.2071 28.5011 20.1553 30.7688C19.5568 30.5704 18.9306 30.469 18.3001 30.4684C15.3266 30.4734 12.7894 32.6202 12.292 35.5518H10.4089C9.56093 34.282 8.13517 33.5193 6.60838 33.5184H4.57501C2.04946 33.5212 0.00274024 35.5679 0 38.0935V56.3935C0.00274024 58.919 2.04946 60.9658 4.57501 60.9685H6.60838C7.64348 60.9641 8.64569 60.6052 9.44846 59.9519H35.8882C37.3799 59.952 38.843 59.5417 40.1172 58.7659L59.1738 47.166C60.826 46.1581 61.4588 44.0708 60.6442 42.3152C59.8296 40.5596 57.8272 39.6947 55.9907 40.3055ZM36.959 11.5489C37.0206 9.41744 37.9734 7.40956 39.5855 6.01382C43.4779 2.72756 50.0912 2.07967 54.701 2.07967C56.3501 2.07967 57.743 2.1626 58.6629 2.23706C57.7231 5.34568 54.9347 13.9193 51.5264 18.4035C50.2802 20.0253 48.3802 21.0127 46.3368 21.1006C43.791 21.2351 41.3109 20.2659 39.5309 18.4408C39.4015 18.3079 39.2855 18.1621 39.1649 18.0206C41.295 16.0889 43.6574 14.4297 46.1974 13.0814C46.7018 12.8345 46.9105 12.2255 46.6636 11.7211C46.4168 11.2168 45.8077 11.0081 45.3034 11.2549C42.6698 12.6227 40.2176 14.3148 38.0044 16.2917C37.2484 14.8291 36.888 13.194 36.959 11.5489ZM34.9281 11.449C34.889 12.3703 34.9635 13.293 35.1503 14.1961C34.3109 14.1897 33.5128 13.8305 32.9514 13.2064C31.6112 11.3462 30.5662 9.29032 29.8532 7.11135C31.8662 6.99435 33.8853 7.18319 35.8418 7.67131C35.2976 8.86022 34.9874 10.1428 34.9281 11.449ZM9.15001 56.3935C9.14834 57.7965 8.01138 58.9335 6.60838 58.9351H4.57501C3.172 58.9335 2.03492 57.7965 2.03338 56.3935V38.0935C2.03504 36.6905 3.172 35.5535 4.57501 35.5518H6.60838C8.01138 35.5535 9.14846 36.6905 9.15001 38.0935V56.3935ZM18.3 32.5017C18.9014 32.5054 19.4944 32.6442 20.035 32.9077C20.4784 33.1181 21.0087 32.9822 21.2963 32.5846C22.8607 30.398 25.8618 29.8163 28.13 31.2597C28.3877 31.4231 28.7052 31.4621 28.9948 31.3658C29.2844 31.2695 29.5155 31.0483 29.6241 30.7632C29.9103 30.004 30.6249 29.4915 31.4358 29.4638C31.4629 29.466 31.4905 29.4719 31.5175 29.4719C31.543 29.4719 31.5659 29.461 31.5911 29.4591C32.6644 29.4916 33.525 30.3569 33.5518 31.4303C33.5479 31.4585 33.5374 31.5549 33.5355 31.5831C33.5176 31.8983 33.6471 32.2038 33.886 32.4102C34.1249 32.6166 34.4461 32.7002 34.7553 32.6366C35.195 32.5467 35.6428 32.5016 36.0917 32.5016C38.5741 32.4981 40.8473 33.8912 41.9713 36.1046C42.1804 36.5136 42.638 36.7313 43.0873 36.6353C43.9782 36.4528 44.9042 36.6753 45.6148 37.2429C46.3255 37.8105 46.7473 38.6644 46.7662 39.5737C46.7637 39.6074 46.7618 39.6417 46.7618 39.669C46.7619 40.175 47.1341 40.6038 47.635 40.6752C48.5919 40.8165 49.3862 41.4874 49.6858 42.4072L37.1719 46.5788C36.8609 46.6824 36.5352 46.7352 36.2074 46.7351H35.6232C36.1062 45.411 35.9667 43.9397 35.2433 42.7299L35.153 42.5805C34.0467 40.7473 32.0639 39.6243 29.9227 39.6185H24.6051C22.7292 39.6161 20.9097 38.9778 19.4433 37.808C17.9727 36.6381 16.2109 35.8916 14.3475 35.6489C14.7748 33.8095 16.4118 32.5061 18.3 32.5017ZM58.9345 44.253C58.8423 44.7438 58.5448 45.1717 58.1169 45.4291L39.0598 57.0295C38.1042 57.6111 37.0069 57.9187 35.8882 57.9186H10.9023C11.0832 57.4303 11.1783 56.9144 11.1834 56.3936V38.0936C11.176 37.9233 11.1588 37.7535 11.132 37.5852H13.0117C14.8876 37.5876 16.7071 38.2258 18.1735 39.3957C20.0004 40.8536 22.2678 41.649 24.6051 41.652H29.9227C31.3505 41.6561 32.6726 42.4052 33.4101 43.6277L33.5004 43.7771C34.0554 44.7022 33.9959 45.8712 33.3498 46.7352H27.1704C25.1631 46.7332 23.2004 47.3276 21.5316 48.4429L20.7865 48.9393C20.4824 49.14 20.3089 49.488 20.3317 49.8515C20.3545 50.2151 20.5701 50.5387 20.8969 50.6996C21.2237 50.8607 21.6117 50.8345 21.9139 50.631L22.659 50.1345C23.9944 49.2423 25.5645 48.7668 27.1705 48.7685H36.2074C36.7537 48.7685 37.2964 48.6804 37.8148 48.5078L50.7861 44.1839C50.8027 44.1848 50.8166 44.1935 50.8333 44.1935C51.0614 44.1894 51.2809 44.1072 51.4557 43.9607L56.6341 42.2346C57.3588 41.9926 58.1569 42.2435 58.6127 42.8566C58.9145 43.2548 59.0315 43.763 58.9345 44.253Z" fill="#FF7A00"/>
<path d="M55.9907 40.3055L51.6212 41.762C51.1666 40.3991 50.1025 39.3259 48.7435 38.8594C48.3494 36.2635 46.0443 34.3939 43.4229 34.544C41.7264 31.8203 38.6612 30.2602 35.4608 30.4912C35.114 29.1356 34.0962 28.0526 32.7647 27.6224C33.7153 24.5299 35.4125 21.7187 37.7063 19.4371C37.8289 19.5774 37.9437 19.725 38.0735 19.8583C40.1203 21.9474 42.9169 23.1319 45.8414 23.1487C46.0474 23.1487 46.2545 23.1427 46.4605 23.1298C49.096 23.0102 51.5434 21.7301 53.1448 19.6335C57.5709 13.8115 60.8273 2.11136 60.9634 1.61598C61.0417 1.33242 60.9933 1.02885 60.8307 0.783659C60.668 0.538467 60.4072 0.375839 60.1155 0.337714C59.5163 0.258247 45.3539 -1.51945 38.274 4.45999C37.7738 4.8821 37.3203 5.35629 36.9208 5.87467C34.1331 5.10645 31.2256 4.87091 28.3506 5.18031C28.0505 5.21487 27.7814 5.38119 27.616 5.634C27.4506 5.88682 27.4062 6.20004 27.4948 6.48896C27.5629 6.70937 29.1782 11.9153 31.4006 14.5225C32.3856 15.6397 33.8129 16.2659 35.302 16.2342C35.4478 16.2342 35.5956 16.223 35.7432 16.2119C35.9535 16.7385 36.2024 17.2488 36.4881 17.7387C33.7223 20.4228 31.7221 23.7957 30.6933 27.5101C29.7311 27.7139 28.8744 28.2568 28.2791 29.0398C25.4816 27.8041 22.2071 28.5011 20.1553 30.7688C19.5568 30.5704 18.9306 30.469 18.3001 30.4684C15.3266 30.4734 12.7894 32.6202 12.292 35.5518H10.4089C9.56093 34.282 8.13517 33.5193 6.60838 33.5184H4.57501C2.04946 33.5212 0.00274024 35.5679 0 38.0935V56.3935C0.00274024 58.919 2.04946 60.9658 4.57501 60.9685H6.60838C7.64348 60.9641 8.64569 60.6052 9.44846 59.9519H35.8882C37.3799 59.952 38.843 59.5417 40.1172 58.7659L59.1738 47.166C60.826 46.1581 61.4588 44.0708 60.6442 42.3152C59.8296 40.5596 57.8272 39.6947 55.9907 40.3055ZM36.959 11.5489C37.0206 9.41744 37.9734 7.40956 39.5855 6.01382C43.4779 2.72756 50.0912 2.07967 54.701 2.07967C56.3501 2.07967 57.743 2.1626 58.6629 2.23706C57.7231 5.34568 54.9347 13.9193 51.5264 18.4035C50.2802 20.0253 48.3802 21.0127 46.3368 21.1006C43.791 21.2351 41.3109 20.2659 39.5309 18.4408C39.4015 18.3079 39.2855 18.1621 39.1649 18.0206C41.295 16.0889 43.6574 14.4297 46.1974 13.0814C46.7018 12.8345 46.9105 12.2255 46.6636 11.7211C46.4168 11.2168 45.8077 11.0081 45.3034 11.2549C42.6698 12.6227 40.2176 14.3148 38.0044 16.2917C37.2484 14.8291 36.888 13.194 36.959 11.5489ZM34.9281 11.449C34.889 12.3703 34.9635 13.293 35.1503 14.1961C34.3109 14.1897 33.5128 13.8305 32.9514 13.2064C31.6112 11.3462 30.5662 9.29032 29.8532 7.11135C31.8662 6.99435 33.8853 7.18319 35.8418 7.67131C35.2976 8.86022 34.9874 10.1428 34.9281 11.449ZM9.15001 56.3935C9.14834 57.7965 8.01138 58.9335 6.60838 58.9351H4.57501C3.172 58.9335 2.03492 57.7965 2.03338 56.3935V38.0935C2.03504 36.6905 3.172 35.5535 4.57501 35.5518H6.60838C8.01138 35.5535 9.14846 36.6905 9.15001 38.0935V56.3935ZM18.3 32.5017C18.9014 32.5054 19.4944 32.6442 20.035 32.9077C20.4784 33.1181 21.0087 32.9822 21.2963 32.5846C22.8607 30.398 25.8618 29.8163 28.13 31.2597C28.3877 31.4231 28.7052 31.4621 28.9948 31.3658C29.2844 31.2695 29.5155 31.0483 29.6241 30.7632C29.9103 30.004 30.6249 29.4915 31.4358 29.4638C31.4629 29.466 31.4905 29.4719 31.5175 29.4719C31.543 29.4719 31.5659 29.461 31.5911 29.4591C32.6644 29.4916 33.525 30.3569 33.5518 31.4303C33.5479 31.4585 33.5374 31.5549 33.5355 31.5831C33.5176 31.8983 33.6471 32.2038 33.886 32.4102C34.1249 32.6166 34.4461 32.7002 34.7553 32.6366C35.195 32.5467 35.6428 32.5016 36.0917 32.5016C38.5741 32.4981 40.8473 33.8912 41.9713 36.1046C42.1804 36.5136 42.638 36.7313 43.0873 36.6353C43.9782 36.4528 44.9042 36.6753 45.6148 37.2429C46.3255 37.8105 46.7473 38.6644 46.7662 39.5737C46.7637 39.6074 46.7618 39.6417 46.7618 39.669C46.7619 40.175 47.1341 40.6038 47.635 40.6752C48.5919 40.8165 49.3862 41.4874 49.6858 42.4072L37.1719 46.5788C36.8609 46.6824 36.5352 46.7352 36.2074 46.7351H35.6232C36.1062 45.411 35.9667 43.9397 35.2433 42.7299L35.153 42.5805C34.0467 40.7473 32.0639 39.6243 29.9227 39.6185H24.6051C22.7292 39.6161 20.9097 38.9778 19.4433 37.808C17.9727 36.6381 16.2109 35.8916 14.3475 35.6489C14.7748 33.8095 16.4118 32.5061 18.3 32.5017ZM58.9345 44.253C58.8423 44.7438 58.5448 45.1717 58.1169 45.4291L39.0598 57.0295C38.1042 57.6111 37.0069 57.9187 35.8882 57.9186H10.9023C11.0832 57.4303 11.1783 56.9144 11.1834 56.3936V38.0936C11.176 37.9233 11.1588 37.7535 11.132 37.5852H13.0117C14.8876 37.5876 16.7071 38.2258 18.1735 39.3957C20.0004 40.8536 22.2678 41.649 24.6051 41.652H29.9227C31.3505 41.6561 32.6726 42.4052 33.4101 43.6277L33.5004 43.7771C34.0554 44.7022 33.9959 45.8712 33.3498 46.7352H27.1704C25.1631 46.7332 23.2004 47.3276 21.5316 48.4429L20.7865 48.9393C20.4824 49.14 20.3089 49.488 20.3317 49.8515C20.3545 50.2151 20.5701 50.5387 20.8969 50.6996C21.2237 50.8607 21.6117 50.8345 21.9139 50.631L22.659 50.1345C23.9944 49.2423 25.5645 48.7668 27.1705 48.7685H36.2074C36.7537 48.7685 37.2964 48.6804 37.8148 48.5078L50.7861 44.1839C50.8027 44.1848 50.8166 44.1935 50.8333 44.1935C51.0614 44.1894 51.2809 44.1072 51.4557 43.9607L56.6341 42.2346C57.3588 41.9926 58.1569 42.2435 58.6127 42.8566C58.9145 43.2548 59.0315 43.763 58.9345 44.253Z" stroke="#FF7A00" stroke-width="0.4" mask="url(#path-1-outside-1)"/>
<path d="M25.9276 32.4025C24.1903 32.4064 22.6938 33.6282 22.3425 35.3297L22.3425 35.33C22.2197 35.9343 22.6099 36.5237 23.2142 36.6467L23.2143 36.6467C23.8186 36.7695 24.4081 36.3793 24.5311 35.775L24.4331 35.755L24.531 35.7753C24.6682 35.1127 25.2513 34.6371 25.928 34.6357L25.9282 34.6357C26.2361 34.6347 26.5361 34.7345 26.7821 34.9199L26.7825 34.9202C27.2755 35.2879 27.973 35.1875 28.3425 34.6959C28.7119 34.2042 28.6141 33.5063 28.1238 33.1351L28.1237 33.135C27.4914 32.6574 26.72 32.4001 25.9276 32.4025ZM25.9276 32.4025L25.9278 32.5025M25.9276 32.4025C25.9276 32.4025 25.9276 32.4025 25.9275 32.4025L25.9278 32.5025M25.9278 32.5025C26.6984 32.5002 27.4486 32.7504 28.0634 33.2148C28.5099 33.5528 28.5989 34.1882 28.2625 34.6358C27.9262 35.0834 27.2912 35.1748 26.8422 34.84C26.5788 34.6415 26.2576 34.5347 25.9278 34.5357V32.5025Z" fill="#FF7A00" stroke="#FF7A00" stroke-width="0.2"/>
<path d="M36.9763 37.0868L36.9762 37.0868C36.4969 36.6095 35.7488 36.5333 35.1833 36.9042C34.8508 37.1253 34.4256 37.1519 34.0681 36.9741C33.7105 36.7963 33.475 36.4411 33.4509 36.0424L36.9763 37.0868ZM36.9763 37.0868C37.1949 37.304 37.3364 37.5868 37.3792 37.892L37.3792 37.8922M36.9763 37.0868L37.3792 37.8922M37.3792 37.8922C37.4576 38.442 37.928 38.8505 38.4834 38.8513L38.4838 38.8513M37.3792 37.8922L38.4838 38.8513M38.4838 38.8513C38.5367 38.8512 38.5894 38.8475 38.6418 38.8405L38.6427 38.8404M38.4838 38.8513L38.6427 38.8404M38.6427 38.8404C39.2532 38.7531 39.6776 38.1877 39.5908 37.5772L39.5908 37.5771M38.6427 38.8404L39.5908 37.5771M39.5908 37.5771C39.4132 36.3355 38.6121 35.2714 37.4681 34.7573M39.5908 37.5771L37.4681 34.7573M37.4681 34.7573C36.3241 34.2432 34.9964 34.3509 33.9502 35.0425L37.4681 34.7573ZM33.9502 35.0426C33.617 35.2625 33.4266 35.6438 33.4509 36.0424L33.9502 35.0426Z" fill="#FF7A00" stroke="#FF7A00" stroke-width="0.2"/>
</g>
<defs>
<clipPath id="clip0">
<rect width="61" height="61" fill="white"/>
</clipPath>
</defs>
</svg>
