<svg width="32" height="32" viewBox="0 0 32 32" fill="none" xmlns="http://www.w3.org/2000/svg">
<path d="M29.714 4.57144H21.7141V3.42857C21.7141 1.53502 20.179 0 18.2855 0H13.714C11.8205 0 10.2855 1.53502 10.2855 3.42857V4.57144H2.28546C1.65425 4.57144 1.14258 5.08312 1.14258 5.71432C1.14258 6.34553 1.65432 6.85713 2.28546 6.85713H3.52771L5.71403 30.9611C5.76793 31.5513 6.2642 32.0024 6.8569 32H25.1426C25.7353 32.0025 26.2315 31.5514 26.2855 30.9611L28.4718 6.85713H29.7141C30.3453 6.85713 30.857 6.34546 30.857 5.71426C30.857 5.08305 30.3452 4.57144 29.714 4.57144ZM12.5712 3.42857C12.5712 2.79736 13.0828 2.28569 13.714 2.28569H18.2855C18.9167 2.28569 19.4284 2.79736 19.4284 3.42857V4.57144H12.5712V3.42857H12.5712ZM24.0992 29.7142H7.90034L5.82833 6.85713H11.4284H26.1769L24.0992 29.7142Z" fill="#78818F"/>
<path d="M12.5705 26.2094C12.5704 26.2079 12.5703 26.2063 12.5702 26.2047L11.4273 10.2048C11.3825 9.57357 10.8345 9.09826 10.2033 9.14306C9.57211 9.18786 9.0968 9.7359 9.1416 10.367L10.2845 26.367C10.3271 26.9663 10.8266 27.4303 11.4274 27.4287H11.5097C12.1393 27.385 12.6143 26.8391 12.5705 26.2094Z" fill="#B9BCC1"/>
<path d="M16.0003 9.14282C15.3691 9.14282 14.8574 9.6545 14.8574 10.2857V26.2857C14.8574 26.9169 15.3691 27.4285 16.0003 27.4285C16.6315 27.4285 17.1432 26.9169 17.1432 26.2857V10.2857C17.1432 9.6545 16.6315 9.14282 16.0003 9.14282Z" fill="#B9BCC1"/>
<path d="M21.7977 9.14306C21.1665 9.09826 20.6185 9.57357 20.5737 10.2048L19.4309 26.2047C19.3846 26.8342 19.8574 27.382 20.4868 27.4283C20.4888 27.4284 20.4906 27.4286 20.4926 27.4287H20.5737C21.1745 27.4303 21.674 26.9663 21.7166 26.367L22.8595 10.367C22.9043 9.7359 22.4289 9.18793 21.7977 9.14306Z" fill="#B9BCC1"/>
</svg>
