<svg width="33" height="33" viewBox="0 0 33 33" fill="none" xmlns="http://www.w3.org/2000/svg">
<path d="M30.1588 7.21799H24.426C24.0814 3.18036 20.6855 0 16.5602 0C12.435 0 9.03886 3.18036 8.69418 7.21799H2.96264C1.3634 7.21799 0.0625 8.51889 0.0625 10.1181V30.0963C0.0625 31.6956 1.3634 32.9965 2.96264 32.9965H16.9651C16.9895 32.9982 17.0142 33 17.0388 33C17.0635 33 17.0882 32.9982 17.1129 32.9965H30.1588C31.7581 32.9965 33.059 31.6956 33.059 30.0963V10.1181C33.059 8.51889 31.7581 7.21799 30.1588 7.21799ZM18.5976 29.4707L20.19 31.0631H17.4359L1.99584 15.616V12.8405L15.8626 26.7357C16.0439 26.9172 16.2898 27.0195 16.5464 27.0195H16.5469C16.8032 27.0195 17.0489 26.9177 17.2304 26.7365L31.1254 12.8413V15.5453L18.5968 28.1043C18.2199 28.482 18.2204 29.0935 18.5976 29.4707ZM1.99584 18.351L5.99974 22.3567L1.99584 26.3606V18.351ZM31.1256 18.2828V26.5841L26.98 22.4385L31.1256 18.2828ZM16.5602 1.93334C19.8476 1.93334 22.5219 4.60789 22.5219 7.89526C22.5219 10.6116 20.6883 12.985 18.0625 13.6663C17.7642 13.7439 17.5205 13.9591 17.4069 14.2457L16.56 16.3812L15.7133 14.2457C15.5997 13.9589 15.356 13.7436 15.0574 13.6663C12.432 12.9848 10.5983 10.6116 10.5983 7.89526C10.5983 4.60789 13.2726 1.93334 16.5602 1.93334ZM2.96264 9.15134H8.76493C9.22919 12.0429 11.2713 14.4707 14.0896 15.396L15.6614 19.3604C15.8074 19.7287 16.1637 19.9706 16.56 19.9706C16.9565 19.9706 17.3125 19.7287 17.4588 19.3604L19.0306 15.396C21.8489 14.4707 23.8913 12.0429 24.3553 9.15134H30.1588C30.6883 9.15134 31.1193 9.57935 31.1251 10.1076L16.5474 24.685L1.9966 10.1043C2.00415 9.57758 2.43417 9.15134 2.96264 9.15134ZM1.99584 30.0963V29.0885C2.018 29.0699 2.0399 29.0507 2.06055 29.0298L7.3666 23.724L14.7024 31.0631H2.96264C2.42964 31.0631 1.99584 30.6293 1.99584 30.0963ZM30.1588 31.0631H22.9242L20.6472 28.7861L25.6144 23.8071L31.1256 29.3184V30.0963C31.1256 30.6293 30.6918 31.0631 30.1588 31.0631Z" fill="white" fill-opacity="0.5"/>
</svg>
