<svg width="37" height="37" viewBox="0 0 37 37" fill="none" xmlns="http://www.w3.org/2000/svg">
<path d="M34.0649 6.9375H2.93514C1.9567 6.9375 1.15625 7.73795 1.15625 8.71632V28.2837C1.15625 29.262 1.9567 30.0625 2.93514 30.0625H34.0649C35.0432 30.0625 35.8438 29.2621 35.8438 28.2837V8.71632C35.8438 7.73795 35.0433 6.9375 34.0649 6.9375ZM33.3973 8.27155L19.5233 18.6779C19.2738 18.8678 18.8909 18.9865 18.4999 18.9848C18.109 18.9865 17.7262 18.8678 17.4767 18.6779L3.6026 8.27155H33.3973ZM25.9863 19.3646L33.5464 28.7036C33.554 28.7129 33.5633 28.72 33.5713 28.7285H3.42869C3.43668 28.7196 3.44603 28.7129 3.45362 28.7036L11.0137 19.3646C11.2454 19.0782 11.2015 18.6584 10.9145 18.4262C10.6282 18.1945 10.2083 18.2384 9.97663 18.5249L2.49036 27.7727V9.1054L16.6766 19.7451C17.2099 20.1423 17.8586 20.3171 18.4999 20.3188C19.1402 20.3175 19.7895 20.1427 20.3231 19.7451L34.5094 9.1054V27.7726L27.0233 18.5249C26.7916 18.2385 26.3714 18.1945 26.0854 18.4262C25.7985 18.6578 25.7545 19.0782 25.9863 19.3646Z" fill="white" fill-opacity="0.5"/>
<path d="M26.0854 18.4262L25.9283 18.2317C25.5338 18.5503 25.4734 19.1283 25.7919 19.5218L25.792 19.5219L33.0425 28.4785H3.95746L11.208 19.5219L11.2081 19.5218C11.5265 19.1282 11.4661 18.5509 11.0718 18.2318L11.0718 18.2318C10.6783 17.9135 10.101 17.9736 9.78232 18.3676C9.7823 18.3676 9.78228 18.3676 9.78226 18.3677L2.74036 27.0665V9.6054L16.5266 19.9451L16.5273 19.9456C17.1109 20.3803 17.8144 20.5669 18.4992 20.5688L18.5004 20.5688C19.1844 20.5674 19.8885 20.3807 20.4725 19.9456L20.4731 19.9451L34.2594 9.6054V27.0664L27.2177 18.3676C27.2176 18.3676 27.2176 18.3676 27.2176 18.3676C26.899 17.9738 26.3213 17.9133 25.928 18.2319L26.0854 18.4262ZM26.0854 18.4262C26.3714 18.1945 26.7916 18.2385 27.0233 18.5249L25.9863 19.3646C25.7545 19.0782 25.7985 18.6578 26.0854 18.4262ZM17.6267 18.4779L4.35255 8.52155H32.6474L19.3733 18.4779L19.3719 18.479C19.1741 18.6295 18.8477 18.7363 18.5011 18.7348L18.4988 18.7348C18.1523 18.7363 17.8259 18.6295 17.628 18.479L17.6267 18.4779ZM34.0649 6.6875H2.93514C1.81864 6.6875 0.90625 7.59988 0.90625 8.71632V28.2837C0.90625 29.4 1.81862 30.3125 2.93514 30.3125H34.0649C35.1813 30.3125 36.0938 29.4002 36.0938 28.2837V8.71632C36.0937 7.59988 35.1814 6.6875 34.0649 6.6875Z" stroke="white" stroke-opacity="0.5" stroke-width="0.5"/>
</svg>
