<svg width="33" height="33" viewBox="0 0 33 33" fill="none" xmlns="http://www.w3.org/2000/svg">
<path d="M28.4772 16.6727H26.7942C26.7942 11.1802 22.327 6.71395 16.8374 6.71395L16.8364 5.03294C23.2564 5.02991 28.4772 10.2528 28.4772 16.6727ZM16.8364 7.93633L16.8354 9.61734C20.7278 9.61734 23.8898 12.7824 23.8878 16.6717L25.5708 16.6707C25.5708 11.855 21.6552 7.93633 16.8364 7.93633ZM16.5 0C7.40091 0 0 7.40091 0 16.501C0 25.5991 7.40091 33 16.5 33C17.0627 33 17.5173 32.5454 17.5173 31.9837C17.5173 31.419 17.0627 30.9634 16.5 30.9634C8.52327 30.9634 2.0356 24.4737 2.0356 16.501C2.0356 8.52428 8.52327 2.0356 16.5 2.0356C24.4767 2.0356 30.9634 8.52529 30.9634 16.501C30.9634 19.8337 29.1894 23.1362 26.6507 24.5363C25.7284 25.0435 24.7283 25.295 23.6615 25.3051C24.302 24.9243 24.8566 24.409 25.2688 23.7605C25.3496 23.6382 25.4567 23.5302 25.5092 23.3978C25.8405 22.6007 25.8698 21.6966 26.0699 20.8541C26.3153 19.7792 21.3642 17.6789 20.9339 19.0215C20.7783 19.5186 20.5399 21.0905 20.2277 21.5047C19.9499 21.8744 19.265 21.6986 18.8366 21.3349C17.7082 20.3732 16.4485 18.9599 15.3433 17.8426L15.3453 17.8416C15.317 17.8123 15.2827 17.78 15.2524 17.7486C15.2211 17.7193 15.1897 17.686 15.1584 17.6557V17.6577C14.0411 16.5505 12.6268 15.2938 11.6661 14.1634C11.3024 13.735 11.1266 13.0501 11.4964 12.7723C11.9105 12.4581 13.4825 12.2237 13.9795 12.0661C15.319 11.6378 13.2218 6.68365 12.1449 6.93014C11.3044 7.12714 10.4003 7.15946 9.6032 7.4888C9.46783 7.54638 9.36276 7.65043 9.24053 7.73125C6.41291 9.52339 6.04821 13.8754 8.80815 17.1183C9.85979 18.3588 10.9569 19.559 12.0863 20.7308L12.0803 20.7349C12.1116 20.7662 12.1439 20.7955 12.1762 20.8258C12.2065 20.8571 12.2358 20.8884 12.2651 20.9218L12.2712 20.9157C13.4431 22.0451 14.8321 23.709 17.089 25.2142C21.84 28.3873 25.4859 27.5013 27.6337 26.3234C31.3412 24.2818 33 19.9206 33 16.5051C33 7.40091 25.5981 0 16.5 0Z" fill="white" fill-opacity="0.5"/>
</svg>
