<svg width="88" height="79" viewBox="0 0 88 79" fill="none" xmlns="http://www.w3.org/2000/svg">
<g clip-path="url(#clip0)">
<path d="M55.4591 37.1738H65.1819C65.894 37.1738 66.4709 37.692 66.4709 38.3311C66.4709 38.9702 65.894 39.4883 65.1819 39.4883H55.4591C54.747 39.4883 54.17 38.9702 54.17 38.3311C54.17 37.692 54.747 37.1738 55.4591 37.1738Z" fill="white"/>
<path d="M1.86639 41.0711L7.40128 39.0123L9.18346 34.8141C9.43714 34.2168 10.182 33.9173 10.8472 34.1449C11.5124 34.3725 11.8463 35.0412 11.5928 35.6383L9.61263 40.3027C9.4863 40.6002 9.22917 40.8378 8.90141 40.9597L2.85536 43.2086C2.68692 43.2717 2.57795 43.418 2.57795 43.5815V45.2791H12.4006C12.8107 45.2791 13.1964 45.4542 13.4392 45.7509C13.6821 46.0476 13.7533 46.4301 13.6309 46.7815L11.8946 51.7693C11.7263 52.2524 11.2281 52.5813 10.6643 52.5813H2.57812V59.307H8.43408C10.0461 55.7464 13.9394 53.2283 18.4776 53.2283C23.016 53.2283 26.9093 55.7464 28.5213 59.307H32.6408V21.4074H17.9386C17.7514 21.4074 17.5874 21.5087 17.5206 21.6664L13.7344 30.591C13.4808 31.1884 12.7359 31.488 12.0708 31.2604C11.4056 31.033 11.0717 30.3644 11.325 29.7672L15.1109 20.8434C15.5543 19.7963 16.6906 19.0929 17.9384 19.0929H32.6406V7.46973C32.6406 6.83063 33.2176 6.3125 33.9297 6.3125H86.7109C87.423 6.3125 88 6.83063 88 7.46973V18.5606C88 19.1997 87.423 19.7178 86.7109 19.7178C85.9989 19.7178 85.4219 19.1997 85.4219 18.5606V8.62695H35.2189V59.3068H59.4789C61.0909 55.7463 64.9842 53.2281 69.5226 53.2281C74.0608 53.2281 77.9541 55.7463 79.5661 59.3068H85.4219V23.961C85.4219 23.3219 85.9989 22.8037 86.7109 22.8037C87.423 22.8037 88 23.3219 88 23.961V65.4517C88 66.0908 87.423 66.6089 86.7109 66.6089H79.5659C77.9539 70.1696 74.0606 72.6876 69.5224 72.6876C64.9839 72.6876 61.0906 70.1693 59.4785 66.6086H38.6873C37.9753 66.6086 37.3983 66.0905 37.3983 65.4514C37.3983 64.8123 37.9753 64.2942 38.6873 64.2942H58.7888C58.7216 63.857 58.6841 63.4114 58.6841 62.9578C58.6841 62.5042 58.7216 62.0584 58.789 61.6211H29.2114C29.2786 62.0584 29.3162 62.5042 29.3162 62.9578C29.3162 63.4113 29.2787 63.8569 29.2115 64.2942H32.6717C33.3838 64.2942 33.9608 64.8123 33.9608 65.4514C33.9608 66.0905 33.3838 66.6086 32.6717 66.6086H28.5215C26.9094 70.1695 23.0161 72.6876 18.4776 72.6876C13.9394 72.6876 10.0461 70.1695 8.43408 66.6089H1.28906C0.576981 66.6089 0 66.0908 0 65.4517V43.5814C0 42.4803 0.731842 41.4953 1.86639 41.0711ZM85.4219 64.2945V61.6213H80.2558C80.323 62.0586 80.3607 62.5043 80.3607 62.958C80.3607 63.4116 80.3232 63.8573 80.2558 64.2946H85.4219V64.2945ZM69.5224 70.3731C74.0771 70.3731 77.7825 67.0467 77.7825 62.9578C77.7825 58.8689 74.0771 55.5424 69.5224 55.5424C64.9677 55.5424 61.2621 58.8689 61.2621 62.9578C61.2623 67.0467 64.9677 70.3731 69.5224 70.3731ZM10.6475 47.5934H8.13399V50.2666H9.71696L10.6475 47.5934ZM5.55586 50.2666V47.5934H2.57812V50.2666H5.55586ZM18.4776 70.3731C23.0323 70.3731 26.7379 67.0467 26.7379 62.9578C26.7379 58.8689 23.0323 55.5424 18.4776 55.5424C13.9229 55.5424 10.2175 58.8689 10.2175 62.9578C10.2175 67.0467 13.9229 70.3731 18.4776 70.3731ZM2.57812 64.2945H7.74417C7.67697 63.8572 7.63933 63.4114 7.63933 62.9578C7.63933 62.5042 7.6768 62.0584 7.74417 61.6211H2.57812V64.2945Z" fill="white"/>
<path d="M18.4776 59.3066C20.7202 59.3066 22.5447 60.9445 22.5447 62.9578C22.5447 64.971 20.7202 66.6089 18.4776 66.6089C16.2351 66.6089 14.4107 64.971 14.4107 62.9578C14.4107 60.9445 16.2351 59.3066 18.4776 59.3066ZM18.4776 64.2944C19.2985 64.2944 19.9666 63.6948 19.9666 62.9578C19.9666 62.2207 19.2985 61.6211 18.4776 61.6211C17.6567 61.6211 16.9888 62.2207 16.9888 62.9578C16.9888 63.6948 17.6565 64.2944 18.4776 64.2944Z" fill="white"/>
<path d="M69.5225 59.3066C71.7649 59.3066 73.5894 60.9445 73.5894 62.9578C73.5894 64.971 71.7649 66.6089 69.5225 66.6089C67.2798 66.6089 65.4554 64.971 65.4554 62.9578C65.4554 60.9445 67.2798 59.3066 69.5225 59.3066ZM69.5225 64.2944C70.3433 64.2944 71.0112 63.6948 71.0112 62.9578C71.0112 62.2207 70.3433 61.6211 69.5225 61.6211C68.7016 61.6211 68.0335 62.2207 68.0335 62.9578C68.0335 63.6948 68.7016 64.2944 69.5225 64.2944Z" fill="white"/>
<path d="M20.5704 24.0811H28.374C29.0861 24.0811 29.6631 24.5992 29.6631 25.2383V39.8895C29.6631 40.5286 29.0861 41.0467 28.374 41.0467H14.353C13.929 41.0467 13.5323 40.8596 13.2915 40.5462C13.051 40.2328 12.9974 39.8332 13.1483 39.4775L19.3657 24.8263C19.5561 24.3776 20.0353 24.0811 20.5704 24.0811ZM27.085 38.7323V26.3955H21.4588L16.2235 38.7323H27.085Z" fill="white"/>
<path d="M49.9032 44.4763C49.1911 44.4763 48.6142 43.9582 48.6142 43.3191V24.6152C48.6142 23.9761 49.1911 23.458 49.9032 23.458H70.7379C71.45 23.458 72.027 23.9761 72.027 24.6152V43.3191C72.027 43.9582 71.45 44.4763 70.7379 44.4763H49.9032ZM61.8094 25.7725H58.8316V29.18L59.8677 28.8311C60.1597 28.7328 60.4809 28.7328 60.7731 28.8311L61.8094 29.18V25.7725ZM69.4487 25.7725H64.3875V30.8499C64.3875 31.2295 64.1802 31.5848 63.8327 31.8011C63.6139 31.9372 63.3571 32.0071 63.0982 32.0071C62.9458 32.0071 62.7925 31.9829 62.6457 31.9334L60.3204 31.1506L57.9953 31.9334C57.5988 32.0668 57.1555 32.0172 56.8085 31.801C56.4609 31.5848 56.2535 31.2293 56.2535 30.8498V25.7725H51.1923V42.1619H69.4489V25.7725H69.4487Z" fill="white"/>
</g>
<defs>
<clipPath id="clip0">
<rect width="88" height="79" fill="white" transform="matrix(-1 0 0 1 88 0)"/>
</clipPath>
</defs>
</svg>
