<svg width="21" height="20" viewBox="0 0 21 20" fill="none" xmlns="http://www.w3.org/2000/svg">
<path d="M18.7067 13.8357C18.7067 14.8758 18.7067 15.9155 18.7067 16.9558C13.4108 16.9558 8.11463 16.9558 2.819 16.9558C2.819 15.9208 2.819 14.8857 2.819 13.8506C2.819 12.5124 0.746094 12.5005 0.746094 13.8357C0.746094 15.2187 0.746094 16.6016 0.746094 17.9848C0.746094 18.2706 0.843924 18.4922 0.992812 18.6569C1.15751 18.8762 1.41561 19.0288 1.77509 19.0288C7.76202 19.0288 13.749 19.0288 19.7357 19.0288C20.0214 19.0288 20.243 18.9309 20.4077 18.782C20.6274 18.6173 20.7799 18.359 20.7799 17.9995C20.7799 16.6165 20.7799 15.2336 20.7799 13.8504C20.7796 12.5124 18.7067 12.5005 18.7067 13.8357Z" fill="white"/>
<path d="M15.4093 6.8194C14.2714 6.8194 13.1338 6.8194 11.9959 6.8194C11.9959 5.09628 11.9959 3.37317 11.9959 1.65035C11.9959 -0.357087 8.88677 -0.374747 8.88677 1.62797C8.88677 3.35854 8.88677 5.08882 8.88677 6.8194C7.79335 6.8194 6.7 6.8194 5.60665 6.8194C5.58648 6.81969 5.5666 6.82161 5.54694 6.82464C5.33252 6.84319 5.19353 6.97191 5.13161 7.13468C5.05122 7.29606 5.05314 7.49305 5.19486 7.66381C5.21089 7.6859 5.22885 7.70608 5.24843 7.72514C6.87815 9.35375 8.50705 10.9829 10.1362 12.6118C10.3368 12.8121 10.6703 12.8068 10.8689 12.6079C12.5039 10.9727 14.1386 9.33742 15.7735 7.70223C16.0902 7.38584 15.8575 6.8194 15.4093 6.8194Z" fill="white"/>
</svg>
