<svg width="21" height="21" viewBox="0 0 21 21" fill="none" xmlns="http://www.w3.org/2000/svg">
<path d="M15.693 9.57206C15.5867 9.33712 15.353 9.1875 15.0958 9.1875H12.4708V0.65625C12.4708 0.294 12.1768 0 11.8145 0H9.18953C8.82728 0 8.53328 0.294 8.53328 0.65625V9.1875H5.90828C5.65103 9.1875 5.41741 9.33844 5.3111 9.57206C5.20347 9.807 5.24547 10.0813 5.41478 10.2756L10.0085 15.5256C10.1332 15.6686 10.313 15.75 10.502 15.75C10.691 15.75 10.8708 15.6673 10.9955 15.5256L15.5893 10.2756C15.7599 10.0826 15.7993 9.807 15.693 9.57206Z" fill="#ffffff"/>
<path d="M17.7188 14.4375V18.375H3.28125V14.4375H0.65625V19.6875C0.65625 20.4133 1.24425 21 1.96875 21H19.0312C19.7571 21 20.3438 20.4133 20.3438 19.6875V14.4375H17.7188Z" fill="#ffffff"/>
</svg>
