<svg width="26" height="27" viewBox="0 0 26 27" fill="none" xmlns="http://www.w3.org/2000/svg">
<g clip-path="url(#clip0)">
<path d="M13.0971 0.700928C8.18185 0.700928 4.1875 4.69538 4.1875 9.61049C4.1875 11.2736 4.64793 12.8922 5.52398 14.2881L12.4931 25.693C12.612 25.886 12.7902 26.0049 12.9981 26.0346C13.2801 26.0791 13.5921 25.9603 13.7554 25.6782L20.7445 14.1692C21.5759 12.8031 22.0066 11.2143 22.0066 9.61049C22.0066 4.69538 18.0123 0.700928 13.0971 0.700928ZM13.0971 14.0653C10.6025 14.0653 8.64228 12.0458 8.64228 9.61049C8.64228 7.16031 10.6469 5.15571 13.0971 5.15571C15.5472 5.15571 17.5518 7.16031 17.5518 9.61049C17.5518 12.0309 15.6214 14.0653 13.0971 14.0653Z" fill="#F16036"/>
<path d="M13.0977 0.700928V5.15571C15.5478 5.15571 17.5524 7.16031 17.5524 9.61048C17.5524 12.0309 15.622 14.0653 13.0977 14.0653V26.0432C13.351 26.0491 13.6116 25.9276 13.756 25.6782L20.745 14.1692C21.5765 12.8031 22.0072 11.2143 22.0072 9.61048C22.0072 4.69538 18.0129 0.700928 13.0977 0.700928Z" fill="#FF7A00"/>
</g>
<defs>
<clipPath id="clip0">
<rect width="25.3427" height="25.3427" fill="white" transform="translate(0.425781 0.700928)"/>
</clipPath>
</defs>
</svg>
