<svg width="21" height="18" viewBox="0 0 21 18" fill="none" xmlns="http://www.w3.org/2000/svg">
<path d="M16.154 9.1129C16.154 8.88522 16.0603 8.67093 15.8996 8.51022L8.61384 1.2245C8.45313 1.06379 8.23884 0.97004 8.01116 0.97004C7.54241 0.97004 7.15402 1.35843 7.15402 1.82718V5.68433H1.15402C0.685268 5.68433 0.296875 6.07272 0.296875 6.54147V11.6843C0.296875 12.1531 0.685268 12.5415 1.15402 12.5415H7.15402V16.3986C7.15402 16.8674 7.54241 17.2558 8.01116 17.2558C8.23884 17.2558 8.45313 17.162 8.61384 17.0013L15.8996 9.71558C16.0603 9.55486 16.154 9.34058 16.154 9.1129ZM20.8683 4.39861C20.8683 2.26915 19.1406 0.541469 17.0112 0.541469H12.7254C12.1228 0.541469 12.2969 1.45218 12.2969 1.82718C12.2969 2.32272 12.8192 2.25575 13.154 2.25575H17.0112C18.1897 2.25575 19.154 3.22004 19.154 4.39861V13.8272C19.154 15.0058 18.1897 15.97 17.0112 15.97H12.7254C12.1228 15.97 12.2969 16.8808 12.2969 17.2558C12.2969 17.4834 12.4978 17.6843 12.7254 17.6843H17.0112C19.1406 17.6843 20.8683 15.9566 20.8683 13.8272V4.39861Z" fill="white"/>
</svg>
