<svg width="221" height="44" viewBox="0 0 221 44" fill="none" xmlns="http://www.w3.org/2000/svg">
<path fill-rule="evenodd" clip-rule="evenodd" d="M50.484 26.061C50.4423 26.1623 50.3989 26.2619 50.3539 26.3615C50.3266 26.4242 50.2993 26.4868 50.2704 26.5495C49.2124 28.9075 47.7986 31.1039 46.0946 33.0511L45.934 33.2343L45.7878 33.3949L45.5758 33.6263L45.5565 33.6455C45.4859 33.7226 45.4152 33.8062 45.3413 33.8753L45.1389 34.0858C45.1229 34.1019 45.1067 34.1195 45.0891 34.1356C45.0216 34.2063 44.9525 34.2754 44.8835 34.3461L44.649 34.5774C44.4884 34.7301 44.3278 34.8811 44.1672 35.0289C44.0065 35.1767 43.87 35.3037 43.719 35.437L43.5231 35.6073C43.393 35.7214 43.2613 35.8339 43.1296 35.9432C42.9979 36.0525 42.8293 36.1923 42.6766 36.3128C40.5684 38.0059 38.2048 39.3657 35.6796 40.3292C35.7053 40.2071 35.7294 40.0849 35.755 39.9628C35.7807 39.8407 35.7952 39.7475 35.8161 39.6415C35.8161 39.619 35.8241 39.5981 35.8274 39.5757C35.8482 39.4648 35.8675 39.3539 35.8868 39.2415C35.906 39.129 35.9221 39.031 35.9381 38.9202C35.9381 38.8736 35.9526 38.8285 35.9591 38.782C35.9735 38.6904 35.988 38.5972 36.0008 38.504C36.0361 38.2598 36.0666 38.014 36.0956 37.7682C36.0956 37.7505 36.0956 37.7345 36.0956 37.7168C36.1213 37.4967 36.1438 37.2765 36.163 37.0548V37.0114C36.1823 36.788 36.2 36.5663 36.2145 36.3429C36.2145 36.314 36.2145 36.2835 36.2145 36.2546C36.2145 36.1534 36.2273 36.0522 36.2321 35.9509C36.2305 35.9449 36.2303 35.9392 36.2303 35.9336C36.2303 35.928 36.2305 35.9223 36.2309 35.9168L36.2453 35.5793C36.2453 35.56 36.2453 35.5408 36.2453 35.5215C36.2453 35.4058 36.2534 35.2902 36.255 35.1728C36.2566 35.0556 36.255 34.9559 36.263 34.8515V34.776C36.263 34.6619 36.263 34.5462 36.263 34.4306C36.263 34.3149 36.263 34.204 36.263 34.09V34.0465C36.263 33.9405 36.263 33.8345 36.263 33.7252C36.263 33.6159 36.263 33.5452 36.255 33.4537C36.255 33.3895 36.255 33.3236 36.255 33.2592C36.167 31.0738 35.822 28.899 35.2402 26.7903C37.9494 26.1475 40.7236 25.762 43.503 25.6644C43.9352 25.6529 44.3772 25.6436 44.81 25.6436C46.6992 25.6436 48.6026 25.7879 50.4686 26.0672L50.484 26.0611V26.061Z" fill="#F16036"/>
<path fill-rule="evenodd" clip-rule="evenodd" d="M28.5564 14.8639L28.3958 14.7032L28.1549 14.4541L27.9284 14.2228H27.9187L27.7694 14.075C27.6409 13.9481 27.5108 13.8212 27.3807 13.6974L27.1622 13.4933C27.0996 13.4339 27.0386 13.376 26.9743 13.3198C26.9534 13.2989 26.9293 13.2781 26.9069 13.2587C26.8555 13.2105 26.8056 13.1639 26.7462 13.1189C26.6868 13.0739 26.6418 13.0241 26.5856 12.9775C26.3447 12.7633 26.1011 12.555 25.8548 12.3525L25.6765 12.2079L25.4003 11.9862L25.2798 11.893C25.2123 11.8384 25.1448 11.7854 25.0758 11.7324C25.0067 11.6794 24.928 11.6183 24.8525 11.5717L24.5843 11.342L24.3386 11.1652C23.7635 10.7538 23.1709 10.3624 22.5605 9.99065C27.5534 3.6816 35.1585 0 43.2038 0C44.6791 0 46.1545 0.125409 47.6074 0.369729C48.6022 1.74645 49.4691 3.22931 50.178 4.7702C50.1411 4.68662 50.1025 4.60954 50.064 4.52282C50.1507 4.7075 50.2358 4.89233 50.3177 5.07715C50.3691 5.19118 50.4189 5.30527 50.4687 5.42097C50.5185 5.5366 50.5779 5.6796 50.6293 5.80982C50.6808 5.93998 50.7385 6.0813 50.7899 6.21788L50.8815 6.4557C50.9088 6.52636 50.9345 6.59717 50.9602 6.66936C51.1018 7.05084 51.2337 7.43656 51.3557 7.82644C51.3847 7.91476 51.412 8.00477 51.4393 8.09477C51.4667 8.18478 51.4987 8.28924 51.5261 8.3872L51.5357 8.41939L51.6176 8.71021C51.6465 8.81306 51.6738 8.91592 51.7011 9.0187C51.7285 9.12155 51.7542 9.22119 51.7798 9.32397C51.8055 9.42682 51.8329 9.5361 51.8569 9.6453C51.8569 9.66778 51.8681 9.69187 51.873 9.71596C51.8781 9.73385 51.8826 9.75224 51.8859 9.77064H51.8858C50.8908 9.69647 49.88 9.65742 48.8792 9.65742C46.7406 9.65742 44.5923 9.82838 42.483 10.1703C39.2017 10.7026 35.9754 11.6061 32.8962 12.8523C31.4185 13.4461 29.966 14.1264 28.5596 14.8644L28.5564 14.8639L28.5564 14.8639Z" fill="#F16036"/>
<path fill-rule="evenodd" clip-rule="evenodd" d="M51.3078 23.8632C51.7636 22.4509 52.1006 20.9942 52.3073 19.5248C52.3426 19.2789 52.3747 19.0315 52.4021 18.7841C52.4294 18.5366 52.4551 18.286 52.476 18.037C52.4953 17.8216 52.5113 17.6047 52.5242 17.3943C52.5242 17.285 52.537 17.1758 52.5418 17.073C52.5466 16.9701 52.5498 16.8882 52.5531 16.795C52.5531 16.7324 52.5531 16.6697 52.5531 16.607C52.5531 16.5861 52.5531 16.5668 52.5531 16.5476V16.3483C52.5531 16.2696 52.5531 16.1877 52.5531 16.1105C52.5531 15.9948 52.5531 15.8775 52.5531 15.7603C52.5531 15.5819 52.5531 15.4035 52.5531 15.2253C52.5531 15.1433 52.5531 15.0645 52.5531 14.9778C52.5531 14.8911 52.5531 14.8171 52.545 14.74C52.5371 14.6629 52.5371 14.5456 52.5322 14.4492C52.5274 14.3527 52.5318 14.2389 52.5318 14.1394V14.088C52.5318 13.9899 52.5205 13.8919 52.5125 13.7923L52.4884 13.4709L52.4595 13.1496L52.4258 12.8283C52.413 12.7206 52.4017 12.6129 52.3872 12.5069C52.3727 12.4009 52.3615 12.2933 52.3455 12.1856C52.3455 12.1647 52.3455 12.1422 52.3375 12.1214V12.1213C51.1987 12.0188 50.0455 11.9636 48.8968 11.9636C46.8936 11.9636 44.8904 12.1245 42.9148 12.4416C39.8074 12.9404 36.748 13.7896 33.8282 14.9601C32.4662 15.5048 31.2118 16.0847 30.1052 16.6551L30.1035 16.6539C31.9913 19.0375 33.498 21.7267 34.5433 24.5839L34.5429 24.5832C37.4332 23.8854 40.4128 23.4681 43.3869 23.3597C43.8564 23.346 44.3523 23.3361 44.8286 23.3361C46.9941 23.3361 49.1644 23.5179 51.3003 23.8617L51.2983 23.8601L51.308 23.8634L51.3078 23.8632Z" fill="#F16036"/>
<path fill-rule="evenodd" clip-rule="evenodd" d="M33.9861 34.0929C33.9861 34.2021 33.9861 34.3114 33.9861 34.4143C33.9861 34.7003 33.9861 34.9863 33.9733 35.2706C33.9733 35.3412 33.9733 35.4136 33.9653 35.4843C33.9572 35.5549 33.9653 35.6015 33.9572 35.661C33.9492 35.7204 33.9492 35.8217 33.9444 35.91C33.9396 35.9984 33.9444 36.0354 33.9332 36.098C33.9251 36.2378 33.9139 36.376 33.9043 36.5142C33.9043 36.564 33.8962 36.6138 33.8914 36.6652C33.8689 36.9239 33.8449 37.1825 33.8144 37.4412C33.8047 37.5183 33.7951 37.6019 33.7871 37.6726C33.7871 37.7207 33.7758 37.769 33.7678 37.8172C33.7517 37.9505 33.7325 38.0822 33.7131 38.2157C33.7019 38.3008 33.6891 38.3876 33.6762 38.4727C33.6554 38.6045 33.6329 38.7363 33.6104 38.868C33.5992 38.9372 33.5879 39.0062 33.5751 39.0769C33.5751 39.1074 33.5638 39.138 33.5574 39.17C33.5269 39.3307 33.4963 39.501 33.4626 39.6649C33.4192 39.877 33.3743 40.089 33.3261 40.3075C28.0338 36.6892 23.3422 31.8369 20.1926 28.2024C17.9376 25.6076 15.7824 22.8566 13.8292 20.0268C13.6206 19.6866 13.252 19.4825 12.8558 19.4825C12.2207 19.4825 11.7057 19.9977 11.7057 20.6329C11.7057 20.8712 11.7799 21.1039 11.9177 21.2984C13.9217 24.2059 16.1084 27.0248 18.4304 29.6859C21.5095 33.2331 26.0165 37.9184 31.169 41.5978C30.488 41.7243 29.8 41.8244 29.1051 41.8983C28.8915 41.9224 28.6746 41.9432 28.4627 41.9593L28.0306 41.9915L27.87 42.0011C27.7848 42.0011 27.6997 42.0108 27.613 42.0156L27.3882 42.0252H27.2098C27.0155 42.0332 26.8212 42.0365 26.6252 42.0381H26.304C26.3024 42.0381 26.2895 42.0381 26.2864 42.0381C11.7745 42.0381 0.00642145 30.2723 0 15.7552C0 15.646 0 15.5367 0 15.4338C0 15.331 0 15.2587 0 15.1704V15.1222C0 15.0499 0 14.9792 0 14.9085C0 14.8378 0 14.7655 0 14.6948C0 14.5519 0.0112375 14.4104 0.0209427 14.2691C0.0209427 14.2032 0.0209427 14.1373 0.0321802 14.0715C0.0418124 13.9108 0.05305 13.7598 0.0658929 13.6055C0.188776 12.0626 0.451545 10.527 0.845808 9.02973C3.07785 8.43474 5.38585 8.12793 7.69713 8.12793C11.8871 8.12793 16.019 9.12572 19.7473 11.0342L20.0268 11.1804C20.2372 11.293 20.4475 11.4086 20.6548 11.5275L20.7865 11.6015C20.9199 11.6803 21.0532 11.7622 21.1865 11.8376L21.3615 11.9437L21.5323 12.0503C21.6463 12.121 21.7603 12.1917 21.8728 12.2657C21.9274 12.2988 21.9809 12.3343 22.0333 12.3718L22.194 12.481L22.4687 12.6675C22.5329 12.7092 22.5971 12.7542 22.6598 12.7992L22.7384 12.8538L22.8991 12.9695L22.936 12.9969L23.1127 13.1238L23.328 13.2845L23.5191 13.4274C23.6636 13.5367 23.8066 13.6476 23.9495 13.7601C24.025 13.8195 24.1102 13.879 24.176 13.9417C24.2418 14.0043 24.3671 14.1024 24.4619 14.1746C24.5567 14.247 24.6531 14.3354 24.7478 14.4157L24.8539 14.5057L25.0916 14.7145C25.2522 14.8543 25.4128 14.9973 25.5622 15.1403C25.7116 15.2833 25.8834 15.4407 26.044 15.5934C26.2047 15.746 26.3236 15.8682 26.4616 16.0079C26.4656 16.0139 26.4705 16.0194 26.4761 16.0239L26.5403 16.0898L26.7378 16.2954L26.9578 16.5284L26.9691 16.5429C27.0333 16.6103 27.0976 16.6794 27.1586 16.7501C27.2197 16.8208 27.2903 16.8947 27.3545 16.9671C27.5912 17.2305 27.8199 17.4983 28.0404 17.7704C29.8615 19.9848 31.3109 22.4934 32.3153 25.1769C32.5846 25.8949 32.8214 26.624 33.0259 27.3641C33.5574 29.2956 33.8719 31.2899 33.9522 33.2905C33.9522 33.3644 33.9522 33.4383 33.9618 33.5122C33.9715 33.5862 33.9618 33.6617 33.9618 33.7371C33.9618 33.7741 33.9618 33.8127 33.9618 33.8528C33.9847 33.9389 33.9847 34.0159 33.9864 34.0931L33.9861 34.0929Z" fill="#F9CA0C"/>
<path d="M69.1896 42.1779H70.6046L70.9227 37.8215C70.9666 37.3058 70.9337 36.6035 70.9337 36.6035H70.9556C70.9556 36.6035 71.208 37.3717 71.3835 37.8215L72.6448 40.8392H73.8735L75.1349 37.8215C75.3104 37.3717 75.5627 36.6145 75.5627 36.6145H75.5847C75.5847 36.6145 75.5517 37.3058 75.5957 37.8215L75.9137 42.1779H77.3287L76.6925 34.387H75.1897L73.654 38.2386C73.4785 38.6994 73.2701 39.3798 73.2701 39.3798H73.2481C73.2481 39.3798 73.0397 38.6994 72.8642 38.2386L71.3285 34.387H69.8257L69.1895 42.1779H69.1896Z" fill="#F16036"/>
<path d="M78.9199 42.1779H80.324L83.2857 37.6899C83.571 37.229 83.9329 36.4829 83.9329 36.4829H83.9549C83.9549 36.4829 83.8781 37.229 83.8781 37.6899V42.1779H85.2821V34.387H83.8781L80.9383 38.875C80.6531 39.3359 80.2802 40.093 80.2802 40.093H80.2582C80.2582 40.093 80.335 39.3468 80.335 38.886V34.387H78.92V42.1779H78.9199Z" fill="#F16036"/>
<path d="M87.1797 42.1779H88.5947V38.908H92.1597V42.1779H93.5638V34.387H92.1597V37.6899H88.5947V34.387H87.1797V42.1779Z" fill="#F16036"/>
<path d="M95.4512 42.1779H100.289V40.9598H96.8662V38.864H99.4879V37.646H96.8662V35.605H100.113V34.387H95.4512V42.1779Z" fill="#F16036"/>
<path d="M101.691 42.1779H103.106V39.4894H104.697C106.156 39.4894 107.176 38.436 107.176 36.9217C107.176 35.4075 106.156 34.387 104.697 34.387H101.691V42.1779ZM103.106 38.2605V35.605H104.456C105.256 35.605 105.739 36.1207 105.739 36.9218C105.739 37.7338 105.256 38.2605 104.434 38.2605H103.106Z" fill="#F16036"/>
<path d="M107.154 42.1779H108.602L109.26 40.1808H111.992L112.661 42.1779H114.109L111.378 34.387H109.886L107.154 42.1779ZM109.611 39.0286L110.313 36.9438C110.445 36.5048 110.62 35.7367 110.62 35.7367H110.642C110.642 35.7367 110.818 36.5048 110.95 36.9438L111.641 39.0286H109.611Z" fill="#F16036"/>
<path d="M114.35 40.9709V42.2657C116.511 42.1889 117.377 40.3125 117.377 36.5377V35.605H119.428V42.1779H120.843V34.387H116.028V36.5158C116.028 39.5334 115.501 40.8173 114.35 40.9709H114.35Z" fill="#F16036"/>
<path d="M122.731 42.1779H125.692C127.118 42.1779 128.105 41.1574 128.105 39.665C128.105 38.1069 127.085 37.1193 125.67 37.1193H124.146V34.387H122.73V42.1779H122.731ZM124.146 40.9599V38.3373H125.418C126.197 38.3373 126.668 38.864 126.668 39.6651C126.668 40.4551 126.219 40.9599 125.44 40.9599H124.146Z" fill="#F16036"/>
<path d="M129.346 42.1779H130.761V38.908H134.326V42.1779H135.73V34.387H134.326V37.6899H130.761V34.387H129.346V42.1779Z" fill="#F16036"/>
<path d="M143.925 42.1779H145.329V34.387H143.925V42.1779ZM137.617 42.1779H140.513C141.928 42.1779 142.915 41.1574 142.915 39.665C142.915 38.1069 141.906 37.1193 140.48 37.1193H139.032V34.387H137.617V42.1779ZM139.032 40.9599V38.3373H140.239C141.018 38.3373 141.478 38.864 141.478 39.6651C141.478 40.4551 141.04 40.9599 140.261 40.9599H139.032Z" fill="#F16036"/>
<path d="M147.225 42.1779H152.062V40.9598H148.64V38.864H151.261V37.646H148.64V35.605H151.887V34.387H147.225V42.1779Z" fill="#F16036"/>
<path d="M156 41.7718C156.472 42.1011 156.966 42.3095 157.558 42.3095C158.688 42.3095 159.225 41.3768 159.554 40.5429L161.956 34.387H160.476L159.225 37.8764C159.05 38.3811 158.907 38.8969 158.907 38.8969H158.885C158.885 38.8969 158.699 38.3811 158.446 37.8654L156.79 34.387H155.232L158.282 40.4112C158.117 40.8392 157.898 41.0915 157.503 41.0915C157.141 41.0915 156.823 40.8611 156.626 40.7075L156 41.7718Z" fill="#F16036"/>
<path d="M163.778 40.9598C164.59 39.643 164.787 37.7118 164.787 36.1866V35.6049H166.871V40.9598H163.778ZM161.529 40.9598V43.7141H162.835V42.1778H167.892V43.7141H169.153V40.9598H168.286V34.387H163.449V36.0878C163.449 37.668 163.284 39.5005 162.319 40.9599H161.529V40.9598Z" fill="#F16036"/>
<path d="M169.92 38.2277C169.92 40.5211 171.653 42.3097 173.946 42.3097C176.238 42.3097 177.971 40.5211 177.971 38.2277C177.971 36.0001 176.238 34.2554 173.946 34.2554C171.653 34.2554 169.92 36.0001 169.92 38.2277ZM171.379 38.2277C171.379 36.7134 172.52 35.5503 173.946 35.5503C175.372 35.5503 176.512 36.7134 176.512 38.2277C176.512 39.8078 175.372 41.0149 173.946 41.0149C172.52 41.0149 171.379 39.8078 171.379 38.2277Z" fill="#F16036"/>
<path d="M179.398 42.1778H182.404C183.819 42.1778 184.806 41.2122 184.806 39.8076C184.806 38.3262 183.797 37.4045 182.371 37.4045H180.813V35.6049H184.181V34.387H179.398V42.1779V42.1778ZM180.813 40.9598V38.6226H182.13C182.909 38.6226 183.369 39.0945 183.369 39.8077C183.369 40.51 182.931 40.9599 182.152 40.9599H180.814L180.813 40.9598Z" fill="#F16036"/>
<path d="M186.156 42.1779H187.571V39.4894H189.162C190.621 39.4894 191.641 38.436 191.641 36.9217C191.641 35.4075 190.621 34.387 189.162 34.387H186.156V42.1779ZM187.571 38.2605V35.605H188.92C189.721 35.605 190.204 36.1207 190.204 36.9218C190.204 37.7338 189.721 38.2605 188.899 38.2605H187.571Z" fill="#F16036"/>
<path d="M192.869 42.1779H197.707V40.9598H194.284V38.864H196.906V37.646H194.284V35.605H197.531V34.387H192.869V42.1779Z" fill="#F16036"/>
<path d="M199.109 42.1779H200.524V38.908H204.089V42.1779H205.493V34.387H204.089V37.6899H200.524V34.387H199.109V42.1779Z" fill="#F16036"/>
<path d="M207.381 42.1779H208.785L211.747 37.6899C212.032 37.229 212.394 36.4829 212.394 36.4829H212.416C212.416 36.4829 212.339 37.229 212.339 37.6899V42.1779H213.743V34.387H212.339L209.399 38.875C209.114 39.3359 208.741 40.093 208.741 40.093H208.719C208.719 40.093 208.796 39.3468 208.796 38.886V34.387H207.381V42.1779H207.381Z" fill="#F16036"/>
<path d="M214.883 42.1779H216.462L218.152 39.27H219.292V42.1779H220.708V34.387H218.185C217.417 34.387 217.033 34.4528 216.704 34.5954C215.947 34.9136 215.398 35.6489 215.398 36.7462C215.398 37.7337 215.826 38.5897 216.781 39.0066V39.0286C216.781 39.0286 216.704 39.1384 216.528 39.4346L214.883 42.1779H214.883ZM218.064 38.085C217.307 38.085 216.835 37.6241 216.835 36.8011C216.835 36.3841 217 36 217.318 35.8025C217.515 35.6819 217.79 35.605 218.294 35.605H219.292V38.085H218.064H218.064Z" fill="#F16036"/>
<path fill-rule="evenodd" clip-rule="evenodd" d="M69.1895 3.28589H74.7711V12.0906H77.0669L81.7877 3.28589H87.7826L81.6269 14.1948V14.2609L88.1299 26.1H81.8824L77.0669 16.8474H74.7711V26.1H69.1895V3.28589Z" fill="url(#paint0_linear)"/>
<path fill-rule="evenodd" clip-rule="evenodd" d="M95.9788 3.28589H101.848L109.596 26.0971L103.856 26.0971L102.453 21.3115H95.3389L93.9701 26.0971H88.2305L95.9788 3.28589ZM101.144 16.8446L99.8702 12.4092C99.4541 10.9738 98.9433 8.4848 98.9433 8.4848H98.8801C98.8801 8.4848 98.3693 10.9738 97.956 12.4092L96.6474 16.8446H101.144H101.144Z" fill="url(#paint1_linear)"/>
<path fill-rule="evenodd" clip-rule="evenodd" d="M110.677 22.589L119.481 10.1154C119.989 9.36383 120.578 8.66452 121.234 8.03923V7.97609C120.674 8.04193 120.105 8.07441 119.54 8.07441C119.522 8.07441 119.498 8.07441 119.48 8.07441L111.087 8.07434V3.28589H128.306V6.73083L119.472 19.2675C118.965 20.0198 118.375 20.718 117.717 21.3424V21.4055C118.279 21.3447 118.846 21.3112 119.412 21.3112C119.431 21.3112 119.455 21.3112 119.473 21.3112L128.466 21.3115V26.097H110.674L110.677 22.589Z" fill="url(#paint2_linear)"/>
<path fill-rule="evenodd" clip-rule="evenodd" d="M142.475 2.90405C145.537 2.90405 148.788 3.92601 151.024 6.12796L148.441 10.3394C146.972 9.06193 144.77 8.00829 142.73 8.00829C138.17 8.00829 136.287 11.2322 136.287 14.5192C136.287 17.901 138.328 21.3775 142.73 21.3775C144.994 21.3775 147.227 20.1345 148.791 18.5699L151.661 22.655C149.315 25.0994 146.073 26.4835 142.684 26.4835C142.616 26.4835 142.545 26.4821 142.478 26.4821C135.143 26.4821 130.52 21.4094 130.52 14.6458C130.516 8.00836 135.426 2.90413 142.475 2.90413L142.475 2.90405Z" fill="url(#paint3_linear)"/>
<path fill-rule="evenodd" clip-rule="evenodd" d="M154.496 3.28589H160.078V12.4093H168.371V3.28589H173.953V26.0971L168.371 26.0971V17.166H160.078V26.1H154.496V3.28589Z" fill="url(#paint4_linear)"/>
<path fill-rule="evenodd" clip-rule="evenodd" d="M178.734 3.28589H193.023V8.07149H184.316V12.2168H191.27V17.0025H184.316V21.3087H193.471V26.0942H178.734V3.28589Z" fill="url(#paint5_linear)"/>
<path fill-rule="evenodd" clip-rule="evenodd" d="M198.042 3.28589H204.103L207.417 12.9202C207.928 14.3873 208.565 16.6839 208.565 16.6839L208.628 16.6838C208.628 16.6838 209.265 14.3872 209.776 12.9202L213.082 3.28589H219.14L221 26.1H215.409L214.706 15.8255C214.674 15.1924 214.653 14.5481 214.653 13.912C214.653 13.2761 214.674 12.6318 214.707 12L214.643 11.9987C214.643 11.9987 213.88 14.3901 213.369 15.8254L210.976 22.4282H206.192L203.801 15.8254C203.29 14.39 202.524 11.9987 202.524 11.9987H202.461C202.494 12.6318 202.514 13.276 202.514 13.912C202.514 14.548 202.494 15.1923 202.46 15.8241L201.772 26.1H196.145L198.041 3.28589H198.042Z" fill="url(#paint6_linear)"/>
<defs>
<linearGradient id="paint0_linear" x1="78.6596" y1="26.2521" x2="78.6596" y2="3.57299" gradientUnits="userSpaceOnUse">
<stop stop-color="#333333"/>
<stop offset="1" stop-color="#4D4D4D"/>
</linearGradient>
<linearGradient id="paint1_linear" x1="98.9131" y1="26.2492" x2="98.9131" y2="3.57295" gradientUnits="userSpaceOnUse">
<stop stop-color="#333333"/>
<stop offset="1" stop-color="#4D4D4D"/>
</linearGradient>
<linearGradient id="paint2_linear" x1="119.57" y1="26.2491" x2="119.57" y2="3.57295" gradientUnits="userSpaceOnUse">
<stop stop-color="#333333"/>
<stop offset="1" stop-color="#4D4D4D"/>
</linearGradient>
<linearGradient id="paint3_linear" x1="141.09" y1="26.6407" x2="141.09" y2="3.20078" gradientUnits="userSpaceOnUse">
<stop stop-color="#333333"/>
<stop offset="1" stop-color="#4D4D4D"/>
</linearGradient>
<linearGradient id="paint4_linear" x1="164.225" y1="26.2521" x2="164.225" y2="3.57299" gradientUnits="userSpaceOnUse">
<stop stop-color="#333333"/>
<stop offset="1" stop-color="#4D4D4D"/>
</linearGradient>
<linearGradient id="paint5_linear" x1="186.102" y1="26.2463" x2="186.102" y2="3.57291" gradientUnits="userSpaceOnUse">
<stop stop-color="#333333"/>
<stop offset="1" stop-color="#4D4D4D"/>
</linearGradient>
<linearGradient id="paint6_linear" x1="208.572" y1="26.2521" x2="208.572" y2="3.57299" gradientUnits="userSpaceOnUse">
<stop stop-color="#333333"/>
<stop offset="1" stop-color="#4D4D4D"/>
</linearGradient>
</defs>
</svg>
