<svg width="33" height="33" viewBox="0 0 33 33" fill="none" xmlns="http://www.w3.org/2000/svg">
<g clip-path="url(#clip0)">
<path d="M30.1608 7.21799H24.428C24.0833 3.18036 20.6874 0 16.5622 0C12.4369 0 9.04081 3.18036 8.69614 7.21799H2.96459C1.36535 7.21799 0.0644531 8.51889 0.0644531 10.1181V30.0963C0.0644531 31.6956 1.36535 32.9965 2.96459 32.9965H16.967C16.9915 32.9982 17.0161 33 17.0408 33C17.0655 33 17.0901 32.9982 17.1148 32.9965H30.1608C31.76 32.9965 33.0609 31.6956 33.0609 30.0963V10.1181C33.0609 8.51889 31.76 7.21799 30.1608 7.21799ZM18.5995 29.4707L20.192 31.0631H17.4378L1.9978 15.616V12.8405L15.8645 26.7357C16.0458 26.9172 16.2918 27.0195 16.5483 27.0195H16.5488C16.8051 27.0195 17.0509 26.9177 17.2324 26.7365L31.1273 12.8413V15.5453L18.5988 28.1043C18.2219 28.482 18.2224 29.0935 18.5995 29.4707ZM1.9978 18.351L6.00169 22.3567L1.9978 26.3606V18.351ZM31.1276 18.2828V26.5841L26.9819 22.4385L31.1276 18.2828ZM16.5622 1.93334C19.8495 1.93334 22.5238 4.60789 22.5238 7.89526C22.5238 10.6116 20.6902 12.985 18.0645 13.6663C17.7662 13.7439 17.5224 13.9591 17.4089 14.2457L16.5619 16.3812L15.7152 14.2457C15.6017 13.9589 15.358 13.7436 15.0594 13.6663C12.4339 12.9848 10.6003 10.6116 10.6003 7.89526C10.6003 4.60789 13.2746 1.93334 16.5622 1.93334ZM2.96459 9.15134H8.76688C9.23115 12.0429 11.2733 14.4707 14.0916 15.396L15.6634 19.3604C15.8094 19.7287 16.1656 19.9706 16.5619 19.9706C16.9585 19.9706 17.3145 19.7287 17.4608 19.3604L19.0326 15.396C21.8509 14.4707 23.8932 12.0429 24.3572 9.15134H30.1608C30.6903 9.15134 31.1213 9.57935 31.1271 10.1076L16.5493 24.685L1.99855 10.1043C2.0061 9.57758 2.43613 9.15134 2.96459 9.15134ZM1.9978 30.0963V29.0885C2.01995 29.0699 2.04185 29.0507 2.0625 29.0298L7.36855 23.724L14.7044 31.0631H2.96459C2.43159 31.0631 1.9978 30.6293 1.9978 30.0963ZM30.1608 31.0631H22.9262L20.6492 28.7861L25.6163 23.8071L31.1276 29.3184V30.0963C31.1276 30.6293 30.6938 31.0631 30.1608 31.0631Z" fill="#FF7A00"/>
<path d="M16.5622 10.7954C18.1612 10.7954 19.4621 9.49425 19.4621 7.89526C19.4621 6.29601 18.1612 4.99512 16.5622 4.99512C14.963 4.99512 13.6621 6.29601 13.6621 7.89526C13.6621 9.49425 14.963 10.7954 16.5622 10.7954ZM16.5622 6.92846C17.0952 6.92846 17.5288 7.36226 17.5288 7.89526C17.5288 8.42825 17.0952 8.86205 16.5622 8.86205C16.0293 8.86205 15.5955 8.42825 15.5955 7.89526C15.5955 7.36226 16.0293 6.92846 16.5622 6.92846Z" fill="#FF7A00"/>
</g>
<defs>
<clipPath id="clip0">
<rect width="33" height="33" fill="white"/>
</clipPath>
</defs>
</svg>
