<svg width="95" height="95" viewBox="0 0 95 95" fill="none" xmlns="http://www.w3.org/2000/svg">
<path d="M23.75 0C20.4844 0 17.8125 2.67188 17.8125 5.9375V89.0625C17.8125 92.3281 20.4844 95 23.75 95H83.125C86.3906 95 89.0625 92.3281 89.0625 89.0625V23.75L65.3125 0H23.75Z" fill="#E2E5E7"/>
<path d="M71.25 23.75H89.0625L65.3125 0V17.8125C65.3125 21.0781 67.9844 23.75 71.25 23.75Z" fill="#B0B7BD"/>
<path d="M89.0625 41.5625L71.25 23.75H89.0625V41.5625Z" fill="#CAD1D8"/>
<path d="M77.1875 77.1875C77.1875 78.8203 75.8516 80.1562 74.2188 80.1562H8.90625C7.27344 80.1562 5.9375 78.8203 5.9375 77.1875V47.5C5.9375 45.8672 7.27344 44.5312 8.90625 44.5312H74.2188C75.8516 44.5312 77.1875 45.8672 77.1875 47.5V77.1875Z" fill="#F15642"/>
<path d="M18.8848 56.2489C18.8848 55.4651 19.5023 54.6101 20.4968 54.6101H25.9801C29.0676 54.6101 31.8463 56.6764 31.8463 60.6367C31.8463 64.3892 29.0676 66.4792 25.9801 66.4792H22.0168V69.6142C22.0168 70.6592 21.3518 71.2499 20.4968 71.2499C19.713 71.2499 18.8848 70.6592 18.8848 69.6142V56.2489ZM22.0168 57.5996V63.5134H25.9801C27.5713 63.5134 28.8301 62.1092 28.8301 60.6367C28.8301 58.9771 27.5713 57.5996 25.9801 57.5996H22.0168Z" fill="white"/>
<path d="M36.4962 71.2498C35.7124 71.2498 34.8574 70.8223 34.8574 69.7803V56.2962C34.8574 55.4442 35.7124 54.8237 36.4962 54.8237H41.9319C52.7797 54.8237 52.5422 71.2498 42.1457 71.2498H36.4962ZM37.9924 57.7212V68.3553H41.9319C48.3415 68.3553 48.6265 57.7212 41.9319 57.7212H37.9924Z" fill="white"/>
<path d="M56.3944 57.9113V61.6845H62.4477C63.3027 61.6845 64.1577 62.5395 64.1577 63.3678C64.1577 64.1516 63.3027 64.7928 62.4477 64.7928H56.3944V69.7774C56.3944 70.6086 55.8036 71.2469 54.9723 71.2469C53.9273 71.2469 53.2891 70.6086 53.2891 69.7774V56.2933C53.2891 55.4413 53.9303 54.8208 54.9723 54.8208H63.3056C64.3506 54.8208 64.9681 55.4413 64.9681 56.2933C64.9681 57.0533 64.3506 57.9083 63.3056 57.9083H56.3944V57.9113Z" fill="white"/>
<path d="M74.2188 80.1562H17.8125V83.125H74.2188C75.8516 83.125 77.1875 81.7891 77.1875 80.1562V77.1875C77.1875 78.8203 75.8516 80.1562 74.2188 80.1562Z" fill="#CAD1D8"/>
</svg>
