<svg width="119" height="119" viewBox="0 0 119 119" fill="none" xmlns="http://www.w3.org/2000/svg">
<path d="M79.1257 57.1735L54.4157 39.2112C53.5089 38.5539 52.3051 38.4549 51.3111 38.9657C50.3093 39.4726 49.6836 40.5021 49.6836 41.6149V77.5275C49.6836 78.6521 50.3093 79.6778 51.3111 80.1846C51.7348 80.3985 52.1982 80.5054 52.6654 80.5054C53.2753 80.5054 53.893 80.3114 54.4157 79.9272L79.1257 61.9808C79.9058 61.4066 80.3612 60.5196 80.3612 59.5771C80.3652 58.6188 79.8979 57.7358 79.1257 57.1735Z" fill="white"/>
<path d="M59.502 0.00854492C26.6345 0.00854492 0 26.6431 0 59.5105C0 92.3661 26.6345 118.993 59.502 118.993C92.3615 118.993 119 92.3621 119 59.5105C119.004 26.6431 92.3615 0.00854492 59.502 0.00854492ZM59.502 109.065C32.1309 109.065 9.93944 86.8856 9.93944 59.5105C9.93944 32.1474 32.1309 9.94006 59.502 9.94006C86.8691 9.94006 109.057 32.1434 109.057 59.5105C109.061 86.8856 86.8691 109.065 59.502 109.065Z" fill="white"/>
</svg>
