<svg width="15" height="17" viewBox="0 0 15 17" fill="none" xmlns="http://www.w3.org/2000/svg">
<path d="M3.42857 14C3.42857 14.6339 2.91964 15.1429 2.28571 15.1429C1.65179 15.1429 1.14286 14.6339 1.14286 14C1.14286 13.3661 1.65179 12.8571 2.28571 12.8571C2.91964 12.8571 3.42857 13.3661 3.42857 14ZM6.85714 14C6.85714 14.6339 6.34821 15.1429 5.71429 15.1429C5.08036 15.1429 4.57143 14.6339 4.57143 14C4.57143 13.3661 5.08036 12.8571 5.71429 12.8571C6.34821 12.8571 6.85714 13.3661 6.85714 14ZM3.42857 10.5714C3.42857 11.2054 2.91964 11.7143 2.28571 11.7143C1.65179 11.7143 1.14286 11.2054 1.14286 10.5714C1.14286 9.9375 1.65179 9.42857 2.28571 9.42857C2.91964 9.42857 3.42857 9.9375 3.42857 10.5714ZM10.2857 14C10.2857 14.6339 9.77679 15.1429 9.14286 15.1429C8.50893 15.1429 8 14.6339 8 14C8 13.3661 8.50893 12.8571 9.14286 12.8571C9.77679 12.8571 10.2857 13.3661 10.2857 14ZM6.85714 10.5714C6.85714 11.2054 6.34821 11.7143 5.71429 11.7143C5.08036 11.7143 4.57143 11.2054 4.57143 10.5714C4.57143 9.9375 5.08036 9.42857 5.71429 9.42857C6.34821 9.42857 6.85714 9.9375 6.85714 10.5714ZM3.42857 7.14286C3.42857 7.77679 2.91964 8.28571 2.28571 8.28571C1.65179 8.28571 1.14286 7.77679 1.14286 7.14286C1.14286 6.50893 1.65179 6 2.28571 6C2.91964 6 3.42857 6.50893 3.42857 7.14286ZM10.2857 10.5714C10.2857 11.2054 9.77679 11.7143 9.14286 11.7143C8.50893 11.7143 8 11.2054 8 10.5714C8 9.9375 8.50893 9.42857 9.14286 9.42857C9.77679 9.42857 10.2857 9.9375 10.2857 10.5714ZM6.85714 7.14286C6.85714 7.77679 6.34821 8.28571 5.71429 8.28571C5.08036 8.28571 4.57143 7.77679 4.57143 7.14286C4.57143 6.50893 5.08036 6 5.71429 6C6.34821 6 6.85714 6.50893 6.85714 7.14286ZM13.7143 14C13.7143 14.625 13.1964 15.1429 12.5714 15.1429C11.9464 15.1429 11.4286 14.625 11.4286 14V10.5714C11.4286 9.94643 11.9464 9.42857 12.5714 9.42857C13.1964 9.42857 13.7143 9.94643 13.7143 10.5714V14ZM10.2857 7.14286C10.2857 7.77679 9.77679 8.28571 9.14286 8.28571C8.50893 8.28571 8 7.77679 8 7.14286C8 6.50893 8.50893 6 9.14286 6C9.77679 6 10.2857 6.50893 10.2857 7.14286ZM13.7143 4.28571C13.7143 4.59821 13.4554 4.85714 13.1429 4.85714H1.71429C1.40179 4.85714 1.14286 4.59821 1.14286 4.28571V2C1.14286 1.6875 1.40179 1.42857 1.71429 1.42857H13.1429C13.4554 1.42857 13.7143 1.6875 13.7143 2V4.28571ZM13.7143 7.14286C13.7143 7.77679 13.2054 8.28571 12.5714 8.28571C11.9375 8.28571 11.4286 7.77679 11.4286 7.14286C11.4286 6.50893 11.9375 6 12.5714 6C13.2054 6 13.7143 6.50893 13.7143 7.14286ZM14.8571 1.42857C14.8571 0.803571 14.3393 0.285713 13.7143 0.285713H1.14286C0.517857 0.285713 0 0.803571 0 1.42857V15.1429C0 15.7679 0.517857 16.2857 1.14286 16.2857H13.7143C14.3393 16.2857 14.8571 15.7679 14.8571 15.1429V1.42857Z" fill="white"/>
</svg>
