<svg width="15" height="14" viewBox="0 0 15 14" fill="none" xmlns="http://www.w3.org/2000/svg">
<path d="M5.7846 12C5.7846 11.375 5.26674 10.8571 4.64174 10.8571C4.01674 10.8571 3.49888 11.375 3.49888 12C3.49888 12.625 4.01674 13.1429 4.64174 13.1429C5.26674 13.1429 5.7846 12.625 5.7846 12ZM13.7846 12C13.7846 11.375 13.2667 10.8571 12.6417 10.8571C12.0167 10.8571 11.4989 11.375 11.4989 12C11.4989 12.625 12.0167 13.1429 12.6417 13.1429C13.2667 13.1429 13.7846 12.625 13.7846 12ZM14.9275 2.28571C14.9275 1.97321 14.6685 1.71428 14.356 1.71428H3.63281C3.54353 1.28571 3.52567 0.571428 2.92746 0.571428H0.641741C0.329241 0.571428 0.0703125 0.830357 0.0703125 1.14286C0.0703125 1.45536 0.329241 1.71428 0.641741 1.71428H2.46317L4.04353 9.0625C3.90067 9.33929 3.49888 10.0089 3.49888 10.2857C3.49888 10.5982 3.75781 10.8571 4.07031 10.8571H13.2132C13.5257 10.8571 13.7846 10.5982 13.7846 10.2857C13.7846 9.97321 13.5257 9.71429 13.2132 9.71429H4.99888C5.08817 9.53571 5.21317 9.34821 5.21317 9.14286C5.21317 8.92857 5.14174 8.72321 5.0971 8.51786L14.4185 7.42857C14.7042 7.39286 14.9275 7.14286 14.9275 6.85714V2.28571Z" fill="white"/>
</svg>
