<svg width="52" height="52" viewBox="0 0 52 52" fill="none" xmlns="http://www.w3.org/2000/svg">
<path d="M35.1221 6.08875L35.2422 6.24899L35.3622 6.08874C36.7075 4.293 38.5053 3.35259 40.5742 3.35259C44.444 3.35259 47.2797 6.53238 47.2797 10.4505C47.2797 12.4746 46.4983 14.3378 44.7956 16.3211L44.9094 16.4188L44.7956 16.3211C43.3471 18.0086 41.3052 19.7132 38.8674 21.7484C38.0037 22.4695 37.0903 23.2321 36.1359 24.0501C35.6216 24.4909 34.8627 24.491 34.3484 24.0501L34.2507 24.164L34.3484 24.0501C33.3929 23.2312 32.479 22.4682 31.6153 21.747C29.1761 19.7106 27.1366 18.0077 25.6886 16.321C23.9861 14.3377 23.2047 12.4746 23.2047 10.4505C23.2047 6.5314 26.0416 3.35259 29.9102 3.35259C31.979 3.35259 33.7769 4.2931 35.1221 6.08875ZM35.1454 21.1219L35.2422 21.2037L35.339 21.1219C35.9548 20.6018 36.5482 20.1064 37.1291 19.6215L37.1373 19.6146C39.4219 17.7076 41.2666 16.1678 42.5387 14.7387C43.8142 13.3057 44.5328 11.9638 44.5328 10.4506C44.5328 7.98689 42.8419 6.09957 40.5742 6.09957C39.093 6.09957 38.0969 6.97225 37.4739 7.84143C36.8513 8.70998 36.5857 9.59484 36.5632 9.67229L36.5628 9.67372C36.3968 10.2664 35.8575 10.6733 35.2412 10.6733C34.6277 10.6733 34.089 10.2629 33.921 9.67185L33.9207 9.67079C33.8955 9.58445 33.6279 8.69989 33.0051 7.83386C32.3818 6.96716 31.3871 6.09947 29.9102 6.09947C27.6425 6.09947 25.9516 7.98689 25.9516 10.4505C25.9516 11.9637 26.6701 13.3055 27.9456 14.7385C29.2175 16.1674 31.0618 17.7069 33.3459 19.6136L33.3551 19.6213L33.3794 19.6415C33.9526 20.1201 34.5383 20.609 35.1454 21.1219Z" fill="#FF7A00" stroke="white" stroke-width="0.3"/>
<path d="M39.4642 33.7762L39.541 34.023L39.7172 33.8339L44.1948 29.0271C46.9129 26.1092 51.85 28.0273 51.85 32.0396C51.85 33.004 51.5449 33.9201 50.9674 34.69L51.0874 34.7801L50.9674 34.6901L43.6534 44.4418C41.6784 47.075 38.5337 48.6474 35.2422 48.6474H35.239H35.2352H35.2306H35.2253H35.2193H35.2126H35.2051H35.197H35.1881H35.1786H35.1683H35.1574H35.1457H35.1334H35.1204H35.1067H35.0923H35.0772H35.0615H35.0451H35.028H35.0103H34.9919H34.9728H34.9531H34.9327H34.9116H34.8899H34.8676H34.8446H34.821H34.7967H34.7718H34.7463H34.7201H34.6933H34.6659H34.6378H34.6092H34.5799H34.55H34.5195H34.4884H34.4567H34.4243H34.3914H34.3579H34.3238H34.2891H34.2538H34.2179H34.1814H34.1444H34.1068H34.0686H34.0298H33.9905H33.9506H33.9101H33.8691H33.8275H33.7854H33.7427H33.6994H33.6557H33.6113H33.5664H33.521H33.4751H33.4286H33.3816H33.3341H33.286H33.2374H33.1883H33.1387H33.0886H33.038H32.9868H32.9352H32.883H32.8304H32.7773H32.7236H32.6695H32.6149H32.5598H32.5042H32.4481H32.3916H32.3346H32.2771H32.2192H32.1608H32.1019H32.0426H31.9828H31.9225H31.8618H31.8007H31.7391H31.6771H31.6146H31.5517H31.4884H31.4246H31.3604H31.2958H31.2307H31.1653H31.0994H31.0331H30.9664H30.8992H30.8317H30.7638H30.6955H30.6267H30.5576H30.4881H30.4182H30.3479H30.2773H30.2062H30.1348H30.063H29.9908H29.9183H29.8454H29.7721H29.6984H29.6244H29.5501H29.4754H29.4004H29.325H29.2492H29.1731H29.0967H29.02H28.9429H28.8654H28.7877H28.7096H28.6312H28.5525H28.4735H28.3942H28.3145H28.2346H28.1543H28.0737H27.9929H27.9117H27.8303H27.7485H27.6665H27.5842H27.5016H27.4187H27.3356H27.2522H27.1685H27.0845H27.0003H26.9158H26.831H26.746H26.6608H26.5752H26.4895H26.4035H26.3172H26.2307H26.144H26.0571H25.9699H25.8824H25.7948H25.7069H25.6188H25.5305H25.442H25.3533H25.2643H25.1752H25.0858H24.9963H24.9065H24.8166H24.7265H24.6361H24.5456H24.4549H24.3641H24.273H24.1818H24.0904H23.9988H23.9071H23.8152H23.7231H23.6309H23.5385H23.446H23.3533H23.2605H23.1675H23.0744H22.9812H22.8878H22.7943H22.7006H22.6068H22.5129H22.4189H22.3248H22.2305H22.1361H22.0417H21.9471H21.8524H21.7576H21.6627H21.5677H21.4726H21.3774H21.2822H21.1868H21.0914H20.9959H20.9003H20.8047H20.7089H20.6131H20.5173H20.4213H20.3253H20.2293H20.1332H20.0371H19.9409H19.8446H19.7483H19.652H19.5556H19.4592H19.3628H19.2664H19.1699H19.0734H18.9768H18.8803H18.7837H18.6872H18.5906H18.494H18.3974H18.3008H18.2042H18.1076H18.011H17.9145H17.8179H17.7214H17.6249H17.5284H17.4319H17.3355H17.239H17.1427H17.0463H16.95H16.8537H16.7575H16.6613H16.5652H16.4691H16.3731H16.2772H16.1813H16.0854H15.9897H15.894H15.7984H15.7028H15.6073H15.512H15.4166H15.3214H15.2263H15.1313H15.0363H14.9415H14.8467H14.7521H14.6576H14.5631H14.4688H14.3746H14.2805H14.1866H14.0927H13.999H13.9054H13.812H13.7187H13.6255H13.5324H13.4395H13.3468H13.2542H13.1617H13.0694H12.9773H12.8853H12.7935H12.7018H12.6103H12.519H12.4279H12.3369H12.2461H12.1555H12.0651H11.9749H11.8848H11.795H11.7053H11.6159H11.5266H11.4376H11.3488H11.2601H11.1717H11.0835H10.9955H10.9078H10.8202H10.7329H10.6459H10.559H10.4724H10.386H10.2999H10.214H10.1284H10.043H9.95785H9.87297H9.78835H9.70398H9.61989H9.53605H9.45249H9.3692H9.28619H9.20345H9.12099H9.03882H8.95693H8.87533H8.79403H8.71302H8.6323H8.55189H8.47178H8.39197H8.31248H8.23329H8.15442H8.07587H7.99764H7.91973H7.84214H7.76489H7.68796H7.61137H7.53512H7.45921H7.38363H7.30841H7.23353H7.159H7.08483H7.01101H6.93755H6.86446H6.79173H6.71937H6.64738H6.57576H6.50452H6.43365H6.36317H6.29308H6.22337H6.15405H6.08512H6.01659H5.94846H5.88073H5.81341H5.74649H5.67999H5.61389H5.54821H5.48295H5.41811H5.3537H5.28971H5.22615H5.16303H5.10034H5.03808H4.97627H4.9149H4.85398H4.79351H4.73349H4.67393H4.61482H4.55618H4.49799H4.44028H4.38303H4.32626H4.26996H4.21413H4.15879H4.10393H4.04956H3.99567H3.94228H3.88938H3.83698H3.78508H3.73368H3.68279H3.63241H3.58253H3.53317H3.48433H3.43601H3.38821H3.34094H3.29419H3.24798H3.2023H3.15715H3.11255H3.06848H3.02497H2.982H2.93958H2.89771H2.8564H2.81565H2.77546H2.73584H2.69678H2.6583H2.62039H2.58305H2.54629H2.51012H2.47453H2.43952H2.40511H2.37129H2.33806H2.30543H2.27341H2.24199H2.21117H2.18097H2.15138H2.1224H2.09404H2.0663H2.03919H2.0127H1.98685H1.96162H1.93703H1.91308H1.88977H1.8671H1.84508H1.8237H1.80298H1.78292H1.76351H1.74476H1.72668H1.70926H1.69251H1.67643H1.66103H1.6463H1.63225H1.61889H1.60621H1.59422H1.58293H1.57232H1.56242H1.55321H1.54471H1.53691H1.52982H1.52344C0.764937 48.6474 0.15 48.0325 0.15 47.274V32.0396C0.15 31.2811 0.764937 30.6662 1.52344 30.6662H10.4331H10.5013L10.5461 30.6148C12.2605 28.6498 14.5659 27.4096 17.1618 27.0815C20.1543 26.7033 23.1679 27.6285 25.4302 29.6193L25.4302 29.6193C25.5252 29.703 25.6145 29.7836 25.6995 29.8604C25.9236 30.063 26.118 30.2386 26.3093 30.3698C26.585 30.5589 26.8668 30.6662 27.2513 30.6662H35.2422C37.2231 30.6662 38.9044 31.9763 39.4642 33.7762ZM9.34375 45.9005H9.49375V45.7505V33.563V33.413H9.34375H3.04688H2.89687V33.563V45.7505V45.9005H3.04688H9.34375ZM12.2406 45.7505V45.9005H12.3906H35.2422C37.6742 45.9005 39.9967 44.7393 41.4559 42.7937L48.77 33.0418C49.5913 31.9467 48.8087 30.3662 47.4297 30.3662C46.9606 30.3662 46.5248 30.5558 46.2048 30.8994L39.4978 38.0994C38.6647 38.9936 37.4855 39.5067 36.2633 39.5067H25.9717C25.2132 39.5067 24.5982 38.8917 24.5982 38.1332C24.5982 37.3747 25.2132 36.7598 25.9717 36.7598H35.2422C36.1651 36.7598 36.9156 36.0092 36.9156 35.0864C36.9156 34.1635 36.1651 33.4129 35.2422 33.4129H27.2514C26.1756 33.4129 25.1386 33.0216 24.3311 32.311L24.232 32.4236L24.3311 32.311L23.6156 31.6814C21.9441 30.2105 19.7173 29.5271 17.5062 29.8066C15.4142 30.071 13.5723 31.145 12.2716 32.8429L12.2406 32.8833V32.9342V45.7505Z" fill="#FF7A00" stroke="white" stroke-width="0.3"/>
</svg>
