<svg width="52" height="52" viewBox="0 0 52 52" fill="none" xmlns="http://www.w3.org/2000/svg">
<path d="M41.8042 34.2903H36.8301V35.9483H41.8042V34.2903Z" fill="#FF7A00"/>
<path d="M41.8042 34.2903H36.8301V35.9483H41.8042V34.2903Z" stroke="#FF7A00"/>
<path d="M35.1714 34.2903H30.1973V35.9483H35.1714V34.2903Z" fill="#FF7A00"/>
<path d="M35.1714 34.2903H30.1973V35.9483H35.1714V34.2903Z" stroke="#FF7A00"/>
<path d="M28.5406 34.2903H23.5664V35.9483H28.5406V34.2903Z" fill="#FF7A00"/>
<path d="M28.5406 34.2903H23.5664V35.9483H28.5406V34.2903Z" stroke="#FF7A00"/>
<path d="M31.9095 1.08526L31.9095 1.08526L31.9168 1.08526L31.917 1.08526V1.23526C32.579 1.23443 33.2137 1.49868 33.6795 1.96895L31.9095 1.08526ZM31.9095 1.08526C31.2119 1.08559 30.5437 1.36593 30.0546 1.86331M31.9095 1.08526L30.0546 1.86331M31.4424 3.24266L31.4411 3.24395L15.4665 19.2178H20.896L34.6331 5.48146L32.3986 3.24387L32.3963 3.24153L32.3963 3.2415L32.3862 3.23143L31.4424 3.24266ZM31.4424 3.24266C31.6998 2.97897 32.1223 2.97384 32.3861 3.23135L31.4424 3.24266ZM30.0546 1.86331C30.0545 1.86348 30.0543 1.86364 30.0541 1.86381M30.0546 1.86331L30.0541 1.86381M30.0541 1.86381L12.6977 19.2178H3.66872C2.21229 19.2178 1.03164 20.3984 1.03164 21.8548V45.0676C1.03164 46.5241 2.21229 47.7047 3.66872 47.7047H15.8894L18.3188 50.1366C18.319 50.1367 18.3191 50.1368 18.3192 50.137C18.8132 50.6355 19.4862 50.9156 20.1881 50.9147M30.0541 1.86381L50.818 20.1454L50.968 20.1456C50.9668 20.8452 50.6846 21.515 50.1848 22.0046L50.1854 22.004L50.0793 21.898M20.1881 50.9147H20.1879V50.7647L20.1881 50.9147ZM20.1881 50.9147H20.1946C20.8924 50.9145 21.5609 50.6342 22.0502 50.1368L22.0498 50.1371L21.9438 50.031M21.9438 50.031L22.0508 50.1362L24.4847 47.7047M21.9438 50.031L24.4226 47.5547M21.9438 50.031L24.4226 47.5547M24.4847 47.7047H43.462C44.9185 47.7047 46.0991 46.5241 46.0991 45.0676V26.0903M24.4847 47.7047H24.4226V47.5547M24.4847 47.7047L24.5286 47.6608L24.4226 47.5547M46.0991 26.0903L50.1843 22.0051L50.0793 21.898M46.0991 26.0903L46.0552 26.1342L45.9491 26.0282M46.0991 26.0903V26.0282H45.9491M50.0793 21.898L45.9491 26.0282M50.0793 21.898L45.9491 26.0282M45.9491 26.0282V45.0676C45.9491 46.4412 44.8356 47.5547 43.462 47.5547H24.4226M45.9491 26.0282L24.4226 47.5547M33.7861 1.86339C33.786 1.86333 33.786 1.86326 33.7859 1.8632L50.189 18.2688L33.7861 1.86339ZM20.6638 48.756L20.6616 48.7583C20.5382 48.8871 20.3678 48.9602 20.1895 48.9608C20.0076 48.9603 19.8336 48.8869 19.7065 48.7571L19.7056 48.7562L18.6581 47.7047H21.7158L20.6639 48.756L20.6638 48.756ZM48.8065 20.6141L48.8052 20.6155L46.0991 23.3215V21.8548C46.0991 20.3984 44.9185 19.2178 43.462 19.2178H33.0468L40.7064 11.5582L48.8019 19.6537L48.8029 19.6548C48.9334 19.7826 49.0068 19.9576 49.0066 20.1403C49.0065 20.3187 48.9343 20.4896 48.8065 20.6141ZM39.3253 10.1738L30.2814 19.2178H23.6655L36.0174 6.86592L39.3253 10.1738ZM44.1411 45.0676C44.1411 45.4426 43.837 45.7466 43.462 45.7466H3.66872C3.29374 45.7466 2.9897 45.4426 2.9897 45.0676V33.6112H44.1411V45.0676ZM44.1411 31.6532H2.9897V26.979H44.1411V31.6532ZM44.1411 25.021H2.9897V21.8548C2.9897 21.4799 3.29374 21.1758 3.66872 21.1758H43.462C43.837 21.1758 44.1411 21.4799 44.1411 21.8548V25.021Z" fill="#FF7A00" stroke="#FF7A00" stroke-width="0.3"/>
<path d="M9.13377 44.2609C9.2548 44.1563 9.36817 44.0429 9.47284 43.9219C10.5691 45.1988 12.4528 45.4414 13.8368 44.4839C14.7301 43.8594 15.2663 42.8414 15.276 41.7515C15.276 39.92 13.7913 38.4354 11.9599 38.4354C11.7954 38.4331 11.631 38.447 11.4691 38.4768L11.4476 38.4826H11.4235C10.664 38.6088 9.97336 38.9986 9.47284 39.5836C8.27489 38.1983 6.18067 38.0464 4.79546 39.2445C3.41016 40.4424 3.25834 42.5367 4.45639 43.9219C5.65434 45.3072 7.74846 45.459 9.13377 44.2609ZM11.7502 40.1108C11.8193 40.0977 11.8896 40.0919 11.9599 40.0934C12.8757 40.0934 13.618 40.8357 13.618 41.7515C13.6171 42.1022 13.5028 42.4434 13.2922 42.7239C13.2797 42.7409 13.2684 42.7581 13.257 42.7755C13.2411 42.7998 13.2249 42.8245 13.2051 42.8491C13.202 42.8527 13.1982 42.8555 13.1942 42.8584C13.1909 42.8609 13.1875 42.8634 13.1844 42.8665C12.8712 43.2123 12.4265 43.4096 11.9599 43.4095C11.0444 43.3939 10.3147 42.639 10.3304 41.7235C10.3443 40.9105 10.9455 40.2275 11.7502 40.1108ZM6.98576 40.0934C7.90152 40.0934 8.64381 40.8357 8.64381 41.7515C8.64381 42.6672 7.90152 43.4095 6.98576 43.4095C6.06999 43.4095 5.3277 42.6672 5.3277 41.7515C5.3277 40.8357 6.06999 40.0934 6.98576 40.0934Z" fill="#FF7A00"/>
<path d="M9.13377 44.2609C9.2548 44.1563 9.36817 44.0429 9.47284 43.9219C10.5691 45.1988 12.4528 45.4414 13.8368 44.4839C14.7301 43.8594 15.2663 42.8414 15.276 41.7515C15.276 39.92 13.7913 38.4354 11.9599 38.4354C11.7954 38.4331 11.631 38.447 11.4691 38.4768L11.4476 38.4826H11.4235C10.664 38.6088 9.97336 38.9986 9.47284 39.5836C8.27489 38.1983 6.18067 38.0464 4.79546 39.2445C3.41016 40.4424 3.25834 42.5367 4.45639 43.9219C5.65434 45.3072 7.74846 45.459 9.13377 44.2609ZM11.7502 40.1108C11.8193 40.0977 11.8896 40.0919 11.9599 40.0934C12.8757 40.0934 13.618 40.8357 13.618 41.7515C13.6171 42.1022 13.5028 42.4434 13.2922 42.7239C13.2797 42.7409 13.2684 42.7581 13.257 42.7755C13.2411 42.7998 13.2249 42.8245 13.2051 42.8491C13.202 42.8527 13.1982 42.8555 13.1942 42.8584C13.1909 42.8609 13.1875 42.8634 13.1844 42.8665C12.8712 43.2123 12.4265 43.4096 11.9599 43.4095C11.0444 43.3939 10.3147 42.639 10.3304 41.7235C10.3443 40.9105 10.9455 40.2275 11.7502 40.1108ZM6.98576 40.0934C7.90152 40.0934 8.64381 40.8357 8.64381 41.7515C8.64381 42.6672 7.90152 43.4095 6.98576 43.4095C6.06999 43.4095 5.3277 42.6672 5.3277 41.7515C5.3277 40.8357 6.06999 40.0934 6.98576 40.0934Z" stroke="#FF7A00"/>
</svg>
