<svg width="57" height="57" viewBox="0 0 57 57" fill="none" xmlns="http://www.w3.org/2000/svg">
<g clip-path="url(#clip0)">
<path d="M55.0651 26.3303L51.1837 24.6505L47.8877 18.2367C46.9969 16.4805 45.1898 15.3861 43.2173 15.3988H37.5416V13.7953C37.5416 10.8938 35.2255 8.52682 32.324 8.52682H5.19249C2.29099 8.52682 0.000338608 10.9066 0.000338608 13.7953V38.3562C-0.0251131 40.1251 1.38746 41.5759 3.15635 41.6013C3.16908 41.6013 3.1818 41.6013 3.20725 41.6013H3.88172C3.88172 41.7286 3.869 41.7795 3.869 41.8558C3.85627 45.4954 6.79594 48.4606 10.4355 48.4733C14.0751 48.486 17.0403 45.5463 17.053 41.9067C17.053 41.8813 17.053 41.8686 17.053 41.8431C17.053 41.754 17.053 41.7159 17.0403 41.5886H38.9669C38.9669 41.7159 38.9669 41.7668 38.9669 41.8431C38.9542 45.4827 41.8939 48.4478 45.5334 48.4606C49.173 48.4733 52.1382 45.5336 52.1509 41.894C52.1509 41.8686 52.1509 41.8558 52.1509 41.8304C52.1509 41.7413 52.1509 41.7031 52.1509 41.5759H53.7925C55.5614 41.5759 56.9994 40.1378 56.9994 38.369C56.9994 38.3562 56.9994 38.3435 56.9994 38.3181V29.2827C57.0249 28.0356 56.2613 26.8521 55.0651 26.3303ZM10.4737 45.9408C8.23397 45.9408 6.42689 44.1338 6.42689 41.894C6.42689 39.6543 8.23397 37.8472 10.4737 37.8472C12.7135 37.8472 14.5205 39.6543 14.5205 41.894C14.5205 44.121 12.7007 45.9408 10.4737 45.9408ZM34.9964 39.0816H16.4421C15.3732 36.7528 13.0316 35.2638 10.4737 35.2766C7.90309 35.2638 5.57426 36.74 4.50529 39.0816H3.20725C2.81275 39.0816 2.54551 38.7762 2.54551 38.3817V31.8279H34.9964V39.0816ZM34.9964 13.8081V29.2827H2.54551V13.8081C2.54551 12.3191 3.70356 11.0847 5.19249 11.0847H32.324C33.8129 11.0974 35.0092 12.3191 34.9964 13.7953V13.8081ZM37.5416 17.9567H43.2173C44.2227 17.944 45.1644 18.4912 45.6353 19.3947L48.1804 24.3196H37.5416V17.9567ZM45.5716 45.9408C43.3319 45.9408 41.5248 44.1338 41.5248 41.894C41.5248 39.6543 43.3319 37.8472 45.5716 37.8472C47.8114 37.8472 49.6184 39.6543 49.6184 41.894C49.6184 44.121 47.8114 45.9408 45.5716 45.9408ZM54.467 38.3817C54.467 38.7762 54.1998 39.0816 53.8053 39.0816H51.54C50.0002 35.7856 46.0807 34.3603 42.7847 35.9001C41.3848 36.5492 40.2522 37.6818 39.6032 39.0816H37.5416V26.8648H50.0129L54.0598 28.6464C54.3143 28.7737 54.4797 29.0536 54.467 29.3336V38.3817Z" fill="#FF7A00"/>
</g>
<defs>
<clipPath id="clip0">
<rect width="57" height="57" fill="white"/>
</clipPath>
</defs>
</svg>
