<svg width="50" height="50" viewBox="0 0 50 50" fill="none" xmlns="http://www.w3.org/2000/svg">
<g clip-path="url(#clip0)">
<path d="M41.113 44.1403H39.0886L37.6238 41.2106H38.1834C38.9923 41.2106 39.6482 40.5548 39.6482 39.7458C39.6482 38.9368 38.9923 38.2809 38.1834 38.2809H36.159L34.6941 35.3513H36.7185C39.1417 35.3513 41.113 33.3799 41.113 30.9568V4.3945C41.113 1.97137 39.1417 0 36.7185 0H13.2812C10.8581 0 8.88671 1.97137 8.88671 4.3945V30.9568C8.88671 33.3799 10.8581 35.3513 13.2812 35.3513H15.3055L13.8407 38.2809H11.8164C11.0074 38.2809 10.3515 38.9368 10.3515 39.7458C10.3515 40.5548 11.0074 41.2106 11.8164 41.2106H12.3758L10.911 44.1403H8.88671C8.07773 44.1403 7.42188 44.7961 7.42188 45.6051C7.42188 46.4141 8.07773 47.0699 8.88671 47.0699H9.44618L9.0413 47.8797C8.67948 48.6033 8.97284 49.4831 9.69637 49.845C10.4214 50.2075 11.3006 49.9122 11.6617 49.1899L12.7216 47.0699H37.278L38.3379 49.1898C38.6998 49.9137 39.5797 50.2067 40.3032 49.8449C41.0268 49.4831 41.3201 48.6032 40.9582 47.8796L40.5535 47.0699H41.113C41.922 47.0699 42.5779 46.4141 42.5779 45.6051C42.5779 44.7961 41.922 44.1403 41.113 44.1403ZM11.8164 4.3945C11.8164 3.58679 12.4735 2.92966 13.2812 2.92966H36.7185C37.5262 2.92966 38.1834 3.58679 38.1834 4.3945V5.85933H11.8164V4.3945ZM11.8164 8.78899H38.1834V20.703H11.8164V8.78899ZM13.2812 32.4216C12.4735 32.4216 11.8164 31.7645 11.8164 30.9568V23.6326H38.1834V30.9568C38.1834 31.7645 37.5262 32.4216 36.7185 32.4216H13.2812ZM32.8836 38.2809H17.1161L18.581 35.3513H31.4187L32.8836 38.2809ZM14.1865 44.1403L15.6513 41.2106H34.3483L35.8132 44.1403H14.1865ZM19.1405 26.5623H16.2109C15.4019 26.5623 14.746 27.2181 14.746 28.0271C14.746 28.8361 15.4019 29.492 16.2109 29.492H19.1405C19.9495 29.492 20.6054 28.8361 20.6054 28.0271C20.6054 27.2181 19.9495 26.5623 19.1405 26.5623ZM33.7889 26.5623H30.8592C30.0502 26.5623 29.3944 27.2181 29.3944 28.0271C29.3944 28.8361 30.0502 29.492 30.8592 29.492H33.7889C34.5978 29.492 35.2537 28.8361 35.2537 28.0271C35.2537 27.2181 34.5978 26.5623 33.7889 26.5623Z" fill="#FF7A00"/>
</g>
<defs>
<clipPath id="clip0">
<rect width="50" height="50" fill="white"/>
</clipPath>
</defs>
</svg>
