<svg width="85" height="85" viewBox="0 0 85 85" fill="none" xmlns="http://www.w3.org/2000/svg">
<g clip-path="url(#clip0)">
<path d="M41.8381 0.00513431C65.348 -0.353791 84.5369 18.1499 84.9921 41.658C85.059 45.1093 84.7137 48.469 84.0031 51.6913C82.7997 57.1474 82.0843 62.7002 82.0843 68.2874V79.0877C82.0843 80.7424 80.7429 82.0838 79.0883 82.0838H68.288C62.7007 82.0838 57.1482 82.7991 51.6919 84.0026C48.4696 84.7133 45.1101 85.0584 41.6589 84.9915C18.1507 84.5367 -0.353224 65.3488 0.00536899 41.8392C0.355163 18.8922 18.8913 0.355759 41.8381 0.00513431Z" fill="url(#paint0_linear)"/>
<path d="M84.0844 51.3085C84.0577 51.4359 84.0311 51.5632 84.0022 51.6907C82.7984 57.1468 82.0836 62.6995 82.0836 68.2872V79.0885C82.0836 80.7422 80.742 82.0836 79.0883 82.0836H68.287C67.4797 82.0836 66.6744 82.0979 65.8692 82.1288L38.2803 54.5378C37.8078 54.0592 37.5716 53.1984 37.5716 51.9535C37.5716 46.4954 38.9644 42.5675 41.754 40.1744C42.0334 39.9156 42.6003 39.4595 43.4488 38.8082C43.2146 38.6069 30.0941 25.4349 29.942 25.3014C29.3194 24.7672 29.0115 24.0359 29.0115 23.1095C29.0115 21.4477 30.1802 19.8207 32.5222 18.2285C34.862 16.6366 37.8325 15.8394 41.4296 15.8394C45.9427 15.8394 49.4988 17 52.0954 19.3152L84.0844 51.3085Z" fill="url(#paint1_linear)"/>
<path d="M63.6486 82.2438C60.2016 82.4779 56.775 82.9628 53.3833 83.6468L37.7133 67.9768C36.9019 67.1879 36.4951 66.2696 36.4951 65.2179C36.4951 64.1229 36.9019 63.1924 37.7133 62.4262C38.5248 61.6599 39.5274 61.2759 40.7209 61.2759C41.9452 61.2759 43.0052 61.66 43.8989 62.4262L63.6486 82.2438Z" fill="url(#paint2_linear)"/>
<path d="M29.0105 23.1091C29.0105 21.4475 30.1807 19.8205 32.5222 18.2281C34.8625 16.637 37.8321 15.8408 41.4299 15.8408C45.9426 15.8408 49.4981 16.9998 52.0948 19.3165C54.6904 21.6346 55.9893 24.584 55.9893 28.1671C55.9893 29.6486 55.7732 31.0694 55.341 32.4312C54.9089 33.7927 54.2862 35.0357 53.471 36.1578C52.6559 37.2809 51.9236 38.2125 51.2763 38.9528C50.629 39.6941 49.8127 40.5061 48.8296 41.3894C47.8464 42.2739 47.2596 42.8113 47.0716 43.0019C45.6519 44.2919 44.7773 45.6062 44.4458 46.9435C44.1142 48.2817 43.9497 50.3117 43.9497 53.0349C43.9497 54.5166 42.8467 55.2567 40.6429 55.2567C39.5399 55.2567 38.7528 55.0178 38.2801 54.539C37.8076 54.0595 37.5712 53.1983 37.5712 51.9533C37.5712 46.4959 38.9653 42.5685 41.7535 40.1745C42.0625 39.8878 42.7209 39.3615 43.7288 38.5955C44.7355 37.8297 45.4857 37.1947 45.9794 36.692C46.4722 36.1892 47.0476 35.5183 47.7061 34.6809C48.3646 33.8432 48.846 32.9341 49.1516 31.9519C49.4573 30.9711 49.6108 29.9295 49.6108 28.8277C49.6108 26.53 48.8661 24.7462 47.3779 23.4775C45.8898 22.2088 43.8282 21.5738 41.1934 21.5738C39.6639 21.5738 38.3625 21.8056 37.2875 22.2693C36.2126 22.7328 35.4602 23.2557 35.03 23.8403C34.6001 24.4246 34.1221 24.9488 33.5968 25.4123C33.0706 25.8759 32.5219 26.1065 31.9485 26.1065C31.2318 26.1065 30.5621 25.8389 29.9418 25.3025C29.3208 24.7676 29.0105 24.0365 29.0105 23.1091ZM36.4961 65.2181C36.4961 64.1232 36.9015 63.1925 37.7134 62.4267C38.524 61.6609 39.5274 61.2766 40.7211 61.2766C41.9462 61.2766 43.0054 61.6607 43.8991 62.4267C44.7926 63.1925 45.2395 64.1234 45.2395 65.2181C45.2395 66.2698 44.7926 67.1889 43.8991 67.9773C43.0054 68.7658 41.9462 69.1596 40.7211 69.1596C39.5274 69.1596 38.524 68.7658 37.7134 67.9773C36.9015 67.1887 36.4961 66.2698 36.4961 65.2181Z" fill="white"/>
</g>
<defs>
<linearGradient id="paint0_linear" x1="26.5296" y1="26.5312" x2="84.5699" y2="84.5716" gradientUnits="userSpaceOnUse">
<stop stop-color="#D0D0D1"/>
<stop offset="1" stop-color="#A7A7A7"/>
</linearGradient>
<linearGradient id="paint1_linear" x1="67.0402" y1="58.7818" x2="18.4681" y2="10.2096" gradientUnits="userSpaceOnUse">
<stop stop-color="#777777" stop-opacity="0"/>
<stop offset="1" stop-color="#A4A4A4"/>
</linearGradient>
<linearGradient id="paint2_linear" x1="50.9326" y1="75.3297" x2="38.0096" y2="62.4066" gradientUnits="userSpaceOnUse">
<stop stop-color="#B5B5B5"/>
<stop offset="1" stop-color="#A3A3A3"/>
</linearGradient>
<clipPath id="clip0">
<rect width="85" height="85" fill="white"/>
</clipPath>
</defs>
</svg>
