<svg width="69" height="69" viewBox="0 0 69 69" fill="none" xmlns="http://www.w3.org/2000/svg">
<g clip-path="url(#clip0)">
<path d="M33.9626 0.00416785C53.0471 -0.287195 68.624 14.7335 68.9935 33.8165C69.0478 36.6182 68.7675 39.3454 68.1907 41.9612C67.2138 46.3903 66.6331 50.8978 66.6331 55.4333V64.2006C66.6331 65.5438 65.5442 66.6327 64.201 66.6327H55.4337C50.8982 66.6327 46.3908 67.2134 41.9616 68.1903C39.3458 68.7673 36.6187 69.0474 33.8172 68.9931C14.734 68.6239 -0.286811 53.0478 0.00428224 33.9636C0.288233 15.336 15.3352 0.288792 33.9626 0.00416785Z" fill="url(#paint0_linear)"/>
<path d="M68.2568 41.6505C68.2351 41.7539 68.2135 41.8573 68.1901 41.9608C67.2129 46.3898 66.6326 50.8973 66.6326 55.4333V64.2014C66.6326 65.5438 65.5436 66.6327 64.2012 66.6327H55.4331C54.7777 66.6327 54.1239 66.6442 53.4703 66.6693L31.0746 44.272C30.6911 43.8835 30.4993 43.1847 30.4993 42.1741C30.4993 37.7434 31.63 34.5549 33.8945 32.6122C34.1213 32.4021 34.5815 32.0319 35.2703 31.5032C35.0801 31.3398 24.4293 20.6472 24.3059 20.5389C23.8005 20.1052 23.5505 19.5115 23.5505 18.7596C23.5505 17.4106 24.4993 16.0899 26.4004 14.7973C28.2998 13.5051 30.7112 12.8579 33.6311 12.8579C37.2947 12.8579 40.1814 13.8001 42.2893 15.6795L68.2568 41.6505Z" fill="url(#paint1_linear)"/>
<path d="M51.6676 66.7627C48.8694 66.9527 46.0879 67.3464 43.3346 67.9016L30.6143 55.1812C29.9555 54.5408 29.6254 53.7954 29.6254 52.9417C29.6254 52.0528 29.9555 51.2974 30.6143 50.6755C31.273 50.0534 32.0869 49.7417 33.0557 49.7417C34.0496 49.7417 34.9101 50.0535 35.6355 50.6755L51.6676 66.7627Z" fill="url(#paint2_linear)"/>
<path d="M23.5497 18.759C23.5497 17.4102 24.4996 16.0895 26.4004 14.7968C28.3002 13.5052 30.7107 12.8589 33.6313 12.8589C37.2945 12.8589 40.1808 13.7997 42.2887 15.6803C44.3957 17.5621 45.4501 19.9563 45.4501 22.8649C45.4501 24.0676 45.2747 25.2209 44.9239 26.3264C44.5731 27.4316 44.0676 28.4406 43.4059 29.3515C42.7442 30.2632 42.1497 31.0195 41.6243 31.6204C41.0988 32.2221 40.4362 32.8812 39.6381 33.5983C38.84 34.3164 38.3636 34.7526 38.2111 34.9073C37.0586 35.9544 36.3486 37.0214 36.0795 38.1069C35.8104 39.1933 35.6768 40.8412 35.6768 43.0517C35.6768 44.2545 34.7814 44.8553 32.9924 44.8553C32.097 44.8553 31.4581 44.6614 31.0744 44.2727C30.6909 43.8835 30.499 43.1843 30.499 42.1737C30.499 37.7436 31.6306 34.5554 33.894 32.6121C34.1448 32.3794 34.6793 31.9522 35.4974 31.3304C36.3147 30.7087 36.9237 30.1932 37.3245 29.7851C37.7244 29.3769 38.1915 28.8324 38.7261 28.1526C39.2606 27.4726 39.6514 26.7346 39.8996 25.9373C40.1477 25.1411 40.2723 24.2956 40.2723 23.4012C40.2723 21.536 39.6678 20.088 38.4597 19.0581C37.2517 18.0282 35.5782 17.5127 33.4393 17.5127C32.1977 17.5127 31.1413 17.7009 30.2687 18.0773C29.3961 18.4535 28.7853 18.878 28.4361 19.3526C28.0871 19.8269 27.6991 20.2524 27.2727 20.6286C26.8455 21.005 26.4001 21.1922 25.9346 21.1922C25.3528 21.1922 24.8092 20.975 24.3057 20.5396C23.8016 20.1054 23.5497 19.5118 23.5497 18.759ZM29.6263 52.9416C29.6263 52.0528 29.9554 51.2973 30.6144 50.6757C31.2724 50.054 32.0869 49.742 33.0559 49.742C34.0505 49.742 34.9103 50.0539 35.6357 50.6757C36.361 51.2973 36.7238 52.053 36.7238 52.9416C36.7238 53.7953 36.361 54.5414 35.6357 55.1814C34.9103 55.8216 34.0505 56.1412 33.0559 56.1412C32.0869 56.1412 31.2724 55.8216 30.6144 55.1814C29.9554 54.5413 29.6263 53.7953 29.6263 52.9416Z" fill="white"/>
</g>
<defs>
<linearGradient id="paint0_linear" x1="21.5357" y1="21.5371" x2="68.6508" y2="68.6522" gradientUnits="userSpaceOnUse">
<stop stop-color="#62E1FB"/>
<stop offset="1" stop-color="#00A2F3"/>
</linearGradient>
<linearGradient id="paint1_linear" x1="54.4209" y1="47.7171" x2="14.9918" y2="8.28787" gradientUnits="userSpaceOnUse">
<stop stop-color="#00A2F3" stop-opacity="0"/>
<stop offset="1" stop-color="#0075CD"/>
</linearGradient>
<linearGradient id="paint2_linear" x1="41.3452" y1="61.1501" x2="30.8548" y2="50.6596" gradientUnits="userSpaceOnUse">
<stop stop-color="#00A2F3" stop-opacity="0"/>
<stop offset="1" stop-color="#0075CD"/>
</linearGradient>
<clipPath id="clip0">
<rect width="69" height="69" fill="white"/>
</clipPath>
</defs>
</svg>
