<svg width="58" height="58" viewBox="0 0 58 58" fill="none" xmlns="http://www.w3.org/2000/svg">
<path d="M51.126 48.0054C50.9971 40.1229 42.9378 37.7941 37.0531 36.0936C36.3665 35.8952 35.7061 35.7044 35.0874 35.5138V32.2621C36.2904 31.5079 37.3446 30.5375 38.1951 29.4054H41.7797C43.5339 29.4054 44.9611 27.9782 44.9611 26.224V22.3729C45.1738 21.8772 45.2919 21.3316 45.2919 20.7588V19.561C45.2919 18.9887 45.1738 18.4435 44.9611 17.9481V15.9614C44.9611 7.16031 37.8011 0 29.0001 0C20.2008 0 13.0422 7.16031 13.0422 15.9615V17.8914C13.0422 17.9066 13.0439 17.9212 13.0445 17.9362C12.8286 18.4349 12.7083 18.9841 12.7083 19.5611V20.7589C12.7083 23.023 14.5489 24.8651 16.8112 24.8651H17.7474C18.3958 27.9745 20.3047 30.6264 22.9128 32.2615V35.5138C22.2939 35.7044 21.6337 35.8951 20.9471 36.0936C15.0624 37.7941 7.00305 40.123 6.87414 48.0054C6.87402 48.0116 6.87402 48.0177 6.87402 48.024V56.8672C6.87402 57.4928 7.3813 58 8.00684 58H21.3654C21.991 58 22.4982 57.4928 22.4982 56.8672C22.4982 56.2415 21.991 55.7344 21.3654 55.7344H9.13954V48.0334C9.18724 45.2832 10.4506 43.2216 13.1151 41.5456C14.8733 40.4396 17.0228 39.6517 19.1416 38.9925L21.8786 44.3251C22.1837 44.9195 22.9648 45.1215 23.5199 44.747L24.7402 43.9237L25.788 47.8617L23.9928 55.7343H21.5378C20.9122 55.7343 20.405 56.2414 20.405 56.8671C20.405 57.4927 20.9122 57.9999 21.5378 57.9999H49.9933C50.6189 57.9999 51.1262 57.4927 51.1262 56.8671V48.0238C51.1262 48.0177 51.1262 48.0116 51.126 48.0054ZM36.4241 38.2701C36.4988 38.2916 36.5747 38.3137 36.6499 38.3354L34.6916 42.1546L31.0268 39.6834L34.132 37.5889C34.8534 37.8159 35.6205 38.0378 36.4241 38.2701ZM29.0009 41.0499L31.2724 42.5817L30.1746 46.7081H27.8256L26.7281 42.5829L29.0009 41.0499ZM29.0007 38.3172L25.1783 35.7397V33.3549C26.3747 33.778 27.6605 34.0101 29 34.0101C30.3393 34.0101 31.6254 33.7788 32.8216 33.3557V35.7397L29.0007 38.3172ZM38.229 16.1687C38.2135 16.1588 38.1981 16.149 38.1826 16.1391C35.8582 14.6594 33.8506 13.3815 30.705 14.2815C30.6758 14.2899 30.6468 14.2994 30.6183 14.3101C29.9514 14.5605 29.345 14.794 28.7585 15.0198C25.1762 16.3988 23.2202 17.1519 19.771 17.0549V16.1477C19.771 11.0587 23.9111 6.91845 29 6.91845C34.0888 6.91845 38.2289 11.0587 38.2289 16.1477L38.229 16.1687ZM42.6955 26.224C42.6955 26.729 42.2847 27.1398 41.7797 27.1398H39.5223C39.841 26.4172 40.088 25.656 40.2529 24.865H41.1891C41.7209 24.865 42.2288 24.7621 42.6956 24.5769L42.6955 26.224ZM43.0263 20.7588C43.0263 21.7736 42.2022 22.5994 41.189 22.5994H40.4937C40.4939 22.5713 40.4948 17.7236 40.4948 17.7236H41.1891C42.2022 17.7236 43.0264 18.5478 43.0264 19.561L43.0263 20.7588ZM16.8112 22.5995C15.7981 22.5995 14.9739 21.7738 14.9739 20.7589V19.5611C14.9739 18.548 15.798 17.7237 16.8112 17.7237H17.5055C17.5055 17.7237 17.5064 22.5714 17.5066 22.5995H16.8112ZM17.5267 15.458H16.8111C16.2815 15.458 15.7757 15.5599 15.3106 15.7434C15.4276 8.29177 21.523 2.26563 29.0001 2.26563C36.4793 2.26563 42.5765 8.29245 42.6927 15.7447C42.2267 15.5604 41.7197 15.458 41.189 15.458H40.4734C40.1154 9.43954 35.1065 4.65282 29.0001 4.65282C22.8935 4.65282 17.8847 9.43965 17.5267 15.458ZM19.8392 23.6173L19.8388 23.6139C19.7958 23.2533 19.7711 22.8872 19.7711 22.5153V19.3204C23.6469 19.4149 25.9588 18.5254 29.5724 17.1343C30.1415 16.9152 30.7298 16.6888 31.3706 16.4478C33.5105 15.8505 34.7418 16.6345 36.9659 18.0504C37.3519 18.2961 37.7752 18.5654 38.229 18.8419V22.5153C38.229 24.1999 37.7732 25.7791 36.9817 27.1399H29.0001C28.3745 27.1399 27.8673 27.6471 27.8673 28.2727C27.8673 28.8984 28.3745 29.4056 29.0001 29.4056H35.1313C33.4999 30.8591 31.3518 31.7446 29.0001 31.7446C24.2843 31.7445 20.3858 28.1883 19.8392 23.6173ZM23.3113 42.1547L21.3509 38.3352C21.4258 38.3136 21.5015 38.2916 21.5761 38.2701C22.3797 38.0378 23.1468 37.8158 23.8684 37.5888L26.9748 39.6836L23.3113 42.1547ZM26.3167 55.7344L27.8583 48.9737H30.1422L31.6862 55.7344H26.3167ZM48.8605 55.7344H34.0102L32.2122 47.8616L33.2604 43.9221L34.4837 44.7471C35.039 45.1215 35.8201 44.9195 36.1251 44.3247L38.859 38.9927C40.9777 39.6519 43.1271 40.4398 44.8852 41.5456C47.5496 43.2215 48.8131 45.2832 48.8608 48.0334L48.8605 55.7344Z" fill="#FF7A00"/>
<path d="M44.3877 50.0703H38.6787C38.0532 50.0703 37.5459 50.5775 37.5459 51.2031C37.5459 51.8288 38.0532 52.3359 38.6787 52.3359H44.3877C45.0133 52.3359 45.5206 51.8288 45.5206 51.2031C45.5206 50.5775 45.0134 50.0703 44.3877 50.0703Z" fill="#FF7A00"/>
<path d="M16.4512 55.7344C15.8256 55.7344 15.3184 56.2415 15.3184 56.8672C15.3184 57.4928 15.8256 58 16.4512 58H16.4543C17.0799 58 17.5855 57.4928 17.5855 56.8672C17.5855 56.2415 17.0767 55.7344 16.4512 55.7344Z" fill="#FF7A00"/>
</svg>
