<svg width="51" height="51" viewBox="0 0 51 51" fill="none" xmlns="http://www.w3.org/2000/svg">
<g clip-path="url(#clip0)">
<path d="M45.8759 27.9608C46.5329 25.882 46.8664 23.7222 46.8664 21.5216C46.8664 16.0715 44.8393 10.9338 41.144 6.96678C41.1302 6.95054 41.1155 6.9356 41.1008 6.92036C40.9394 6.74804 40.776 6.57711 40.6082 6.40937C36.5725 2.3726 31.2063 0.149414 25.4985 0.149414C19.3993 0.149414 13.8893 2.71973 9.99291 6.8339C9.9187 6.89337 9.85196 6.96409 9.79589 7.04557C6.28306 10.8557 4.13359 15.942 4.13359 21.5216C4.13359 23.7256 4.46619 25.8856 5.12162 27.9613C2.22338 28.4194 0 30.935 0 33.9608V44.7759C0 48.1256 2.72432 50.8506 6.07278 50.8506H21.0205C21.5705 50.8506 22.0166 50.4045 22.0166 49.8545C22.0166 49.3045 21.5705 48.8584 21.0205 48.8584H6.07278C3.82271 48.8584 1.99219 47.027 1.99219 44.776V33.9608C1.99219 31.7097 3.82271 29.8784 6.07278 29.8784H15.6474C15.6489 29.8784 15.6504 29.8786 15.6519 29.8786C15.6532 29.8786 15.6545 29.8784 15.6558 29.8784H35.3414C35.3427 29.8784 35.344 29.8786 35.3453 29.8786C35.3468 29.8786 35.3483 29.8784 35.3498 29.8784H44.4915C44.4936 29.8784 44.4958 29.8787 44.4979 29.8787C44.5005 29.8787 44.5031 29.8784 44.5057 29.8784H44.9273C47.1774 29.8784 49.0079 31.7098 49.0079 33.9608V44.7759C49.0079 47.027 47.1774 48.8583 44.9273 48.8583H29.9682C29.4181 48.8583 28.9721 49.3043 28.9721 49.8544C28.9721 50.4044 29.4181 50.8505 29.9682 50.8505H44.9272C48.2757 50.8505 51 48.1255 51 44.7759V33.9608C51 30.9341 48.7753 28.4179 45.8759 27.9608ZM36.539 27.8862C36.8271 26.1512 36.9951 24.3535 37.0396 22.5177H44.8482C44.7552 24.3542 44.4043 26.1533 43.8016 27.8862H36.539ZM26.4946 27.8862V22.5177H35.0462C34.9993 24.3592 34.8223 26.158 34.5179 27.8862H26.4946ZM16.4801 27.8862C16.1754 26.1498 15.9982 24.351 15.9511 22.5177H24.5025V27.8862H16.4801ZM7.19568 27.8862C6.59444 26.1562 6.24431 24.357 6.15168 22.5177H13.9577C14.0023 24.3461 14.1706 26.1438 14.4592 27.8862H7.19568ZM10.8448 8.85866C12.2611 9.57525 13.8325 10.1754 15.5199 10.651C14.5819 13.6251 14.0431 16.9991 13.9577 20.5256H6.15108C6.37719 16.0786 8.1089 12.0228 10.8448 8.85866ZM44.8489 20.5256H37.0394C36.954 16.9992 36.4152 13.6253 35.4772 10.6512C37.1652 10.1755 38.7373 9.57535 40.1545 8.85876C42.8909 12.0229 44.6228 16.0787 44.8489 20.5256ZM24.5024 9.95147C22.3077 9.8939 20.1608 9.64707 18.1504 9.231C18.3886 8.65476 18.6442 8.10033 18.9179 7.57201C20.4826 4.55195 22.4362 2.7034 24.5023 2.25157V9.95147H24.5024ZM24.5024 11.9444V20.5255H15.9502C16.0356 17.1511 16.5555 13.9389 17.4564 11.1311C19.6708 11.6086 22.0445 11.8855 24.5024 11.9444ZM26.4946 11.9444C28.9523 11.8855 31.326 11.6086 33.5407 11.1311C34.4416 13.9389 34.9614 17.1511 35.0469 20.5255H26.4946V11.9444ZM26.4946 9.95147V2.25147C28.5608 2.7033 30.5144 4.55185 32.0791 7.57191C32.3528 8.10023 32.6084 8.65466 32.8466 9.2309C30.8359 9.64697 28.689 9.8939 26.4946 9.95147ZM34.8048 8.76005C34.5123 8.02573 34.1935 7.32219 33.8481 6.6555C33.1117 5.23407 32.2841 4.0298 31.3872 3.05771C34.1424 3.93885 36.6311 5.42094 38.6991 7.34938C37.5132 7.90161 36.2037 8.37446 34.8048 8.76005ZM17.149 6.6555C16.8037 7.32219 16.4849 8.02563 16.1924 8.75995C14.794 8.37436 13.4851 7.90151 12.3 7.34938C14.3674 5.42124 16.8552 3.93925 19.6095 3.05811C18.7128 4.0302 17.8854 5.23437 17.149 6.6555Z" fill="#FF7A00"/>
<path d="M12.054 35.0113V40.6897L7.44308 34.4211C7.18788 34.0743 6.73904 33.9306 6.33004 34.0649C5.92115 34.1991 5.64453 34.5809 5.64453 35.0113V43.725C5.64453 44.2751 6.09058 44.7211 6.64063 44.7211C7.19067 44.7211 7.63672 44.2751 7.63672 43.725V38.0466L12.2476 44.3152C12.439 44.5753 12.7394 44.7212 13.0502 44.7212C13.1538 44.7212 13.2585 44.705 13.3607 44.6714C13.7696 44.5372 14.0462 44.1554 14.0462 43.725V35.0113C14.0462 34.4612 13.6001 34.0152 13.0501 34.0152C12.5 34.0152 12.054 34.4612 12.054 35.0113Z" fill="#FF7A00"/>
<path d="M21.6785 36.0073C22.2285 36.0073 22.6746 35.5613 22.6746 35.0112C22.6746 34.4612 22.2285 34.0151 21.6785 34.0151H17.6465C17.0964 34.0151 16.6504 34.4612 16.6504 35.0112V43.725C16.6504 44.275 17.0964 44.7211 17.6465 44.7211H21.6785C22.2285 44.7211 22.6746 44.275 22.6746 43.725C22.6746 43.1749 22.2285 42.7289 21.6785 42.7289H18.6426V40.3655H21.6785C22.2285 40.3655 22.6746 39.9195 22.6746 39.3694C22.6746 38.8194 22.2285 38.3733 21.6785 38.3733H18.6426V36.0073H21.6785Z" fill="#FF7A00"/>
<path d="M32.617 44.4013C32.8093 44.6093 33.076 44.7211 33.3484 44.7211C33.4703 44.7211 33.5934 44.6986 33.7115 44.6525C34.0932 44.503 34.3444 44.135 34.3444 43.725V35.0112C34.3444 34.4612 33.8983 34.0151 33.3483 34.0151C32.7983 34.0151 32.3522 34.4612 32.3522 35.0112V41.181L30.5446 39.2269C30.5344 39.2159 30.525 39.207 30.5158 39.1987C30.5069 39.1899 30.499 39.1806 30.4897 39.172C30.086 38.7985 29.4558 38.8229 29.0821 39.2269L27.2744 41.1811V35.0112C27.2744 34.4612 26.8284 34.0151 26.2783 34.0151C25.7283 34.0151 25.2822 34.4612 25.2822 35.0112V43.725C25.2822 44.1349 25.5333 44.503 25.9151 44.6525C26.0333 44.6987 26.1562 44.7211 26.2782 44.7211C26.5506 44.7211 26.8173 44.6093 27.0097 44.4013L29.8135 41.3702L32.617 44.4013Z" fill="#FF7A00"/>
<path d="M42.1797 42.7293H37.9473C37.3972 42.7293 36.9512 43.1753 36.9512 43.7253C36.9512 44.2754 37.3972 44.7214 37.9473 44.7214H42.1797C43.9293 44.7214 45.3527 43.2976 45.3527 41.5476C45.3527 39.7976 43.9293 38.3738 42.1797 38.3738H40.1241C39.4731 38.3738 38.9434 37.8438 38.9434 37.1923C38.9434 36.5391 39.4731 36.0078 40.1241 36.0078H44.3566C44.9067 36.0078 45.3527 35.5618 45.3527 35.0117C45.3527 34.4617 44.9067 34.0156 44.3566 34.0156H40.1241C38.3746 34.0156 36.9512 35.4406 36.9512 37.1923C36.9512 38.9423 38.3746 40.366 40.1241 40.366H42.1797C42.8308 40.366 43.3605 40.896 43.3605 41.5476C43.3605 42.1991 42.8308 42.7293 42.1797 42.7293Z" fill="#FF7A00"/>
<path d="M25.4961 48.8584C24.9461 48.8584 24.5 49.3044 24.5 49.8545C24.5 50.4045 24.9461 50.8506 25.4961 50.8506H25.4989C26.0489 50.8506 26.4936 50.4045 26.4936 49.8545C26.4936 49.3044 26.0461 48.8584 25.4961 48.8584Z" fill="#FF7A00"/>
</g>
<defs>
<clipPath id="clip0">
<rect width="51" height="51" fill="white"/>
</clipPath>
</defs>
</svg>
