<svg width="63" height="61" viewBox="0 0 63 61" fill="none" xmlns="http://www.w3.org/2000/svg">
<path d="M2.93687 19.3982V14.7301H47.6444V28.6119C47.6444 29.1881 48.1115 29.6553 48.6878 29.6553C49.2641 29.6553 49.7313 29.1882 49.7313 28.6119V3.08472C49.7313 1.85242 48.729 0.85 47.4965 0.85H3.08472H3.08471C1.8523 0.850128 0.85 1.8524 0.85 3.08472V19.3982C0.85 19.9745 1.31711 20.4416 1.89344 20.4416C2.46976 20.4416 2.93687 19.9745 2.93687 19.3982ZM3.08472 2.93687H47.4967C47.5781 2.93687 47.6445 3.00327 47.6445 3.08472V12.6434H2.93687V3.08472C2.93687 3.00335 3.00331 2.93687 3.08472 2.93687Z" fill="#FF7A00" stroke="#FF7A00" stroke-width="0.3"/>
<path d="M7.6045 9.49903C8.56668 9.49903 9.34669 8.71903 9.34669 7.75684C9.34669 6.79465 8.56668 6.01465 7.6045 6.01465C6.64231 6.01465 5.8623 6.79465 5.8623 7.75684C5.8623 8.71903 6.64231 9.49903 7.6045 9.49903Z" fill="#FF7A00"/>
<path d="M12.9014 9.49903C13.8636 9.49903 14.6436 8.71903 14.6436 7.75684C14.6436 6.79465 13.8636 6.01465 12.9014 6.01465C11.9392 6.01465 11.1592 6.79465 11.1592 7.75684C11.1592 8.71903 11.9392 9.49903 12.9014 9.49903Z" fill="#FF7A00"/>
<path d="M18.2002 9.49903C19.1624 9.49903 19.9424 8.71903 19.9424 7.75684C19.9424 6.79465 19.1624 6.01465 18.2002 6.01465C17.238 6.01465 16.458 6.79465 16.458 7.75684C16.458 8.71903 17.238 9.49903 18.2002 9.49903Z" fill="#FF7A00"/>
<path d="M35.4178 31.3351C35.4178 30.4307 35.0792 29.772 34.757 29.3506C35.0712 28.726 35.1767 28.0192 35.0543 27.3139C34.9018 26.435 34.4128 25.6722 33.6775 25.166C33.1452 24.7994 32.5228 24.6058 31.8769 24.6058C31.8738 24.6058 31.8705 24.6058 31.8673 24.6058C30.6861 24.6094 28.3475 24.6159 27.2838 24.6159H26.8841C26.9597 24.0688 27.0297 23.5447 27.0791 23.0026C27.2072 21.5986 27.2099 19.9556 26.2604 18.4154C25.1976 16.6919 23.4631 16.0533 21.6205 16.7071C20.7251 17.0246 20.6636 17.7348 20.7065 18.1298C20.8146 19.1265 20.9355 20.3031 21.0126 21.4729C21.0269 21.6904 20.9864 21.8788 20.94 21.969C20.3353 23.1446 18.2478 27.1102 17.8217 27.9285C16.3269 27.9291 15.722 27.927 14.9755 27.916C14.4613 27.9129 13.9756 28.1057 13.6092 28.4676C13.2427 28.8296 13.041 29.3123 13.041 29.8271V38.4832C13.041 38.9979 13.2427 39.4806 13.6092 39.8426C13.9698 40.1988 14.4456 40.3941 14.9531 40.3941C14.9531 40.3941 27.0627 40.3986 29.999 40.3693C30.8354 40.361 31.6366 39.9922 32.1973 39.3577C32.7631 38.7172 33.0331 37.8716 32.9379 37.0376C32.932 36.9868 32.9249 36.937 32.9167 36.8884C34.1896 36.1029 34.5092 34.7582 34.3528 33.571C34.8228 33.1708 35.4178 32.445 35.4178 31.3351ZM33.0255 32.3359C32.6218 32.5932 32.4242 33.0795 32.534 33.5461C32.6908 34.2127 32.6767 35.0929 31.7188 35.5006C31.2026 35.7203 30.9234 36.2943 31.0696 36.8351C31.233 37.3104 31.2039 37.7879 30.8583 38.1746C30.6288 38.4343 30.3174 38.5792 29.9814 38.5825C27.0128 38.6121 14.9525 38.6072 14.9519 38.6072C14.9101 38.6072 14.8816 38.5878 14.8651 38.5713C14.8481 38.5547 14.828 38.5258 14.828 38.4832V29.8271C14.828 29.7844 14.8481 29.7555 14.8651 29.7387C14.8819 29.7222 14.9105 29.7026 14.9501 29.7026H14.9517C15.7706 29.7148 16.4183 29.7162 18.2196 29.7151C18.6441 29.7151 19.029 29.4811 19.2241 29.105C19.7062 28.1757 21.9204 23.9695 22.529 22.7864C22.8074 22.2455 22.8156 21.6577 22.7957 21.3554C22.7258 20.2946 22.6217 19.236 22.5223 18.3018C23.6491 18.0436 24.3453 18.7137 24.7396 19.353C25.4137 20.4465 25.401 21.7295 25.2998 22.8401C25.2484 23.4016 25.1707 23.9625 25.0884 24.5562C25.0094 25.0489 24.8971 25.6146 25.2813 26.0162C25.4963 26.2618 25.8068 26.4027 26.1329 26.4027L31.8726 26.3925C32.5678 26.3812 33.1864 26.9412 33.2938 27.6195C33.3632 28.0189 33.2735 28.4186 33.041 28.7462C32.6816 29.2208 32.7522 29.8935 33.2109 30.2918C33.4049 30.4825 33.631 30.8164 33.631 31.3351C33.6309 31.8703 33.2517 32.1918 33.0255 32.3359Z" fill="#FF7A00"/>
<path d="M55.6132 47.1193C54.0955 47.1193 52.6972 47.6381 51.5867 48.5063L49.7311 46.7961V39.5411C49.7311 38.966 49.2635 38.5007 48.6877 38.5007C48.1119 38.5007 47.6443 38.966 47.6443 39.5411V44.8726L45.4823 42.8799C46.0296 42.0135 46.3474 40.9888 46.3474 39.8914C46.3474 38.9863 46.131 38.1307 45.7483 37.3724L52.6608 32.1305C53.4622 32.7947 54.4915 33.1957 55.6132 33.1957C58.1638 33.1957 60.2395 31.1277 60.2395 28.5846C60.2395 26.0415 58.1638 23.9735 55.6132 23.9735C53.0626 23.9735 50.9869 26.0415 50.9869 28.5846C50.9869 29.2583 51.1327 29.8989 51.3946 30.4766L44.4824 35.7183C43.4813 34.8166 42.1557 34.2655 40.7028 34.2655C37.5907 34.2655 35.0583 36.7888 35.0583 39.8916C35.0583 42.9945 37.5907 45.5176 40.7028 45.5176C41.9616 45.5176 43.1247 45.1036 44.0643 44.4067L47.6444 47.7065V47.9391C47.6444 48.0195 47.5784 48.086 47.4965 48.086H3.08472C3.00279 48.086 2.93687 48.0195 2.93687 47.9391V13.8904C2.93687 13.3153 2.46928 12.85 1.89344 12.85C1.31759 12.85 0.85 13.3153 0.85 13.8904V47.9391C0.85 49.168 1.85276 50.1668 3.08472 50.1668H47.4967C48.2424 50.1668 48.9018 49.7996 49.3074 49.2393L50.1696 50.0341C49.48 51.0661 49.0766 52.3042 49.0766 53.6348C49.0766 57.2279 52.0092 60.15 55.6133 60.15C59.2175 60.15 62.15 57.2276 62.15 53.6345C62.15 50.0414 59.2174 47.1193 55.6132 47.1193ZM55.6132 26.0542C57.0137 26.0542 58.1526 27.1899 58.1526 28.5845C58.1526 29.9791 57.0137 31.1148 55.6132 31.1148C54.2126 31.1148 53.0737 29.9791 53.0737 28.5845C53.0737 27.1899 54.2126 26.0542 55.6132 26.0542ZM37.145 39.8914C37.145 37.9371 38.7407 36.3461 40.7028 36.3461C42.665 36.3461 44.2607 37.9371 44.2607 39.8914C44.2607 41.8456 42.665 43.4366 40.7028 43.4366C38.7407 43.4366 37.145 41.8457 37.145 39.8914ZM55.6132 58.0689C53.1592 58.0689 51.1633 56.079 51.1633 53.6345C51.1633 51.19 53.1592 49.2002 55.6132 49.2002C58.0672 49.2002 60.0631 51.19 60.0631 53.6345C60.0631 56.079 58.0672 58.0689 55.6132 58.0689Z" fill="#FF7A00" stroke="#FF7A00" stroke-width="0.3"/>
</svg>
