<svg width="55" height="55" viewBox="0 0 55 55" fill="none" xmlns="http://www.w3.org/2000/svg">
<path d="M11.6832 0C10.6132 0 9.58815 0.29208 8.69902 0.838535C7.80979 0.29208 6.78477 0 5.71474 0C4.18816 0 2.75312 0.594473 1.67385 1.67385C0.594473 2.75322 0 4.18827 0 5.71474C0 7.2412 0.594473 8.67625 1.67385 9.75552L7.5596 15.6413C7.86178 15.9436 8.27159 16.1133 8.69892 16.1133C9.12624 16.1133 9.53616 15.9436 9.83823 15.6413L15.7239 9.75562C16.8033 8.67625 17.3977 7.2412 17.3977 5.71474C17.3977 4.18827 16.8033 2.75322 15.7239 1.67385C14.6447 0.594473 13.2097 0 11.6832 0V0ZM13.4452 7.47688L8.69892 12.2233L3.95259 7.47678C3.48186 7.00616 3.22266 6.38043 3.22266 5.71474C3.22266 5.04904 3.48186 4.42331 3.95259 3.95259C4.42331 3.48186 5.04904 3.22266 5.71474 3.22266C6.38032 3.22266 7.00605 3.48186 7.47678 3.95259L7.5596 4.03541C8.18877 4.66458 9.20906 4.66458 9.83834 4.03541L9.92116 3.95259C10.3918 3.48186 11.0175 3.22266 11.6832 3.22266C12.3489 3.22266 12.9745 3.48186 13.4452 3.95259C13.916 4.42331 14.1752 5.04915 14.1752 5.71474C14.1752 6.38032 13.916 7.00616 13.4452 7.47688Z" fill="#FF7A00"/>
<path d="M51.2402 2.14844H25.459C23.3858 2.14844 21.6992 3.83507 21.6992 5.9082V10.2051C21.6992 12.2782 23.3858 13.9648 25.459 13.9648H51.2402C53.3134 13.9648 55 12.2782 55 10.2051V5.9082C55 3.83507 53.3134 2.14844 51.2402 2.14844ZM24.9219 10.2051V5.9082C24.9219 5.61204 25.1628 5.37109 25.459 5.37109H43.1836V10.7422H25.459C25.1628 10.7422 24.9219 10.5012 24.9219 10.2051ZM51.7773 10.2051C51.7773 10.5012 51.5364 10.7422 51.2402 10.7422H46.4062V5.37109H51.2402C51.5364 5.37109 51.7773 5.61204 51.7773 5.9082V10.2051Z" fill="#FF7A00"/>
<path d="M51.2402 41.0352H25.459C23.3858 41.0352 21.6992 42.7218 21.6992 44.7949V49.0918C21.6992 51.1649 23.3858 52.8516 25.459 52.8516H51.2402C53.3134 52.8516 55 51.1649 55 49.0918V44.7949C55 42.7218 53.3134 41.0352 51.2402 41.0352ZM24.9219 49.0918V44.7949C24.9219 44.4988 25.1628 44.2578 25.459 44.2578H32.4414V49.6289H25.459C25.1628 49.6289 24.9219 49.388 24.9219 49.0918ZM51.7773 49.0918C51.7773 49.388 51.5364 49.6289 51.2402 49.6289H35.6641V44.2578H51.2402C51.5364 44.2578 51.7773 44.4988 51.7773 44.7949V49.0918Z" fill="#FF7A00"/>
<path d="M51.2402 21.5918H25.459C23.3858 21.5918 21.6992 23.2784 21.6992 25.3516V29.6484C21.6992 31.7216 23.3858 33.4082 25.459 33.4082H51.2402C53.3134 33.4082 55 31.7216 55 29.6484V25.3516C55 23.2784 53.3134 21.5918 51.2402 21.5918ZM24.9219 29.6484V25.3516C24.9219 25.0554 25.1628 24.8145 25.459 24.8145H36.7383V30.1855H25.459C25.1628 30.1855 24.9219 29.9446 24.9219 29.6484ZM51.7773 29.6484C51.7773 29.9446 51.5364 30.1855 51.2402 30.1855H39.9609V24.8145H51.2402C51.5364 24.8145 51.7773 25.0554 51.7773 25.3516V29.6484Z" fill="#FF7A00"/>
<path d="M15.7076 23.3097L11.8631 22.7511L10.1438 19.2673C9.87237 18.7173 9.31227 18.3691 8.69889 18.3691C8.08551 18.3691 7.52541 18.7173 7.25396 19.2673L5.53467 22.7511L1.69015 23.3097C1.08322 23.3978 0.57898 23.8229 0.389488 24.4062C0.199888 24.9897 0.358013 25.63 0.797261 26.0581L3.57906 28.7697L2.92239 32.5988C2.81873 33.2032 3.0673 33.8141 3.56348 34.1748C4.05956 34.5352 4.71741 34.5829 5.26043 34.2974L8.699 32.4896L12.1376 34.2974C12.3734 34.4213 12.6309 34.4825 12.8873 34.4825C13.2214 34.4825 13.5538 34.3788 13.8345 34.1749C14.3307 33.8144 14.5793 33.2033 14.4756 32.5989L13.8189 28.7698L16.6007 26.0582C17.04 25.6301 17.1981 24.9898 17.0085 24.4064C16.8187 23.8231 16.3146 23.3978 15.7076 23.3097ZM10.9627 27.0534C10.5829 27.4236 10.4096 27.957 10.4993 28.4797L10.7473 29.9256L9.4488 29.2429C9.21398 29.1196 8.95649 29.0578 8.699 29.0578C8.44151 29.0578 8.18391 29.1195 7.94919 29.2429L6.65068 29.9256L6.89872 28.4797C6.98841 27.957 6.81514 27.4236 6.4353 27.0534L5.38482 26.0294L6.83673 25.8184C7.3616 25.7421 7.81524 25.4126 8.04996 24.937L8.69921 23.6214L9.34847 24.937C9.58319 25.4126 10.0368 25.7421 10.5617 25.8184L12.0136 26.0294L10.9627 27.0534Z" fill="#FF7A00"/>
<path d="M14.0703 38.8867H3.32812C2.43824 38.8867 1.7168 39.6082 1.7168 40.498V45.4554C1.7168 49.6322 4.22263 53.3335 8.10088 54.8846C8.29284 54.9615 8.49608 54.9999 8.69922 54.9999C8.90235 54.9999 9.1056 54.9615 9.29756 54.8846C13.1758 53.3335 15.6816 49.6321 15.6816 45.4554V40.498C15.6816 39.6082 14.9603 38.8867 14.0703 38.8867ZM12.459 45.4554C12.459 48.0858 11.0032 50.4398 8.69922 51.6204C6.39523 50.4399 4.93945 48.0859 4.93945 45.4554V42.1094H12.459V45.4554Z" fill="#FF7A00"/>
</svg>
