<svg width="65" height="65" viewBox="0 0 65 65" fill="none" xmlns="http://www.w3.org/2000/svg">
<g clip-path="url(#clip0)">
<path d="M64.5466 23.3503L57.2847 4.46931C55.9086 0.900045 51.8995 -0.877823 48.3302 0.49826C48.2784 0.518282 48.2268 0.538844 48.1754 0.560083L11.8853 15.6034C8.42979 17.0209 6.73147 20.9322 8.0552 24.4248L9.05303 27.0882H6.76407C3.03017 27.0924 0.00419373 30.1184 0 33.8523V58.2029C0.00419373 61.9369 3.03017 64.9628 6.76407 64.967H52.7598C56.4937 64.9628 59.5196 61.9369 59.5238 58.2029V33.8523C59.5217 33.4851 59.4891 33.1188 59.4264 32.7571L60.6829 32.2484C64.1693 30.8194 65.8827 26.8733 64.5466 23.3503ZM6.76407 29.2529H52.7598C55.1889 29.2598 57.1927 31.1568 57.3323 33.5819H2.19156C2.33117 31.1567 4.33496 29.2596 6.76407 29.2529ZM17.6418 22.7334L24.8756 19.1154L26.3626 22.8351L19.1288 26.452L17.6418 22.7334ZM57.3593 58.2031C57.3564 60.7422 55.2989 62.7997 52.7598 62.8027H6.76407C4.22498 62.7997 2.16748 60.7422 2.1645 58.2031V44.4044H57.3593V58.2031ZM57.3593 42.2399H2.1645V35.7464H57.3593V42.2399ZM59.8712 30.2485L58.7403 30.7063C57.5721 28.4845 55.2701 27.0919 52.7598 27.0884H22.697L28.2219 24.3254C28.7257 24.0739 28.9525 23.4781 28.7435 22.9552L26.4481 17.2193C26.2261 16.6644 25.5963 16.3944 25.0414 16.6162C25.0134 16.6275 24.9859 16.6398 24.959 16.6533L15.7826 21.2442C15.2792 21.4961 15.0529 22.0917 15.262 22.6143L17.0521 27.0884H11.3636L10.0823 23.6706C9.17384 21.271 10.3406 18.5843 12.7143 17.61L49.0033 2.56671C51.4293 1.56076 54.2115 2.71187 55.2176 5.13787C55.2333 5.17561 55.2484 5.21363 55.263 5.25178L62.5249 24.1327C63.4436 26.5536 62.2668 29.2657 59.8712 30.2485Z" fill="#FF7A00"/>
<path d="M38.9319 59.7596C40.9486 60.9313 43.439 60.9313 45.4558 59.7596C48.5567 61.5611 52.531 60.5077 54.3326 57.4068C56.1341 54.3059 55.0807 50.3316 51.9798 48.53C50.9845 47.9518 49.8535 47.6485 48.7026 47.6512C47.5616 47.6518 46.4412 47.9549 45.4558 48.53C42.3549 46.7285 38.3806 47.7818 36.5791 50.8827C34.7775 53.9838 35.8309 57.9579 38.9319 59.7596ZM47.2653 50.0799C47.7257 49.9103 48.2119 49.821 48.7026 49.8159C51.0934 49.8159 53.0316 51.754 53.0316 54.1449C53.0316 56.5357 51.0934 58.4739 48.7026 58.4739C48.2119 58.4687 47.7257 58.3795 47.2653 58.2098C49.1815 55.8385 49.1815 52.4511 47.2653 50.0799ZM45.4558 51.3115C46.8989 52.9249 46.8989 55.3648 45.4558 56.9782C44.0128 55.3648 44.0128 52.9248 45.4558 51.3115ZM42.2091 49.8159C42.6997 49.8209 43.1859 49.9103 43.6463 50.0799C41.7302 52.4511 41.7302 55.8386 43.6463 58.2098C43.1859 58.3795 42.6997 58.4687 42.2091 58.4739C39.8182 58.4739 37.8801 56.5357 37.8801 54.1449C37.8801 51.7539 39.8182 49.8159 42.2091 49.8159Z" fill="#FF7A00"/>
<path d="M45.652 22.368L46.5312 24.3459L56.856 19.7564L55.9768 17.7785L45.652 22.368Z" fill="#FF7A00"/>
<path d="M53.6749 13.1964L38.7617 20.0798L39.6684 22.0442L54.5816 15.1608L53.6749 13.1964Z" fill="#FF7A00"/>
</g>
<defs>
<clipPath id="clip0">
<rect width="65" height="65" fill="white"/>
</clipPath>
</defs>
</svg>
