<svg width="65" height="65" viewBox="0 0 65 65" fill="none" xmlns="http://www.w3.org/2000/svg">
<g clip-path="url(#clip0)">
<path d="M52.5586 18.8843C53.2596 18.8843 53.8281 18.3159 53.8281 17.6147V3.80859C53.8281 1.70854 52.1196 0 50.0195 0H3.80859C1.70854 0 0 1.70854 0 3.80859V61.1914C0 63.2915 1.70854 65 3.80859 65H50.0195C52.1196 65 53.8281 63.2915 53.8281 61.1914V51.8385C53.8281 51.1374 53.2596 50.569 52.5586 50.569C51.8576 50.569 51.2891 51.1374 51.2891 51.8385V61.1914C51.2891 61.8914 50.7196 62.4609 50.0195 62.4609H3.80859C3.10857 62.4609 2.53906 61.8914 2.53906 61.1914V3.80859C2.53906 3.10857 3.10857 2.53906 3.80859 2.53906H50.0195C50.7196 2.53906 51.2891 3.10857 51.2891 3.80859V17.6147C51.2891 18.3159 51.8576 18.8843 52.5586 18.8843Z" fill="#FF7A00"/>
<path d="M26.9141 6.85547C20.4739 6.85547 15.2344 12.095 15.2344 18.5352C15.2344 21.8762 16.6448 24.8936 18.901 27.0244C18.9433 27.0696 18.9882 27.1124 19.0374 27.1513C21.1157 29.053 23.8817 30.2147 26.9139 30.2147C29.9462 30.2147 32.7121 29.0528 34.7905 27.1513C34.8396 27.1124 34.8845 27.0695 34.9268 27.0244C37.1833 24.8936 38.5937 21.8762 38.5937 18.5352C38.5937 12.095 33.3543 6.85547 26.9141 6.85547ZM26.9141 27.6758C24.841 27.6758 22.9279 26.9811 21.3927 25.8136C22.5085 23.8351 24.5907 22.5977 26.9141 22.5977C29.2374 22.5977 31.3196 23.8351 32.4354 25.8136C30.9001 26.9811 28.9871 27.6758 26.9141 27.6758ZM24.8828 18.0273V17.2021C24.8828 16.0822 25.7941 15.1709 26.9141 15.1709C28.034 15.1709 28.9453 16.0822 28.9453 17.2021V18.0273C28.9453 19.1473 28.034 20.0586 26.9141 20.0586C25.7941 20.0586 24.8828 19.1473 24.8828 18.0273ZM34.2697 23.9539C33.3334 22.5653 32.0358 21.4853 30.5293 20.8185C31.1272 20.0458 31.4844 19.0778 31.4844 18.0273V17.2021C31.4844 14.682 29.4342 12.6318 26.9141 12.6318C24.3939 12.6318 22.3437 14.682 22.3437 17.2021V18.0273C22.3437 19.0778 22.7009 20.0458 23.2988 20.8185C21.7923 21.4853 20.4947 22.5653 19.5584 23.9539C18.4375 22.4364 17.7734 20.5622 17.7734 18.5352C17.7734 13.495 21.8739 9.39453 26.9141 9.39453C31.9542 9.39453 36.0547 13.495 36.0547 18.5352C36.0547 20.5622 35.3906 22.4364 34.2697 23.9539Z" fill="#FF7A00"/>
<path d="M33.7695 55.6055H26.9141C26.213 55.6055 25.6445 56.1738 25.6445 56.875C25.6445 57.5762 26.213 58.1445 26.9141 58.1445H33.7695C34.4706 58.1445 35.039 57.5762 35.039 56.875C35.039 56.1738 34.4706 55.6055 33.7695 55.6055Z" fill="#FF7A00"/>
<path d="M33.7695 48.4961H15.7422C15.0412 48.4961 14.4727 49.0645 14.4727 49.7656C14.4727 50.4668 15.0412 51.0352 15.7422 51.0352H33.7695C34.4706 51.0352 35.039 50.4668 35.039 49.7656C35.039 49.0645 34.4706 48.4961 33.7695 48.4961Z" fill="#FF7A00"/>
<path d="M33.7695 41.3867H15.7422C15.0412 41.3867 14.4727 41.9551 14.4727 42.6562C14.4727 43.3574 15.0412 43.9258 15.7422 43.9258H33.7695C34.4706 43.9258 35.039 43.3574 35.039 42.6562C35.039 41.9551 34.4706 41.3867 33.7695 41.3867Z" fill="#FF7A00"/>
<path d="M11.221 34.6493C10.985 34.4132 10.6574 34.2773 10.3223 34.2773C9.98825 34.2773 9.66071 34.4132 9.42471 34.6493C9.18857 34.8854 9.05273 35.213 9.05273 35.5469C9.05273 35.8808 9.18845 36.2083 9.42471 36.4444C9.66211 36.6806 9.98825 36.8164 10.3223 36.8164C10.6574 36.8164 10.9837 36.6806 11.221 36.4444C11.4571 36.2083 11.5931 35.8808 11.5931 35.5469C11.5931 35.213 11.4572 34.8854 11.221 34.6493Z" fill="#FF7A00"/>
<path d="M11.221 41.7587C10.9837 41.5226 10.6574 41.3867 10.3223 41.3867C9.98825 41.3867 9.66211 41.5226 9.42471 41.7587C9.18857 41.9948 9.05273 42.3224 9.05273 42.6562C9.05273 42.9901 9.18845 43.3177 9.42471 43.5538C9.66211 43.7899 9.98825 43.9258 10.3223 43.9258C10.6574 43.9258 10.9837 43.7899 11.221 43.5538C11.4571 43.3177 11.5931 42.9901 11.5931 42.6562C11.5931 42.3224 11.4572 41.9948 11.221 41.7587Z" fill="#FF7A00"/>
<path d="M11.221 48.8681C10.9837 48.6319 10.6574 48.4961 10.3223 48.4961C9.98825 48.4961 9.66211 48.6319 9.42471 48.8681C9.18857 49.1042 9.05273 49.4317 9.05273 49.7656C9.05273 50.0995 9.18845 50.4271 9.42471 50.6632C9.66071 50.8993 9.98825 51.0352 10.3223 51.0352C10.6574 51.0352 10.985 50.8993 11.221 50.6632C11.4571 50.4271 11.5931 50.0995 11.5931 49.7656C11.5931 49.4317 11.4572 49.1042 11.221 48.8681Z" fill="#FF7A00"/>
<path d="M33.7695 34.2773H15.7422C15.0412 34.2773 14.4727 34.8457 14.4727 35.5469C14.4727 36.248 15.0412 36.8164 15.7422 36.8164H33.7695C34.4706 36.8164 35.039 36.248 35.039 35.5469C35.039 34.8457 34.4706 34.2773 33.7695 34.2773Z" fill="#FF7A00"/>
<path d="M62.3337 16.5445C61.1003 15.8324 59.6635 15.6433 58.2875 16.0118C56.9119 16.3805 55.7619 17.2628 55.05 18.4962L39.0739 46.1672C38.9865 46.319 38.9311 46.4872 38.9117 46.6612L37.7871 56.7342C37.7313 57.2354 37.9773 57.7223 38.414 57.9745C38.6112 58.0883 38.8302 58.1446 39.0487 58.1446C39.3143 58.1446 39.5788 58.0615 39.8016 57.8973L47.9627 51.8869C48.1037 51.783 48.2218 51.6511 48.3093 51.4994L64.2852 23.8283C65.7553 21.2821 64.8798 18.0146 62.3337 16.5445ZM40.6324 54.132L41.2197 48.8721L44.894 50.9935L40.6324 54.132ZM46.7452 49.1303L41.9077 46.3374L54.728 24.132L59.5656 26.925L46.7452 49.1303ZM62.0863 22.5587L60.835 24.7261L55.9974 21.9332L57.2488 19.7657C57.6218 19.1196 58.2241 18.6575 58.9446 18.4644C59.6655 18.2712 60.4181 18.3705 61.064 18.7435C61.7101 19.1165 62.1722 19.7187 62.3653 20.4393C62.5584 21.1599 62.4593 21.9126 62.0863 22.5587Z" fill="#FF7A00"/>
</g>
<defs>
<clipPath id="clip0">
<rect width="65" height="65" fill="white"/>
</clipPath>
</defs>
</svg>
