<svg width="67" height="67" viewBox="0 0 67 67" fill="none" xmlns="http://www.w3.org/2000/svg">
<path d="M43.5039 26.6719C44.6733 26.6719 45.6211 27.6197 45.6211 28.7891C45.6211 29.9584 44.6733 30.9062 43.5039 30.9062H16.5469C15.3775 30.9062 14.4297 29.9584 14.4297 28.7891C14.4297 27.6197 15.3775 26.6719 16.5469 26.6719H43.5039Z" fill="#FF7A00" stroke="white"/>
<path d="M14.4297 39.2578C14.4297 38.0885 15.3775 37.1406 16.5469 37.1406H32.9188C34.0881 37.1406 35.036 38.0885 35.036 39.2578C35.036 40.4271 34.0881 41.375 32.9188 41.375H16.5469C15.3775 41.375 14.4297 40.4271 14.4297 39.2578Z" fill="#FF7A00" stroke="white"/>
<path d="M13.9453 62.2656H22.6984C23.8677 62.2656 24.8156 63.2135 24.8156 64.3828C24.8156 65.5521 23.8677 66.5 22.6984 66.5H13.9453C8.44899 66.5 3.97656 62.0276 3.97656 56.5312V10.4688C3.97656 4.97242 8.44899 0.5 13.9453 0.5H46.1222C51.6185 0.5 56.0909 4.97242 56.0909 10.4688V26.5645C56.0909 27.7338 55.1431 28.6816 53.9738 28.6816C52.8044 28.6816 51.8566 27.7338 51.8566 26.5645V10.4688C51.8566 7.30637 49.2846 4.73438 46.1222 4.73438H13.9453C10.7829 4.73438 8.21094 7.30637 8.21094 10.4688V56.5312C8.21094 59.6936 10.7829 62.2656 13.9453 62.2656Z" fill="#FF7A00" stroke="white"/>
<path d="M50.4792 38.2451L50.4796 38.2447C53.3436 35.3807 58.008 35.3806 60.8742 38.2468C63.7404 41.1131 63.7404 45.7776 60.8743 48.6436L46.536 62.955L46.536 62.955C46.2777 63.2128 45.9572 63.3995 45.6055 63.4969L45.6055 63.4969L35.0419 66.423L35.0417 66.4231C34.8551 66.4748 34.665 66.5 34.4768 66.5C33.9138 66.5 33.3651 66.2752 32.9612 65.8612C32.422 65.3085 32.2264 64.5063 32.4508 63.7673L35.5801 53.4655C35.5801 53.4655 35.5801 53.4654 35.5801 53.4654C35.6815 53.1317 35.8636 52.8283 36.1104 52.582C36.1104 52.582 36.1104 52.582 36.1105 52.582L50.4792 38.2451ZM43.8119 59.5999L43.9386 59.5648L44.0317 59.472L53.6697 49.852L54.024 49.4984L53.6701 49.1445L49.9681 45.4425L49.6149 45.0894L49.2613 45.4421L39.5661 55.1159L39.4773 55.2045L39.4408 55.3245L37.8856 60.4449L37.6214 61.3148L38.4975 61.0721L43.8119 59.5999ZM57.8817 45.6483L57.8821 45.6479L53.8254 41.5947L53.4722 41.2408L53.472 41.241C53.472 41.2411 53.4719 41.2411 53.4719 41.2412L52.9669 41.7451L52.6126 42.0987L52.9665 42.4526L56.6678 46.154L57.021 46.5071L57.3746 46.1543L57.8817 45.6483Z" fill="#FF7A00" stroke="white"/>
<path d="M16.5469 16.2031H43.5039C44.6733 16.2031 45.6211 17.151 45.6211 18.3203C45.6211 19.4896 44.6733 20.4375 43.5039 20.4375H16.5469C15.3775 20.4375 14.4297 19.4896 14.4297 18.3203C14.4297 17.151 15.3775 16.2031 16.5469 16.2031Z" fill="#FF7A00" stroke="white"/>
</svg>
