<svg width="70" height="70" viewBox="0 0 70 70" fill="none" xmlns="http://www.w3.org/2000/svg">
<g clip-path="url(#clip0)">
<path d="M54.6491 22.5801L58.4638 20.3549C50.2101 6.17604 32.4201 0.759427 17.6652 7.93288V2.50439H13.25V15.75H26.4956V11.3348H20.8552C33.3444 6.03696 47.8244 10.8555 54.6491 22.5801Z" fill="#FF7A00"/>
<path d="M14.3531 56.9789C4.11718 48.6657 1.42309 34.1548 7.99303 22.7215L4.16506 20.5139C-3.32849 33.5629 -0.493106 50.0956 10.9203 59.9019H5.52273V64.3171H18.7683V51.0715H14.3531V56.9789Z" fill="#FF7A00"/>
<path d="M60.6327 30.2495L51.2681 39.6163L54.3896 42.7379L58.1425 38.985C56.6705 52.6624 45.145 63.0428 31.3887 63.0809V67.4961C47.7787 67.453 61.3753 54.8039 62.5997 38.4596L66.878 42.7379L69.9995 39.6163L60.6327 30.2495Z" fill="#FF7A00"/>
</g>
<defs>
<clipPath id="clip0">
<rect width="70" height="70" fill="white"/>
</clipPath>
</defs>
</svg>
