<svg width="65" height="65" viewBox="0 0 65 65" fill="none" xmlns="http://www.w3.org/2000/svg">
<g clip-path="url(#clip0)">
<path d="M36.8125 4.06229V3.81229H36.5625H6.09375C4.83379 3.81229 3.8125 4.83358 3.8125 6.09354V58.906C3.8125 60.166 4.83393 61.1873 6.09375 61.1873H20.0625V64.7498H6.09375C2.86629 64.7498 0.25 62.1335 0.25 58.906V6.09354C0.25 2.86621 2.8663 0.249788 6.09375 0.249788L38.5938 0.249792L38.5952 0.249784C39.0686 0.247113 39.5236 0.432854 39.8596 0.766091C39.8597 0.766171 39.8598 0.766251 39.8599 0.766331L52.046 12.9524C52.0461 12.9526 52.0463 12.9528 52.0465 12.953C52.3796 13.289 52.5653 13.7439 52.5625 14.2171V14.2185V22.0935H49V16.2498V15.9998H48.75H40.625C38.5194 15.9998 36.8125 14.2929 36.8125 12.1873V4.06229Z" fill="#FF7A00" stroke="white" stroke-width="0.5"/>
<path d="M24.375 49H24.625V48.75V36.5625V36.3125H24.375H18.2812H18.0312V36.5625V48.75V49H18.2812H24.375ZM16.25 32.75H24.375C26.4806 32.75 28.1875 34.4569 28.1875 36.5625V48.75C28.1875 50.8556 26.4806 52.5625 24.375 52.5625H16.25C15.2662 52.5625 14.4688 51.7651 14.4688 50.7812V34.5312C14.4688 33.5474 15.2662 32.75 16.25 32.75Z" fill="#FF7A00" stroke="white" stroke-width="0.5"/>
<path d="M30.7188 40.625C30.7188 36.2758 34.2445 32.75 38.5938 32.75C42.943 32.75 46.4688 36.2758 46.4688 40.625V44.6875C46.4688 49.0367 42.943 52.5625 38.5938 52.5625C34.2445 52.5625 30.7188 49.0367 30.7188 44.6875V40.625ZM38.5938 49C40.9755 49 42.9062 47.0692 42.9062 44.6875V40.625C42.9062 38.2433 40.9755 36.3125 38.5938 36.3125C36.212 36.3125 34.2812 38.2433 34.2812 40.625V44.6875C34.2812 47.0692 36.212 49 38.5938 49Z" fill="#FF7A00" stroke="white" stroke-width="0.5"/>
<path d="M52.5625 44.6875C52.5625 47.0692 54.4933 49 56.875 49C59.1728 49 61.0509 47.2029 61.1804 44.9375H64.7461C64.6141 49.171 61.1406 52.5625 56.875 52.5625C52.5258 52.5625 49 49.0367 49 44.6875V40.625C49 36.2758 52.5258 32.75 56.875 32.75C61.1406 32.75 64.6141 36.1415 64.7461 40.375H61.1804C61.0509 38.1096 59.1728 36.3125 56.875 36.3125C54.4933 36.3125 52.5625 38.2433 52.5625 40.625V44.6875Z" fill="#FF7A00" stroke="white" stroke-width="0.5"/>
</g>
<defs>
<clipPath id="clip0">
<rect width="65" height="65" fill="white"/>
</clipPath>
</defs>
</svg>
