<svg width="65" height="65" viewBox="0 0 65 65" fill="none" xmlns="http://www.w3.org/2000/svg">
<g clip-path="url(#clip0)">
<path d="M48.8767 21.282C52.028 21.282 54.5918 18.7182 54.5918 15.5669C54.5918 12.4157 52.028 9.85186 48.8767 9.85186C45.7255 9.85186 43.1617 12.4157 43.1617 15.5669C43.1617 18.7182 45.7254 21.282 48.8767 21.282ZM48.8767 13.6619C49.9271 13.6619 50.7818 14.5165 50.7818 15.5669C50.7818 16.6173 49.9271 17.472 48.8767 17.472C47.8263 17.472 46.9717 16.6173 46.9717 15.5669C46.9718 14.5165 47.8262 13.6619 48.8767 13.6619Z" fill="#FF7A00"/>
<path d="M58.3078 6.13788L58.131 6.31465C66.2037 14.3874 66.2037 27.5235 58.131 35.5962C52.7858 40.9413 44.9829 42.9039 37.7945 40.8444L37.567 40.7792L37.4894 41.0027L35.2419 47.4747L35.2418 47.4747C35.0495 48.0288 34.5781 48.4397 34.0029 48.5546L28.5145 49.6514L28.351 49.6841L28.3184 49.8475L27.2205 55.3372C27.0894 55.9923 26.5774 56.5045 25.9223 56.6355L25.9713 56.8802L25.9223 56.6355L20.4315 57.7343L20.268 57.767L20.2354 57.9304L19.1381 63.4192L19.3833 63.4682L19.1381 63.4193C18.9726 64.2477 18.2091 64.8187 17.3676 64.7433L2.32668 63.3966C2.32402 63.3962 2.32036 63.3957 2.3161 63.3952L2.31611 63.3952L2.31157 63.3948C1.49698 63.3192 0.857567 62.6558 0.817711 61.8269L0.568039 61.8389L0.817738 61.8275C0.816738 61.8056 0.815819 61.7923 0.81511 61.7819C0.81424 61.7692 0.813683 61.7611 0.813683 61.7476L0.813684 50.9716C0.813684 50.5299 0.990274 50.1063 1.30425 49.7956L1.30428 49.7955L23.7229 27.5971L23.8321 27.4889L23.7849 27.3426C23.1274 25.3067 22.7849 23.1579 22.7849 20.9555C22.7849 9.53399 32.0419 0.250188 43.4902 0.250189C49.0211 0.250189 54.22 2.40351 58.131 6.31465L58.3078 6.13788ZM2.29876 63.6451L17.3453 64.9923L2.29876 63.6451ZM55.7905 33.2553L55.6137 33.0785L55.7905 33.2553C62.573 26.4727 62.573 15.4373 55.7905 8.6548C52.5053 5.36959 48.1362 3.5598 43.49 3.56019C27.9822 3.56019 20.3124 22.3781 31.1899 33.2556L31.1899 33.2556C31.8379 33.9033 31.8355 34.9557 31.185 35.6009L6.54311 60.0379L6.16136 60.4165L6.69685 60.4645L15.96 61.2937L16.1835 61.3137L16.2275 61.0937L17.2384 56.0359C17.3693 55.3807 17.8814 54.8684 18.5365 54.7374L18.4875 54.4923L18.5365 54.7374L24.0275 53.6386L24.1909 53.6059L24.2236 53.4425L25.3216 47.9524C25.4526 47.2973 25.965 46.7851 26.6202 46.6542L26.5712 46.409L26.6202 46.6542L32.2854 45.522L32.4256 45.494L32.4726 45.3589L34.9817 38.1334C35.2897 37.2467 36.2741 36.7934 37.1479 37.1352C39.2133 37.9431 41.3696 38.336 43.5052 38.336C48.0341 38.336 52.4749 36.5708 55.7905 33.2553ZM4.19778 51.5882L4.12368 51.6615L4.12368 51.7658L4.12368 57.1754L4.12368 57.7754L4.54972 57.3529L27.557 34.5374L27.72 34.3758L27.5728 34.1996C26.7452 33.2088 26.0195 32.1515 25.3985 31.0416L25.238 30.7548L25.0044 30.986L4.19778 51.5882Z" fill="#FF7A00" stroke="white" stroke-width="0.5"/>
</g>
<defs>
<clipPath id="clip0">
<rect width="65" height="65" fill="white" transform="translate(65 65) rotate(-180)"/>
</clipPath>
</defs>
</svg>
