<svg width="61" height="61" viewBox="0 0 61 61" fill="none" xmlns="http://www.w3.org/2000/svg">
<g clip-path="url(#clip0)">
<path d="M21.5711 16.9882L20.5395 17.3621C18.9473 17.9394 17.7594 19.3322 17.4393 20.9979L17.0893 22.8322C16.9146 23.7407 17.1524 24.6712 17.742 25.3848C18.3319 26.099 19.2016 26.5086 20.1278 26.5086H29.0702C29.9892 26.5086 30.8545 26.1044 31.4443 25.3995C32.0335 24.6953 32.2787 23.7733 32.1169 22.8698L31.7905 21.0452C31.488 19.3533 30.2962 17.9379 28.68 17.3514L27.5863 16.955V15.343C27.5863 15.2977 27.5819 15.2536 27.5753 15.2102C28.3732 14.3979 28.8302 13.2902 28.8302 12.1569V9.75519C28.8302 7.41074 26.9228 5.50342 24.5782 5.50342C22.2336 5.50342 20.3258 7.41074 20.3258 9.75519V12.2318C20.3258 13.3967 20.8062 14.4603 21.5786 15.2327C21.5741 15.2689 21.5711 15.3055 21.5711 15.3429V16.9882ZM30.031 21.3597L30.3575 23.1846C30.4259 23.566 30.3223 23.9552 30.0734 24.2526C29.8242 24.5504 29.4584 24.7214 29.0699 24.7214H20.1276C19.7362 24.7214 19.3688 24.5484 19.1195 24.2466C18.8708 23.9454 18.7703 23.5529 18.8442 23.1684L19.1942 21.3341C19.3959 20.2842 20.1449 19.4061 21.1481 19.0423L21.8239 18.7975C21.8408 18.8149 21.8579 18.8324 21.8762 18.8485C22.6462 19.5217 23.6121 19.8584 24.5786 19.8583C25.5438 19.8583 26.5095 19.5223 27.2796 18.8504C27.3074 18.8262 27.3328 18.8001 27.3572 18.7729L28.07 19.0314C29.0891 19.4009 29.8404 20.2931 30.031 21.3597ZM22.1129 9.75519C22.1129 8.39627 23.2187 7.29053 24.5778 7.29053C25.7249 7.29053 26.6888 8.07924 26.9624 9.14197C26.8476 9.19809 26.7298 9.25111 26.6091 9.29936C25.5104 9.73922 24.6229 9.68085 24.3692 9.50309C23.9651 9.21977 23.408 9.31747 23.1246 9.72159C22.8412 10.1257 22.9391 10.6828 23.3431 10.9663C23.7795 11.2723 24.3718 11.4253 25.0478 11.4253C25.662 11.4253 26.3453 11.2977 27.0429 11.0452V12.1567C27.0429 12.8397 26.7604 13.5086 26.2677 13.9917C26.0397 14.2155 25.7784 14.3888 25.4978 14.5084C25.4782 14.5159 25.4589 14.524 25.4399 14.5328C25.1517 14.6469 24.8439 14.7042 24.5292 14.696C23.1968 14.6703 22.1129 13.5648 22.1129 12.2316V9.75519ZM24.4949 16.4829C24.5222 16.4834 24.5492 16.4837 24.5765 16.4837C24.9958 16.4837 25.4066 16.4206 25.799 16.2997V17.7293C25.0543 18.1884 24.1022 18.1882 23.3584 17.7286V16.3023C23.7199 16.4118 24.1008 16.4753 24.4949 16.4829Z" fill="#FF7A00"/>
<path d="M10.5166 41.8066H38.3443C38.8379 41.8066 39.2378 41.4067 39.2378 40.9131C39.2378 40.4195 38.8379 40.0195 38.3443 40.0195H10.5166C10.023 40.0195 9.62305 40.4195 9.62305 40.9131C9.62305 41.4067 10.023 41.8066 10.5166 41.8066Z" fill="#FF7A00"/>
<path d="M10.5166 46.625H38.3443C38.8379 46.625 39.2378 46.225 39.2378 45.7314C39.2378 45.2378 38.8379 44.8379 38.3443 44.8379H10.5166C10.023 44.8379 9.62305 45.2378 9.62305 45.7314C9.62305 46.225 10.023 46.625 10.5166 46.625Z" fill="#FF7A00"/>
<path d="M10.5166 51.4429H38.3443C38.8379 51.4429 39.2378 51.0429 39.2378 50.5493C39.2378 50.0557 38.8379 49.6558 38.3443 49.6558H10.5166C10.023 49.6558 9.62305 50.0557 9.62305 50.5493C9.62305 51.0429 10.023 51.4429 10.5166 51.4429Z" fill="#FF7A00"/>
<path d="M10.5166 56.2612H38.3443C38.8379 56.2612 39.2378 55.8613 39.2378 55.3677C39.2378 54.8741 38.8379 54.4741 38.3443 54.4741H10.5166C10.023 54.4741 9.62305 54.8741 9.62305 55.3677C9.62305 55.8613 10.023 56.2612 10.5166 56.2612Z" fill="#FF7A00"/>
<path d="M9.62305 31.2773C9.62305 31.7709 10.023 32.1709 10.5166 32.1709H38.3443C38.8379 32.1709 39.2378 31.7709 39.2378 31.2773C39.2378 30.7837 38.8379 30.3838 38.3443 30.3838H10.5166C10.023 30.3838 9.62305 30.7839 9.62305 31.2773Z" fill="#FF7A00"/>
<path d="M10.5166 36.9888H38.3443C38.8379 36.9888 39.2378 36.5888 39.2378 36.0952C39.2378 35.6016 38.8379 35.2017 38.3443 35.2017H10.5166C10.023 35.2017 9.62305 35.6016 9.62305 36.0952C9.62305 36.5888 10.023 36.9888 10.5166 36.9888Z" fill="#FF7A00"/>
<path d="M7.2172 41.8104C7.71259 41.8104 8.11421 41.4089 8.11421 40.9135C8.11421 40.4182 7.71259 40.0166 7.2172 40.0166C6.72182 40.0166 6.32031 40.4181 6.32031 40.9135C6.32031 41.4089 6.72194 41.8104 7.2172 41.8104Z" fill="#FF7A00"/>
<path d="M7.2172 32.1741C7.71259 32.1741 8.11421 31.7726 8.11421 31.2773C8.11421 30.7819 7.71259 30.3804 7.2172 30.3804C6.72182 30.3804 6.32031 30.7819 6.32031 31.2773C6.32031 31.7726 6.72194 32.1741 7.2172 32.1741Z" fill="#FF7A00"/>
<path d="M7.2172 36.992C7.71259 36.992 8.11421 36.5905 8.11421 36.0951C8.11421 35.5997 7.71259 35.1982 7.2172 35.1982C6.72182 35.1982 6.32031 35.5997 6.32031 36.0951C6.32031 36.5905 6.72194 36.992 7.2172 36.992Z" fill="#FF7A00"/>
<path d="M7.2172 46.6283C7.71259 46.6283 8.11421 46.2267 8.11421 45.7314C8.11421 45.236 7.71259 44.8345 7.2172 44.8345C6.72182 44.8345 6.32031 45.236 6.32031 45.7314C6.32031 46.2267 6.72194 46.6283 7.2172 46.6283Z" fill="#FF7A00"/>
<path d="M7.2172 51.4466C7.71259 51.4466 8.11421 51.0451 8.11421 50.5497C8.11421 50.0543 7.71259 49.6528 7.2172 49.6528C6.72182 49.6528 6.32031 50.0543 6.32031 50.5497C6.32031 51.045 6.72194 51.4466 7.2172 51.4466Z" fill="#FF7A00"/>
<path d="M7.2172 56.2645C7.71259 56.2645 8.11421 55.863 8.11421 55.3676C8.11421 54.8723 7.71259 54.4707 7.2172 54.4707C6.72182 54.4707 6.32031 54.8722 6.32031 55.3676C6.32031 55.8629 6.72194 56.2645 7.2172 56.2645Z" fill="#FF7A00"/>
<path d="M57.8595 14.073C57.499 13.6167 57.1582 13.1855 56.9934 12.7883C56.8157 12.3595 56.7456 11.793 56.6715 11.193C56.5415 10.142 56.3943 8.95068 55.5629 8.11943C54.7316 7.28819 53.5402 7.14093 52.4891 7.01095C51.889 6.93684 51.3222 6.86679 50.8934 6.68903C50.4961 6.52426 50.0651 6.18376 49.6086 5.82312C48.9806 5.3269 48.29 4.78207 47.4734 4.53485V4.26452C47.4735 1.91316 45.5602 0 43.2085 0H5.98375C3.63203 0 1.71875 1.91316 1.71875 4.26464V7.71364C1.71875 8.20724 2.11871 8.6072 2.6123 8.6072C3.1059 8.6072 3.50586 8.20724 3.50586 7.71364V4.26464C3.50586 2.89845 4.61744 1.78711 5.98375 1.78711H43.2085C44.5748 1.78711 45.6864 2.89845 45.6864 4.26464V4.53509C44.8701 4.78242 44.1796 5.32702 43.5516 5.82324C43.0952 6.18376 42.6642 6.52438 42.2669 6.68915C41.8382 6.86679 41.2714 6.93684 40.6713 7.01107C39.6202 7.14093 38.429 7.28819 37.5975 8.11943C36.766 8.9508 36.6187 10.1421 36.4888 11.1931C36.4146 11.793 36.3446 12.3596 36.1668 12.7884C36.0021 13.1856 35.6614 13.6168 35.3008 14.0731C34.6331 14.918 33.8766 15.8755 33.8766 17.1013C33.8766 18.3272 34.6333 19.2847 35.3008 20.1295C35.6613 20.5858 36.0021 21.017 36.1668 21.4142C36.3446 21.843 36.4146 22.4095 36.4888 23.0096C36.6187 24.0606 36.766 25.2519 37.5974 26.0831C38.4287 26.9145 39.6201 27.0616 40.6712 27.1916C40.9845 27.2303 41.2882 27.2683 41.5685 27.3207V40.8273C41.5685 41.3567 41.864 41.8294 42.3397 42.061C42.8154 42.293 43.3697 42.2342 43.7868 41.9076L45.6863 40.4204V56.7355C45.6863 58.1017 44.5747 59.213 43.2084 59.213H5.98375C4.61744 59.213 3.50586 58.1017 3.50586 56.7355V5.6485C3.50586 5.1549 3.1059 4.75494 2.6123 4.75494C2.11871 4.75494 1.71875 5.1549 1.71875 5.6485V56.7354C1.71875 59.0868 3.63203 61 5.98375 61H43.2085C45.5602 61 47.4735 59.0868 47.4735 56.7354V40.4202L49.373 41.9074C49.6209 42.1016 49.9176 42.2012 50.2176 42.2012C50.422 42.2012 50.6279 42.1548 50.8209 42.0608C51.2967 41.8292 51.5924 41.3565 51.5924 40.8272V30.8555C51.5924 30.3619 51.1925 29.962 50.6989 29.962C50.2053 29.962 49.8053 30.3619 49.8053 30.8555V39.9763L47.43 38.1167C47.19 37.9266 46.8881 37.8219 46.5798 37.8219C46.2716 37.8219 45.9697 37.9266 45.7335 38.1136L43.3555 39.9754V28.2251C43.4204 28.2759 43.4855 28.3272 43.5515 28.3793C44.3965 29.047 45.3541 29.8034 46.5801 29.8034C47.8059 29.8034 48.7636 29.0468 49.6085 28.3794C50.0649 28.0189 50.4961 27.6782 50.8933 27.5134C51.3221 27.3357 51.8889 27.2657 52.489 27.1915C53.54 27.0616 54.7313 26.9143 55.5629 26.0831C56.3942 25.2517 56.5414 24.0604 56.6714 23.0095C56.7456 22.4095 56.8157 21.8429 56.9934 21.4141C57.1582 21.0169 57.4988 20.5857 57.8595 20.1294C58.5271 19.2846 59.2837 18.327 59.2837 17.1012C59.2837 15.8754 58.527 14.9178 57.8595 14.073ZM56.4573 19.0214C56.037 19.5534 55.6024 20.1033 55.3428 20.7295C55.072 21.3824 54.9834 22.0981 54.8979 22.7902C54.7941 23.6296 54.6962 24.4225 54.2994 24.8193C53.9026 25.216 53.1096 25.3139 52.27 25.4177C51.5778 25.5032 50.8622 25.5916 50.2091 25.8625C49.5829 26.1221 49.0329 26.5566 48.501 26.9769C47.8244 27.5112 47.1854 28.0162 46.5803 28.0162C45.9752 28.0162 45.3363 27.5114 44.6597 26.9769C44.1277 26.5567 43.5777 26.1221 42.9515 25.8625C42.9084 25.8446 42.7588 25.7876 42.7265 25.7776C42.1359 25.5722 41.5041 25.4935 40.8905 25.4177C40.0509 25.3139 39.2579 25.2159 38.8611 24.8191C38.4645 24.4225 38.3664 23.6296 38.2626 22.7903C38.1771 22.0981 38.0887 21.3826 37.8179 20.7295C37.5582 20.1033 37.1236 19.5534 36.7033 19.0214C36.169 18.3449 35.6641 17.7061 35.6641 17.1012C35.6641 16.4963 36.1689 15.8575 36.7033 15.181C37.1236 14.6491 37.5583 14.0991 37.8179 13.4729C38.0887 12.82 38.1772 12.1043 38.2626 11.4122C38.3664 10.5728 38.4645 9.7799 38.8612 9.38316C39.2581 8.98642 40.0511 8.88849 40.8906 8.78471C41.5828 8.69917 42.2984 8.61077 42.9515 8.33996C43.5777 8.08036 44.1277 7.64585 44.6597 7.22552C45.3348 6.69213 45.9727 6.1884 46.5767 6.1865L46.5801 6.18661L46.5837 6.1865C47.1878 6.18828 47.8257 6.69213 48.501 7.22552C49.0329 7.64573 49.5829 8.08036 50.2091 8.33996C50.8621 8.61077 51.5779 8.69929 52.2701 8.78471C53.1097 8.88849 53.9027 8.98654 54.2994 9.38328C54.6962 9.78002 54.7942 10.5728 54.898 11.4122C54.9835 12.1043 55.072 12.8199 55.3428 13.4729C55.6025 14.0991 56.037 14.6491 56.4573 15.181C56.9917 15.8575 57.4966 16.4963 57.4966 17.1012C57.4966 17.7061 56.9918 18.345 56.4573 19.0214Z" fill="#FF7A00"/>
<path d="M52.3147 14.2617L49.274 13.4014L47.5158 10.7755C47.3058 10.462 46.9553 10.2749 46.578 10.2749C46.2006 10.2749 45.85 10.4621 45.6401 10.7755L43.8819 13.4014L40.841 14.2618C40.4778 14.3646 40.1914 14.6405 40.0749 14.9993C39.9584 15.3582 40.0282 15.7495 40.2615 16.0457L42.2157 18.529L42.0944 21.6858C42.0798 22.063 42.2533 22.4207 42.5586 22.6427C42.7546 22.785 42.9868 22.8587 43.2216 22.8587C43.3529 22.8587 43.4849 22.8357 43.6117 22.789L46.5777 21.6979L49.5435 22.7888C49.8977 22.9194 50.2912 22.8646 50.5966 22.6429C50.9019 22.4212 51.0756 22.0636 51.0611 21.6863L50.9398 18.5288L52.8942 16.0456C53.1275 15.7491 53.1972 15.3579 53.0805 14.9991C52.9644 14.6402 52.678 14.3645 52.3147 14.2617ZM49.3854 17.6147C49.2203 17.8248 49.1348 18.0877 49.145 18.3556L49.2376 20.7723L46.9677 19.9372C46.7162 19.8446 46.4392 19.8448 46.1881 19.9371L43.9179 20.7723L44.0107 18.3548C44.0207 18.0878 43.9352 17.825 43.7697 17.6141L42.274 15.7136L44.6019 15.0551C44.8593 14.982 45.0832 14.8193 45.232 14.597L46.5777 12.5871L47.9233 14.5967C48.0722 14.8192 48.2961 14.9819 48.554 15.0552L50.8814 15.7136L49.3854 17.6147Z" fill="#FF7A00"/>
</g>
<defs>
<clipPath id="clip0">
<rect width="61" height="61" fill="white"/>
</clipPath>
</defs>
</svg>
