<svg width="61" height="61" viewBox="0 0 61 61" fill="none" xmlns="http://www.w3.org/2000/svg">
<path d="M53.2832 8.08427H48.1386V2.93979C48.1387 1.32282 46.8157 0 45.1995 0H7.71701C6.10016 0 4.77734 1.32282 4.77734 2.93979V49.9758C4.77734 51.5927 6.10016 52.9156 7.71713 52.9156H12.8617V58.0602C12.8617 59.6771 14.184 61 15.8015 61H40.7887C42.4049 61 44.692 60.0931 45.8686 58.9856L54.0809 51.2555C55.2589 50.148 56.2217 47.9181 56.2217 46.3013L56.2231 11.0243C56.223 9.40721 54.9001 8.08427 53.2832 8.08427ZM12.8615 11.0242V50.7108H7.71701C7.31873 50.7108 6.98216 50.3742 6.98216 49.9759V2.93979C6.98216 2.5415 7.31873 2.20493 7.71701 2.20493H45.1997C45.5972 2.20493 45.9345 2.5415 45.9345 2.93979V8.08439H15.8013C14.1837 8.08439 12.8615 9.40721 12.8615 11.0242ZM52.5697 49.6502L44.3575 57.3797C44.1892 57.5378 43.9701 57.6928 43.7283 57.8404V51.0782C43.7283 50.5733 43.9319 50.119 44.2677 49.781C44.6066 49.4452 45.0607 49.241 45.5657 49.241H52.9188C52.8047 49.3958 52.688 49.5385 52.5697 49.6502ZM54.0166 46.3011C54.0166 46.5193 53.9768 46.7721 53.9167 47.0359H45.5655C43.3351 47.0403 41.5279 48.8476 41.5233 51.0781V58.706C41.261 58.759 41.0082 58.7948 40.7885 58.7948H15.8013V58.795C15.4022 58.795 15.0664 58.4584 15.0664 58.0601V11.0241C15.0664 10.6258 15.4023 10.2892 15.8013 10.2892H53.2831C53.6814 10.2892 54.018 10.6258 54.018 11.0241L54.0166 46.3011Z" fill="#FF7A00"/>
<path d="M45.2007 18.373H23.8876C23.2783 18.373 22.7852 18.8662 22.7852 19.4755C22.7852 20.0847 23.2784 20.5779 23.8876 20.5779H45.2007C45.8093 20.5779 46.3031 20.0847 46.3031 19.4755C46.3031 18.8662 45.8093 18.373 45.2007 18.373Z" fill="#FF7A00"/>
<path d="M45.2007 33.0723H23.8876C23.2783 33.0723 22.7852 33.5654 22.7852 34.1747C22.7852 34.7839 23.2784 35.2771 23.8876 35.2771H45.2007C45.8093 35.2771 46.3031 34.7839 46.3031 34.1747C46.3031 33.5653 45.8093 33.0723 45.2007 33.0723Z" fill="#FF7A00"/>
<path d="M35.6465 40.4219H23.8876C23.2783 40.4219 22.7852 40.915 22.7852 41.5243C22.7852 42.1336 23.2783 42.6267 23.8876 42.6267H35.6465C36.2551 42.6267 36.7482 42.1336 36.7482 41.5243C36.7482 40.915 36.2551 40.4219 35.6465 40.4219Z" fill="#FF7A00"/>
<path d="M45.2007 25.7227H23.8876C23.2783 25.7227 22.7852 26.2158 22.7852 26.8251C22.7852 27.4343 23.2784 27.9275 23.8876 27.9275H45.2007C45.8093 27.9275 46.3031 27.4343 46.3031 26.8251C46.3031 26.2158 45.8093 25.7227 45.2007 25.7227Z" fill="#FF7A00"/>
</svg>
