<svg width="61" height="61" viewBox="0 0 61 61" fill="none" xmlns="http://www.w3.org/2000/svg">
<g clip-path="url(#clip0)">
<path d="M10.1352 54.2006C9.91369 53.9789 9.60631 53.8516 9.29297 53.8516C8.97963 53.8516 8.67225 53.9789 8.45064 54.2006C8.22904 54.4224 8.10156 54.7296 8.10156 55.043C8.10156 55.3563 8.22892 55.6637 8.45064 55.8852C8.67225 56.1068 8.97963 56.2344 9.29297 56.2344C9.60631 56.2344 9.91369 56.1069 10.1352 55.8852C10.3568 55.6637 10.4844 55.3563 10.4844 55.043C10.4844 54.7296 10.3569 54.4222 10.1352 54.2006Z" fill="#FF7A00"/>
<path d="M55.94 21.7954C55.7184 21.5737 55.4122 21.4463 55.0977 21.4463C54.7843 21.4463 54.4769 21.5737 54.2553 21.7954C54.0338 22.017 53.9062 22.3244 53.9062 22.6377C53.9062 22.951 54.0337 23.2584 54.2553 23.4799C54.4769 23.7015 54.7843 23.8291 55.0977 23.8291C55.4122 23.8291 55.7184 23.7016 55.94 23.4799C56.1627 23.2584 56.2901 22.951 56.2901 22.6377C56.2901 22.3244 56.1627 22.017 55.94 21.7954Z" fill="#FF7A00"/>
<path d="M60.6495 0.348963C60.426 0.125574 60.1229 0 59.8068 0L30.4989 0.00154883C29.841 0.00154883 29.3076 0.535061 29.3076 1.19296V4.60002L18.0144 7.62607C17.3788 7.79644 17.0016 8.44969 17.172 9.08519L23.025 30.9287L17.9616 35.992C17.3172 35.0511 16.2352 34.4322 15.0112 34.4322H3.5741C1.60328 34.4322 0 36.0356 0 38.0063V57.4258C0 59.3966 1.60328 61 3.5741 61H15.0114C16.6856 61 18.0941 59.8424 18.4801 58.286L19.8967 59.5213C20.9903 60.4749 22.3914 61.0001 23.8424 61.0001H59.807C60.4649 61.0001 60.9985 60.4666 60.9985 59.8087V1.19141C60.9982 0.875445 60.8729 0.572352 60.6495 0.348963ZM16.2025 57.4259C16.2025 58.0827 15.6681 58.6173 15.0111 58.6173H3.57398C2.91704 58.6173 2.38257 58.0828 2.38257 57.4259V38.0065C2.38257 37.3495 2.91704 36.815 3.57398 36.815H8.1012V50.5395C8.1012 51.1973 8.63472 51.7309 9.29261 51.7309C9.95051 51.7309 10.484 51.1973 10.484 50.5395V36.815H15.0112C15.6682 36.815 16.2026 37.3495 16.2026 38.0065V57.4259H16.2025ZM19.7819 9.6193L29.3076 7.06683V11.4816L28.5092 11.6956C28.2038 11.7774 27.9437 11.977 27.7857 12.2506C27.6278 12.5243 27.5849 12.8494 27.6667 13.1547C28.1246 14.8633 27.107 16.6257 25.3984 17.0836C25.0928 17.1655 24.8322 17.3655 24.6744 17.6397C24.5165 17.9139 24.474 18.2396 24.5566 18.5451L29.2005 35.7416H26.8094L25.5771 30.9207C25.5379 30.7672 25.4693 30.6258 25.3774 30.5029L19.7819 9.6193ZM29.3076 16.9453V26.9985L27.1346 18.9523C28.0424 18.4836 28.7852 17.7823 29.3076 16.9453ZM46.4239 58.6172H23.8422C22.9671 58.6172 22.122 58.3005 21.4625 57.7254L18.5853 55.2162V38.7382L23.7868 33.5368L24.7301 37.2278C24.865 37.7552 25.34 38.124 25.8844 38.124L49.3079 38.1255C50.2277 38.1255 50.9759 38.8737 50.9759 39.7934C50.9759 40.7132 50.2277 41.4614 49.3079 41.4614H37.3057C36.6478 41.4614 36.1143 41.9949 36.1143 42.6528C36.1143 43.3107 36.6478 43.8442 37.3057 43.8442H53.037C53.9568 43.8442 54.705 44.5924 54.705 45.5122C54.705 46.432 53.9568 47.1802 53.037 47.1802H37.3057C36.6478 47.1802 36.1143 47.7137 36.1143 48.3716C36.1143 49.0295 36.6478 49.563 37.3057 49.563H50.4877C51.4075 49.563 52.1557 50.3112 52.1557 51.2309C52.1557 52.1507 51.4075 52.8989 50.4877 52.8989H37.3057C36.6478 52.8989 36.1143 53.4324 36.1143 54.0903C36.1143 54.7482 36.6478 55.2817 37.3057 55.2817H46.4239C47.3436 55.2817 48.0918 56.0299 48.0918 56.9497C48.0917 57.869 47.3435 58.6172 46.4239 58.6172ZM58.6156 58.6172H58.6155H50.1138C50.3448 58.1081 50.4745 57.5437 50.4745 56.9492C50.4745 56.3547 50.3448 55.7903 50.1138 55.2812H50.4877C52.7213 55.2812 54.5384 53.4641 54.5384 51.2306C54.5384 50.5791 54.3829 49.9635 54.1084 49.4176C55.8236 48.9465 57.0875 47.3745 57.0875 45.512C57.0875 44.6084 56.7899 43.7731 56.288 43.0988V27.9989C56.288 27.341 55.7545 26.8075 55.0966 26.8075C54.4387 26.8075 53.9052 27.341 53.9052 27.9989V41.5561C53.6252 41.4948 53.3349 41.4614 53.0368 41.4614H52.9977C53.2287 40.9523 53.3584 40.388 53.3584 39.7934C53.3584 37.5598 51.5413 35.7428 49.3078 35.7428H47.3926C49.4262 34.8707 50.8545 32.8493 50.8545 30.5C50.8545 27.356 48.2967 24.7982 45.1527 24.7982C42.0089 24.7982 39.451 27.356 39.451 30.5C39.451 32.8493 40.8794 34.8707 42.9129 35.7428H36.4003V13.0891C38.5287 12.6253 40.2081 10.946 40.6717 8.8176H49.6336C50.0973 10.946 51.7767 12.6253 53.9051 13.0891V16.7932C53.9051 17.4511 54.4386 17.9846 55.0965 17.9846C55.7544 17.9846 56.2879 17.4511 56.2879 16.7932V12.0255C56.2879 11.3676 55.7544 10.8341 55.0965 10.8341C53.3276 10.8341 51.8887 9.39495 51.8887 7.62619C51.8887 6.9683 51.3552 6.43478 50.6973 6.43478H39.6082C38.9503 6.43478 38.4168 6.9683 38.4168 7.62619C38.4168 9.39507 36.9778 10.8341 35.209 10.8341C34.5511 10.8341 34.0176 11.3676 34.0176 12.0255V35.7427H31.6906V2.38412L58.6156 2.38281V58.6172ZM45.153 33.819C43.3229 33.819 41.8341 32.3301 41.8341 30.5001C41.8341 28.6701 43.323 27.1811 45.153 27.1811C46.983 27.1811 48.4719 28.67 48.4719 30.5C48.4719 32.33 46.9831 33.819 45.153 33.819Z" fill="#FF7A00"/>
</g>
<defs>
<clipPath id="clip0">
<rect width="61" height="61" fill="white"/>
</clipPath>
</defs>
</svg>
