<svg width="61" height="61" viewBox="0 0 61 61" fill="none" xmlns="http://www.w3.org/2000/svg">
<mask id="path-1-inside-1" fill="white">
<path d="M56.38 12.4209C60.4564 8.34589 60.7045 2.1678 60.7129 1.90672L60.7757 0L58.868 0.0623627C58.6069 0.0712051 52.4265 0.31926 48.3502 4.39424C45.0389 7.70412 44.2538 12.4023 44.0709 14.1889L42.0981 16.1584C42.1339 15.7824 42.1539 15.4008 42.1539 15.0126C42.1539 9.24969 37.9593 4.70605 37.7806 4.51524L36.4761 3.12279L35.1716 4.51524C34.9934 4.70605 30.7983 9.24969 30.7983 15.0126C30.7983 18.914 32.7199 22.2546 34.0174 24.0664L33.822 24.2493L33.9099 24.3321L31.8347 26.4036C31.8692 26.0332 31.8887 25.6567 31.8887 25.2741C31.8887 19.5111 27.6937 14.9675 27.5154 14.7767L26.2109 13.3842L24.9064 14.7767C24.7277 14.9675 20.5331 19.5111 20.5331 25.2741C20.5331 29.1755 22.4548 32.5161 23.7518 34.3279L23.5563 34.5108L23.6373 34.5866L21.571 36.6492C21.6045 36.2834 21.6236 35.9125 21.6236 35.5356C21.6236 29.7726 17.4285 25.229 17.2498 25.0381L15.9458 23.6457L14.6413 25.0381C14.4626 25.229 10.2675 29.7726 10.2675 35.5356C10.2675 39.4369 12.1896 42.7775 13.4866 44.5888L13.2912 44.7717L13.3647 44.8406L0.238281 57.9447L2.76397 60.4732L15.8922 47.3677L15.9462 47.4254L16.1291 47.2299C17.9414 48.527 21.2834 50.4481 25.1857 50.4481C25.9066 50.4481 26.64 50.3797 27.38 50.249C29.1741 56.4512 34.9059 61 41.6806 61C49.8878 61 56.5648 54.3253 56.5648 46.1214C56.5648 38.5173 50.8288 32.2285 43.4551 31.3489C41.5494 30.1612 38.6951 28.8348 35.4513 28.8348C35.0999 28.8348 34.7537 28.8511 34.4126 28.8804L36.4366 26.8597L36.4766 26.9025L36.6595 26.707C38.4717 28.0041 41.8137 29.9248 45.7165 29.9248C51.4813 29.9248 56.0268 25.7316 56.2176 25.5529L57.6105 24.2493L56.2176 22.9453C56.0268 22.7666 51.4813 18.5734 45.7165 18.5734C45.3702 18.5734 45.0291 18.5892 44.6931 18.6176L46.6198 16.6941C48.4344 16.5047 53.0916 15.7079 56.38 12.4209ZM50.8777 6.92039C52.6578 5.14073 55.0937 4.31978 56.8296 3.94421C56.454 5.68059 55.6326 8.11459 53.8525 9.89426C52.0696 11.6767 49.6295 12.4972 47.8931 12.8718C48.2645 11.1424 49.0831 8.71402 50.8777 6.92039ZM36.4803 8.69447C37.4413 10.1805 38.5802 12.4758 38.5802 15.0126C38.5802 17.5332 37.4353 19.8383 36.4724 21.3308C35.5114 19.8448 34.373 17.5495 34.373 15.0126C34.373 12.4921 35.5174 10.187 36.4803 8.69447ZM26.2114 37.164L26.3948 36.968C27.0482 37.4362 27.9012 37.9845 28.9056 38.495C28.7087 38.8231 28.5249 39.1596 28.3531 39.503C27.2837 39.2331 26.2235 39.0963 25.1857 39.0963C24.8297 39.0963 24.4778 39.1126 24.1316 39.1428L26.1644 37.1137L26.2114 37.164ZM26.2151 18.9559C27.1762 20.4419 28.315 22.7372 28.315 25.2741C28.315 27.7951 27.1701 30.0998 26.2072 31.5923C25.2462 30.1063 24.1078 27.811 24.1078 25.2741C24.1078 22.7535 25.2522 20.4484 26.2151 18.9559ZM15.9458 29.2239C16.9082 30.7169 18.0493 33.0187 18.0493 35.5356C18.0493 38.0529 16.9077 40.3547 15.9462 41.8472C14.9838 40.3542 13.8422 38.0524 13.8422 35.5356C13.8422 33.0187 14.9843 30.7164 15.9458 29.2239ZM25.1857 46.8749C22.6679 46.8749 20.3651 45.7337 18.8717 44.7722C20.3656 43.8102 22.6679 42.6691 25.1857 42.6691C25.8242 42.6691 26.4809 42.7454 27.151 42.892C26.9197 43.9322 26.7964 45.0124 26.7964 46.1214C26.7964 46.3224 26.802 46.5221 26.8099 46.7213C26.2575 46.8223 25.7144 46.8749 25.1857 46.8749ZM52.9906 46.1214C52.9906 52.3553 47.9169 57.4272 41.6806 57.4272C35.4443 57.4272 30.3706 52.3553 30.3706 46.1214C30.3706 39.8874 35.4443 34.8156 41.6806 34.8156C47.9169 34.8156 52.9906 39.8874 52.9906 46.1214ZM35.879 32.4197C34.1021 33.1746 32.5012 34.2646 31.1562 35.6105C30.3855 35.2647 29.6977 34.8738 29.1299 34.5075C30.6159 33.5465 32.9126 32.4076 35.4509 32.4076C35.5947 32.4081 35.7371 32.4128 35.879 32.4197ZM52.0365 24.253C50.5501 25.2141 48.2538 26.352 45.7165 26.352C43.1945 26.352 40.889 25.2076 39.396 24.2456C40.8825 23.2845 43.1787 22.1467 45.7165 22.1467C48.238 22.1467 50.5435 23.2911 52.0365 24.253Z"/>
</mask>
<path d="M56.38 12.4209C60.4564 8.34589 60.7045 2.1678 60.7129 1.90672L60.7757 0L58.868 0.0623627C58.6069 0.0712051 52.4265 0.31926 48.3502 4.39424C45.0389 7.70412 44.2538 12.4023 44.0709 14.1889L42.0981 16.1584C42.1339 15.7824 42.1539 15.4008 42.1539 15.0126C42.1539 9.24969 37.9593 4.70605 37.7806 4.51524L36.4761 3.12279L35.1716 4.51524C34.9934 4.70605 30.7983 9.24969 30.7983 15.0126C30.7983 18.914 32.7199 22.2546 34.0174 24.0664L33.822 24.2493L33.9099 24.3321L31.8347 26.4036C31.8692 26.0332 31.8887 25.6567 31.8887 25.2741C31.8887 19.5111 27.6937 14.9675 27.5154 14.7767L26.2109 13.3842L24.9064 14.7767C24.7277 14.9675 20.5331 19.5111 20.5331 25.2741C20.5331 29.1755 22.4548 32.5161 23.7518 34.3279L23.5563 34.5108L23.6373 34.5866L21.571 36.6492C21.6045 36.2834 21.6236 35.9125 21.6236 35.5356C21.6236 29.7726 17.4285 25.229 17.2498 25.0381L15.9458 23.6457L14.6413 25.0381C14.4626 25.229 10.2675 29.7726 10.2675 35.5356C10.2675 39.4369 12.1896 42.7775 13.4866 44.5888L13.2912 44.7717L13.3647 44.8406L0.238281 57.9447L2.76397 60.4732L15.8922 47.3677L15.9462 47.4254L16.1291 47.2299C17.9414 48.527 21.2834 50.4481 25.1857 50.4481C25.9066 50.4481 26.64 50.3797 27.38 50.249C29.1741 56.4512 34.9059 61 41.6806 61C49.8878 61 56.5648 54.3253 56.5648 46.1214C56.5648 38.5173 50.8288 32.2285 43.4551 31.3489C41.5494 30.1612 38.6951 28.8348 35.4513 28.8348C35.0999 28.8348 34.7537 28.8511 34.4126 28.8804L36.4366 26.8597L36.4766 26.9025L36.6595 26.707C38.4717 28.0041 41.8137 29.9248 45.7165 29.9248C51.4813 29.9248 56.0268 25.7316 56.2176 25.5529L57.6105 24.2493L56.2176 22.9453C56.0268 22.7666 51.4813 18.5734 45.7165 18.5734C45.3702 18.5734 45.0291 18.5892 44.6931 18.6176L46.6198 16.6941C48.4344 16.5047 53.0916 15.7079 56.38 12.4209ZM50.8777 6.92039C52.6578 5.14073 55.0937 4.31978 56.8296 3.94421C56.454 5.68059 55.6326 8.11459 53.8525 9.89426C52.0696 11.6767 49.6295 12.4972 47.8931 12.8718C48.2645 11.1424 49.0831 8.71402 50.8777 6.92039ZM36.4803 8.69447C37.4413 10.1805 38.5802 12.4758 38.5802 15.0126C38.5802 17.5332 37.4353 19.8383 36.4724 21.3308C35.5114 19.8448 34.373 17.5495 34.373 15.0126C34.373 12.4921 35.5174 10.187 36.4803 8.69447ZM26.2114 37.164L26.3948 36.968C27.0482 37.4362 27.9012 37.9845 28.9056 38.495C28.7087 38.8231 28.5249 39.1596 28.3531 39.503C27.2837 39.2331 26.2235 39.0963 25.1857 39.0963C24.8297 39.0963 24.4778 39.1126 24.1316 39.1428L26.1644 37.1137L26.2114 37.164ZM26.2151 18.9559C27.1762 20.4419 28.315 22.7372 28.315 25.2741C28.315 27.7951 27.1701 30.0998 26.2072 31.5923C25.2462 30.1063 24.1078 27.811 24.1078 25.2741C24.1078 22.7535 25.2522 20.4484 26.2151 18.9559ZM15.9458 29.2239C16.9082 30.7169 18.0493 33.0187 18.0493 35.5356C18.0493 38.0529 16.9077 40.3547 15.9462 41.8472C14.9838 40.3542 13.8422 38.0524 13.8422 35.5356C13.8422 33.0187 14.9843 30.7164 15.9458 29.2239ZM25.1857 46.8749C22.6679 46.8749 20.3651 45.7337 18.8717 44.7722C20.3656 43.8102 22.6679 42.6691 25.1857 42.6691C25.8242 42.6691 26.4809 42.7454 27.151 42.892C26.9197 43.9322 26.7964 45.0124 26.7964 46.1214C26.7964 46.3224 26.802 46.5221 26.8099 46.7213C26.2575 46.8223 25.7144 46.8749 25.1857 46.8749ZM52.9906 46.1214C52.9906 52.3553 47.9169 57.4272 41.6806 57.4272C35.4443 57.4272 30.3706 52.3553 30.3706 46.1214C30.3706 39.8874 35.4443 34.8156 41.6806 34.8156C47.9169 34.8156 52.9906 39.8874 52.9906 46.1214ZM35.879 32.4197C34.1021 33.1746 32.5012 34.2646 31.1562 35.6105C30.3855 35.2647 29.6977 34.8738 29.1299 34.5075C30.6159 33.5465 32.9126 32.4076 35.4509 32.4076C35.5947 32.4081 35.7371 32.4128 35.879 32.4197ZM52.0365 24.253C50.5501 25.2141 48.2538 26.352 45.7165 26.352C43.1945 26.352 40.889 25.2076 39.396 24.2456C40.8825 23.2845 43.1787 22.1467 45.7165 22.1467C48.238 22.1467 50.5435 23.2911 52.0365 24.253Z" fill="#FF7A00" stroke="white" stroke-width="1.4" mask="url(#path-1-inside-1)"/>
<path d="M40.1025 37.9517V39.9198C39.6333 40.0548 39.1861 40.2414 38.7672 40.4736L37.3743 39.0812L34.8468 41.6073L36.2397 42.9998C36.0075 43.4186 35.8213 43.8659 35.6859 44.3345H33.7168V47.9078H35.6859C35.8213 48.3765 36.0075 48.8237 36.2397 49.2426L34.8468 50.635L37.3743 53.1616L38.7672 51.7687C39.1861 52.0014 39.6333 52.1876 40.1025 52.323V54.2911H43.6767V52.323C44.1458 52.1876 44.593 52.0014 45.0119 51.7692L46.4048 53.1616L48.9324 50.635L47.5394 49.2426C47.7717 48.8242 47.9578 48.3769 48.0933 47.9078H50.0623V44.335H48.0933C47.9578 43.8663 47.7717 43.4191 47.5394 43.0002L48.9324 41.6078L46.4048 39.0812L45.0119 40.4736C44.593 40.2414 44.1458 40.0552 43.6767 39.9198V37.9517H40.1025ZM44.7727 46.1212C44.7727 47.71 43.4793 49.0033 41.8896 49.0033C40.2998 49.0033 39.0065 47.71 39.0065 46.1212C39.0065 44.5319 40.2998 43.239 41.8896 43.239C43.4793 43.239 44.7727 44.5319 44.7727 46.1212Z" fill="#FF7A00"/>
</svg>
