<svg width="61" height="61" viewBox="0 0 61 61" fill="none" xmlns="http://www.w3.org/2000/svg">
<path d="M12.4023 50.7285C12.8958 50.7285 13.2959 50.3284 13.2959 49.835C13.2959 49.3415 12.8958 48.9414 12.4023 48.9414H6.70801C6.21453 48.9414 5.81445 49.3415 5.81445 49.835C5.81445 50.3284 6.21453 50.7285 6.70801 50.7285H12.4023Z" fill="#FF7A00"/>
<path d="M18.1211 50.7285C18.6146 50.7285 19.0146 50.3284 19.0146 49.835C19.0146 49.3415 18.6146 48.9414 18.1211 48.9414H16.001C15.5075 48.9414 15.1074 49.3415 15.1074 49.835C15.1074 50.3284 15.5075 50.7285 16.001 50.7285H18.1211Z" fill="#FF7A00"/>
<path d="M27.5576 53.7178C27.064 53.7178 26.6641 54.1178 26.6641 54.6113C26.6641 55.1048 27.064 55.5049 27.5576 55.5049H30.0352C30.5288 55.5049 30.9287 55.1048 30.9287 54.6113C30.9287 54.1178 30.5288 53.7178 30.0352 53.7178H27.5576Z" fill="#FF7A00"/>
<path d="M14.1543 54.6113C14.1543 55.1048 14.5544 55.5049 15.0479 55.5049H23.959C24.4524 55.5049 24.8525 55.1048 24.8525 54.6113C24.8525 54.1178 24.4524 53.7178 23.959 53.7178H15.0479C14.5544 53.7178 14.1543 54.1178 14.1543 54.6113Z" fill="#FF7A00"/>
<path d="M46.0918 48.9414H38.0146C37.521 48.9414 37.1211 49.3415 37.1211 49.835C37.1211 50.3284 37.521 50.7285 38.0146 50.7285H46.0918C46.5854 50.7285 46.9853 50.3284 46.9853 49.835C46.9853 49.3415 46.5853 48.9414 46.0918 48.9414Z" fill="#FF7A00"/>
<path d="M34.416 50.7285C34.9096 50.7285 35.3096 50.3284 35.3096 49.835C35.3096 49.3415 34.9096 48.9414 34.416 48.9414H31.1045C30.6109 48.9414 30.2109 49.3415 30.2109 49.835C30.2109 50.3284 30.6109 50.7285 31.1045 50.7285H34.416Z" fill="#FF7A00"/>
<path d="M39.918 54.6113C39.918 55.1048 40.3179 55.5049 40.8115 55.5049H53.2205C53.7141 55.5049 54.1141 55.1048 54.1141 54.6113C54.1141 54.1178 53.7141 53.7178 53.2205 53.7178H40.8115C40.3179 53.7178 39.918 54.1178 39.918 54.6113Z" fill="#FF7A00"/>
<path d="M60.1048 59.2129H49.2139C48.7203 59.2129 48.3203 59.613 48.3203 60.1064C48.3203 60.5999 48.7203 61 49.2139 61H60.1048C60.5984 61 60.9983 60.5999 60.9983 60.1064C60.9983 59.613 60.5984 59.2129 60.1048 59.2129Z" fill="#FF7A00"/>
<path d="M60.1064 41.1797C58.511 41.1797 57.6828 41.9813 57.0174 42.6252C56.4519 43.1724 56.0434 43.5679 55.1713 43.5679C54.2991 43.5679 53.8905 43.1724 53.3251 42.6252C52.6597 41.9813 51.8315 41.1797 50.2361 41.1797C48.6408 41.1797 47.8127 41.9813 47.1473 42.6253C46.5821 43.1726 46.1735 43.5679 45.3017 43.5679C44.4297 43.5679 44.0211 43.1726 43.4558 42.6252C42.7904 41.9811 41.9624 41.1797 40.367 41.1797C38.7717 41.1797 37.9437 41.9813 37.2783 42.6252C36.7131 43.1724 36.3045 43.5679 35.4327 43.5679C34.5608 43.5679 34.1523 43.1726 33.5871 42.6252C32.9217 41.9811 32.0936 41.1797 30.4983 41.1797C28.9032 41.1797 28.0751 41.9813 27.4098 42.6253C26.8446 43.1724 26.4362 43.5679 25.5646 43.5679C24.6927 43.5679 24.2842 43.1726 23.719 42.6253C23.0537 41.9813 22.2256 41.1797 20.6304 41.1797C19.0352 41.1797 18.2071 41.9813 17.5417 42.6253C16.9763 43.1726 16.5679 43.5679 15.6959 43.5679C14.824 43.5679 14.4155 43.1726 13.8502 42.6252C13.1849 41.9811 12.3568 41.1797 10.7616 41.1797C9.16644 41.1797 8.33841 41.9813 7.67313 42.6253C7.10781 43.1726 6.6994 43.5679 5.82753 43.5679C4.95565 43.5679 4.54724 43.1726 3.98204 42.6253C3.31676 41.9813 2.48873 41.1797 0.893555 41.1797C0.400074 41.1797 0 41.5798 0 42.0732C0 42.5667 0.400074 42.9668 0.893555 42.9668C1.76543 42.9668 2.17384 43.3621 2.73904 43.9093C3.40432 44.5534 4.23235 45.355 5.82753 45.355C7.4227 45.355 8.25073 44.5534 8.91601 43.9093C9.48133 43.3621 9.88974 42.9668 10.7616 42.9668C11.6335 42.9668 12.042 43.3621 12.6073 43.9094C13.2726 44.5535 14.1008 45.355 15.6959 45.355C17.2911 45.355 18.1191 44.5534 18.7845 43.9094C19.3499 43.3622 19.7583 42.9668 20.6303 42.9668C21.5023 42.9668 21.9107 43.3621 22.476 43.9094C23.1413 44.5535 23.9694 45.355 25.5646 45.355C27.1597 45.355 27.9877 44.5534 28.653 43.9093C29.2182 43.3621 29.6266 42.9668 30.4983 42.9668C31.3702 42.9668 31.7787 43.3621 32.3439 43.9094C33.0093 44.5535 33.8374 45.355 35.4327 45.355C37.028 45.355 37.856 44.5534 38.5214 43.9094C39.0866 43.3622 39.4951 42.9668 40.367 42.9668C41.2391 42.9668 41.6475 43.3622 42.213 43.9094C42.8784 44.5535 43.7064 45.355 45.3017 45.355C46.897 45.355 47.725 44.5534 48.3903 43.9094C48.9556 43.3622 49.3641 42.9668 50.2361 42.9668C51.1082 42.9668 51.5168 43.3621 52.0822 43.9094C52.7476 44.5535 53.5759 45.355 55.1713 45.355C56.7667 45.355 57.5948 44.5534 58.2602 43.9094C58.8257 43.3622 59.2342 42.9668 60.1064 42.9668C60.6 42.9668 61 42.5667 61 42.0732C61 41.5798 60.6 41.1797 60.1064 41.1797Z" fill="#FF7A00"/>
<path d="M45.0627 59.2129H0.893555C0.400074 59.2129 0 59.613 0 60.1064C0 60.5999 0.400074 61 0.893555 61H45.0627C45.5563 61 45.9562 60.5999 45.9562 60.1064C45.9562 59.613 45.5563 59.2129 45.0627 59.2129Z" fill="#FF7A00"/>
<path d="M0.893555 38.2174C3.25433 38.2174 4.40248 38.4946 5.61808 38.7882C6.8818 39.0933 8.18854 39.4088 10.7621 39.4088C13.3356 39.4088 14.6424 39.0933 15.9061 38.7882C17.1217 38.4948 18.2699 38.2174 20.6307 38.2174C22.9915 38.2174 24.1397 38.4946 25.3553 38.7882C26.619 39.0933 27.9258 39.4088 30.4992 39.4088C33.0728 39.4088 34.3796 39.0933 35.6434 38.7882C36.859 38.4948 38.0072 38.2174 40.3679 38.2174C42.729 38.2174 43.8772 38.4946 45.0929 38.7882C46.3567 39.0933 47.6635 39.4088 50.2372 39.4088C52.811 39.4088 54.1177 39.0933 55.3817 38.7882C56.5973 38.4948 57.7456 38.2174 60.1064 38.2174C60.6 38.2174 61 37.8173 61 37.3238C61 36.8304 60.6 36.4303 60.1064 36.4303C57.5328 36.4303 56.226 36.7458 54.9622 37.0509C53.7465 37.3443 52.5982 37.6217 50.2372 37.6217C47.8763 37.6217 46.728 37.3445 45.5124 37.0509C44.2486 36.7458 42.9417 36.4303 40.3679 36.4303C38.0848 36.4303 36.7987 36.6786 35.6552 36.9477L38.8154 26.0069C39.2027 24.6897 40.5866 23.9286 41.9076 24.3102C43.2317 24.6927 43.9979 26.0814 43.6155 27.4056C43.4809 27.871 43.7424 28.3609 44.2069 28.5062C44.2958 28.5341 44.3857 28.5473 44.4741 28.5473C44.8544 28.5473 45.207 28.3026 45.3266 27.9205C45.3317 27.9042 45.3422 27.8705 45.3572 27.8206C45.7719 26.5464 47.1302 25.8189 48.4278 26.1936C49.0693 26.3789 49.6003 26.8029 49.9228 27.3875C50.2454 27.9721 50.3209 28.6474 50.1357 29.2889C49.9988 29.7629 50.2721 30.2583 50.7462 30.3953C50.829 30.4193 50.9125 30.4306 50.9946 30.4306C51.3824 30.4306 51.7396 30.176 51.8525 29.7849C52.925 26.0723 52.4874 22.1644 50.6205 18.7809C48.8982 15.6595 46.1496 13.3293 42.8193 12.145L43.1906 10.8595C43.3275 10.3854 43.0542 9.89005 42.5801 9.75303C42.1062 9.61626 41.6107 9.88945 41.4738 10.3636L41.1024 11.6495C33.7085 9.9956 26.1852 14.3797 24.0546 21.7554C23.9177 22.2294 24.191 22.7249 24.6651 22.8618C25.1395 22.9985 25.6345 22.7253 25.7715 22.2514C26.154 20.9271 27.5421 20.1608 28.8669 20.5435C30.1634 20.9179 30.925 22.2567 30.5975 23.5555C30.5833 23.6066 30.574 23.6413 30.5696 23.6581C30.4432 24.1351 30.7274 24.6243 31.2045 24.7507C31.2812 24.7709 31.3582 24.7807 31.4339 24.7807C31.8244 24.7807 32.1818 24.5228 32.2929 24.1309C32.6771 22.8091 34.0643 22.0449 35.3873 22.4269C36.0287 22.6121 36.5597 23.0361 36.8822 23.6208C37.2049 24.2054 37.2805 24.8807 37.0951 25.5221H37.0953L33.6682 37.3866C32.8579 37.5254 31.8885 37.6216 30.499 37.6216C28.1384 37.6216 26.9901 37.3443 25.7745 37.0508C25.5801 37.0038 25.3846 36.9566 25.1836 36.9103C25.237 36.8613 25.2896 36.8111 25.3412 36.7595C26.2812 35.8195 26.7989 34.5697 26.7989 33.2403C26.7989 31.9109 26.2812 30.6611 25.3412 29.7211C24.4012 28.7811 23.1514 28.2634 21.822 28.2634C20.4927 28.2634 19.2429 28.7811 18.3029 29.7211C16.4287 31.5952 16.3648 34.6046 18.1108 36.5563C17.0375 36.6763 16.2541 36.8654 15.4866 37.0508C14.271 37.3442 13.1229 37.6216 10.7621 37.6216C8.40132 37.6216 7.25316 37.3443 6.03757 37.0508C4.77385 36.7457 3.46711 36.4302 0.893555 36.4302C0.400074 36.4302 0 36.8302 0 37.3237C0 37.8172 0.400074 38.2174 0.893555 38.2174ZM42.4036 22.5933C41.5081 22.3348 40.5954 22.3825 39.7781 22.6744L42.3052 13.9258C42.9741 14.2886 43.4992 14.833 43.8972 15.5729C44.7623 17.1813 44.9968 19.711 44.5752 22.8885C44.5301 23.2276 44.4797 23.5576 44.4262 23.8749C43.9052 23.2831 43.2156 22.8279 42.4036 22.5933ZM49.0559 19.6443C50.0534 21.4519 50.5852 23.4303 50.6357 25.4366C50.1537 24.9929 49.5717 24.6638 48.9239 24.4767C47.9596 24.1981 46.9752 24.275 46.1115 24.6294C46.5686 22.1311 46.8951 18.678 45.9952 15.9573C47.2253 16.9657 48.2643 18.2098 49.0559 19.6443ZM29.363 18.8267C28.7059 18.6369 28.0392 18.6121 27.4077 18.7279C29.4556 15.6655 32.7524 13.6491 36.3733 13.1892C34.1666 15.0121 32.6047 18.1016 31.6608 20.4553C31.1193 19.695 30.3275 19.1052 29.363 18.8267ZM35.8834 20.7099C35.0713 20.4753 34.2452 20.4927 33.4888 20.7156C33.6091 20.4273 33.7385 20.1301 33.8769 19.8279C35.2168 16.9019 36.7675 14.8782 38.3616 13.9754C39.0934 13.5609 39.8282 13.38 40.5884 13.43L38.0622 22.1754C37.5117 21.4733 36.7574 20.9624 35.8834 20.7099ZM24.6203 31.7061C24.8761 32.1709 25.0119 32.6954 25.0119 33.2405C25.0119 34.0925 24.6801 34.8936 24.0776 35.4961C23.4751 36.0986 22.6741 36.4304 21.822 36.4304C21.2767 36.4304 20.7524 36.2945 20.2876 36.0387L24.6203 31.7061ZM19.5666 30.9851C20.1691 30.3826 20.9701 30.0508 21.8222 30.0508C22.3675 30.0508 22.8918 30.1867 23.3567 30.4424L19.025 34.7741C18.3616 33.563 18.5422 32.0095 19.5666 30.9851Z" fill="#FF7A00"/>
<path d="M15.3675 13.1331C17.417 13.1331 19.0845 11.4651 19.0845 9.41492C19.0845 7.36475 17.417 5.69678 15.3675 5.69678C13.3179 5.69678 11.6504 7.36475 11.6504 9.41492C11.6504 11.4651 13.3179 13.1331 15.3675 13.1331ZM15.3675 7.48389C16.4316 7.48389 17.2974 8.35016 17.2974 9.41492C17.2974 10.4798 16.4316 11.346 15.3675 11.346C14.3033 11.346 13.4375 10.4797 13.4375 9.41492C13.4375 8.35016 14.3033 7.48389 15.3675 7.48389Z" fill="#FF7A00"/>
<path d="M14.4766 15.8154V17.9364C14.4766 18.4299 14.8766 18.8299 15.3701 18.8299C15.8636 18.8299 16.2637 18.4299 16.2637 17.9364V15.8154C16.2637 15.3219 15.8636 14.9219 15.3701 14.9219C14.8766 14.9219 14.4766 15.3219 14.4766 15.8154Z" fill="#FF7A00"/>
<path d="M15.3701 3.90817C15.8636 3.90817 16.2637 3.5081 16.2637 3.01462V0.893555C16.2637 0.400074 15.8636 0 15.3701 0C14.8766 0 14.4766 0.400074 14.4766 0.893555V3.01462C14.4766 3.5081 14.8766 3.90817 15.3701 3.90817Z" fill="#FF7A00"/>
<path d="M6.85059 10.3086H8.97069C9.46417 10.3086 9.86425 9.90852 9.86425 9.41504C9.86425 8.92156 9.46417 8.52148 8.97069 8.52148H6.85059C6.35711 8.52148 5.95703 8.92156 5.95703 9.41504C5.95703 9.90852 6.35711 10.3086 6.85059 10.3086Z" fill="#FF7A00"/>
<path d="M20.875 9.41504C20.875 9.90852 21.2751 10.3086 21.7686 10.3086H23.8887C24.3821 10.3086 24.7822 9.90852 24.7822 9.41504C24.7822 8.92156 24.3821 8.52148 23.8887 8.52148H21.7686C21.2751 8.52148 20.875 8.92156 20.875 9.41504Z" fill="#FF7A00"/>
<path d="M10.2119 13.3087L8.71278 14.8085C8.36393 15.1574 8.36393 15.7232 8.71301 16.0721C8.88744 16.2465 9.11607 16.3337 9.3447 16.3337C9.57333 16.3337 9.8022 16.2464 9.97662 16.0718L11.4758 14.5721C11.8246 14.2231 11.8246 13.6573 11.4755 13.3085C11.1267 12.9596 10.5609 12.9596 10.2119 13.3087Z" fill="#FF7A00"/>
<path d="M19.8916 5.78292C20.1204 5.78292 20.3491 5.69559 20.5235 5.52104L22.0227 4.0213C22.3716 3.67222 22.3715 3.10654 22.0224 2.7577C21.6734 2.40873 21.1076 2.40897 20.7588 2.75793L19.2597 4.25768C18.9107 4.60676 18.9109 5.17244 19.2599 5.52128C19.4344 5.6957 19.663 5.78292 19.8916 5.78292Z" fill="#FF7A00"/>
<path d="M10.21 5.52121C10.3844 5.69575 10.6132 5.78308 10.8419 5.78308C11.0706 5.78308 11.2992 5.69587 11.4736 5.52144C11.8227 5.1726 11.8228 4.6068 11.4739 4.25784L9.97471 2.75798C9.62587 2.4089 9.06007 2.40878 8.7111 2.75774C8.36202 3.10658 8.3619 3.67238 8.71087 4.02135L10.21 5.52121Z" fill="#FF7A00"/>
<path d="M19.2599 13.3085C18.9109 13.6573 18.9107 14.2231 19.2597 14.5721L20.7588 16.0718C20.9333 16.2464 21.162 16.3337 21.3908 16.3337C21.6194 16.3337 21.848 16.2465 22.0224 16.0721C22.3715 15.7232 22.3716 15.1574 22.0227 14.8085L20.5235 13.3087C20.1747 12.9596 19.6089 12.9596 19.2599 13.3085Z" fill="#FF7A00"/>
</svg>
