<svg id="Capa_1" enable-background="new 0 0 512 512" height="512" viewBox="0 0 512 512" width="512" xmlns="http://www.w3.org/2000/svg">
	<style>
		path,g{
			fill:#FF7A00;
		}
	</style>
	<g><path d="m42.885 512c23.647 0 42.885-19.238 42.885-42.886 0-23.646-19.238-42.885-42.885-42.885s-42.885 19.239-42.885 42.885c0 23.648 19.238 42.886 42.885 42.886zm0-70.771c15.376 0 27.885 12.509 27.885 27.885s-12.509 27.886-27.885 27.886-27.885-12.51-27.885-27.886 12.509-27.885 27.885-27.885z"/><path d="m469.115 426.229c-23.647 0-42.885 19.238-42.885 42.885s19.238 42.886 42.885 42.886 42.885-19.238 42.885-42.886c0-23.646-19.238-42.885-42.885-42.885zm0 70.771c-15.376 0-27.885-12.51-27.885-27.886s12.509-27.885 27.885-27.885 27.885 12.509 27.885 27.885-12.509 27.886-27.885 27.886z"/><path d="m118.744 447.142c-12.116 0-21.974 9.856-21.974 21.973s9.857 21.974 21.974 21.974h2.833c12.116 0 21.974-9.857 21.974-21.974s-9.857-21.973-21.974-21.973zm9.807 21.972c0 3.846-3.128 6.974-6.974 6.974h-2.833c-3.845 0-6.974-3.128-6.974-6.974 0-3.845 3.128-6.973 6.974-6.973h2.833c3.846.001 6.974 3.129 6.974 6.973z"/><path d="m181.141 447.142h-3.833c-12.116 0-21.974 9.856-21.974 21.973s9.857 21.974 21.974 21.974h3.833c12.116 0 21.974-9.857 21.974-21.974s-9.858-21.973-21.974-21.973zm0 28.946h-3.833c-3.845 0-6.974-3.128-6.974-6.974 0-3.845 3.128-6.973 6.974-6.973h3.833c3.845 0 6.974 3.128 6.974 6.973 0 3.846-3.129 6.974-6.974 6.974z"/><path d="m390.422 491.088h2.833c12.116 0 21.974-9.857 21.974-21.974s-9.857-21.973-21.974-21.973h-2.833c-12.116 0-21.974 9.856-21.974 21.973s9.858 21.974 21.974 21.974zm0-28.946h2.833c3.845 0 6.974 3.128 6.974 6.973 0 3.846-3.128 6.974-6.974 6.974h-2.833c-3.845 0-6.974-3.128-6.974-6.974.001-3.845 3.129-6.973 6.974-6.973z"/><path d="m334.692 447.142h-3.833c-12.116 0-21.974 9.856-21.974 21.973s9.857 21.974 21.974 21.974h3.833c12.116 0 21.974-9.857 21.974-21.974s-9.857-21.973-21.974-21.973zm0 28.946h-3.833c-3.845 0-6.974-3.128-6.974-6.974 0-3.845 3.128-6.973 6.974-6.973h3.833c3.845 0 6.974 3.128 6.974 6.973 0 3.846-3.128 6.974-6.974 6.974z"/><path d="m256 0c-87.504 0-158.695 71.19-158.695 158.694 0 71.336 54.497 166.527 100.215 233.821 2.327 3.426 6.992 4.314 10.418 1.989 3.426-2.328 4.316-6.992 1.989-10.419-44.535-65.553-97.622-157.869-97.622-225.392 0-79.232 64.462-143.693 143.695-143.693s143.695 64.461 143.695 143.694c0 100.508-119.552 257.839-143.518 288.357-.069.088-.285.089-.354-.001-8.389-10.681-17.22-22.458-25.375-33.718-2.429-3.354-7.118-4.105-10.474-1.676-3.355 2.429-4.105 7.118-1.676 10.473 3.658 5.052 7.106 9.732 10.289 13.996-9.703 8.057-15.473 20.075-15.473 32.989.001 23.648 19.239 42.886 42.886 42.886s42.885-19.238 42.885-42.885c0-12.915-5.77-24.933-15.474-32.99 17.802-23.852 44.009-60.863 68.28-102.362 41.806-71.481 63.004-130.384 63.004-175.069 0-87.504-71.191-158.694-158.695-158.694zm27.885 469.115c0 15.376-12.509 27.885-27.885 27.885s-27.885-12.509-27.885-27.885c0-8.163 3.546-15.774 9.54-21.007 2.431 3.167 4.571 5.916 6.371 8.208 6.095 7.762 17.843 7.774 23.948 0 1.786-2.274 3.927-5.025 6.37-8.208 5.995 5.232 9.541 12.844 9.541 21.007z"/><path d="m320.604 56.485c-19.307-12.228-41.647-18.691-64.604-18.691-66.665 0-120.9 54.235-120.9 120.9s54.235 120.902 120.9 120.902 120.9-54.236 120.9-120.901c0-27.901-9.732-55.125-27.403-76.655-2.628-3.202-7.355-3.667-10.556-1.038-3.202 2.628-3.667 7.354-1.039 10.556 15.476 18.854 23.998 42.697 23.998 67.138 0 58.395-47.507 105.901-105.9 105.901s-105.9-47.507-105.9-105.901 47.507-105.9 105.9-105.9c20.111 0 39.676 5.658 56.579 16.363 3.498 2.217 8.133 1.176 10.349-2.323 2.216-3.501 1.176-8.135-2.324-10.351z"/><path d="m192.6 162.599c-4.142 0-7.5 3.357-7.5 7.5v43.346c0 8.905 7.245 16.15 16.15 16.15h109.5c8.905 0 16.15-7.245 16.15-16.15v-109.5c0-8.905-7.245-16.15-16.15-16.15h-109.5c-8.905 0-16.15 7.245-16.15 16.15v31.153c0 4.143 3.358 7.5 7.5 7.5s7.5-3.357 7.5-7.5v-31.153c0-.635.516-1.15 1.15-1.15h109.5c.634 0 1.15.516 1.15 1.15v109.499c0 .635-.516 1.15-1.15 1.15h-109.5c-.634 0-1.15-.516-1.15-1.15v-43.346c0-4.142-3.358-7.499-7.5-7.499z"/><path d="m284.265 120.295c0-4.143-3.358-7.5-7.5-7.5h-41.529c-4.142 0-7.5 3.357-7.5 7.5s3.358 7.5 7.5 7.5h41.529c4.142 0 7.5-3.357 7.5-7.5z"/><circle cx="294.4" cy="197.095" r="7.5"/><circle cx="269.4" cy="197.095" r="7.5"/></g></svg>